<svg width="260" height="228" viewBox="0 0 260 228" fill="none" xmlns="http://www.w3.org/2000/svg">
<g clip-path="url(#clip0)">
<path d="M169.492 228C160.759 226.522 152.36 225.253 144.295 224.192L147.483 218.017C146.408 217.644 141.685 221.18 141.685 221.18L145.869 203.256C140.462 203.907 137.713 222.209 137.713 222.209L131.672 216.021L134.597 222.978C109.914 220.074 88.5968 218.998 70.6667 218.959L73.3955 213.674C72.3204 213.301 67.5972 216.837 67.5972 216.837L71.7812 198.913C66.3743 199.564 63.6252 217.866 63.6252 217.866L57.5844 211.678L60.6819 219.046C48.3971 219.249 36.1308 220.081 23.9314 221.54C26.6914 213.307 36.0674 205.476 36.0674 205.476C28.907 207.604 25.151 211.169 23.1884 214.492C23.013 197.504 25.8407 180.619 31.5414 164.613C31.5414 164.613 16.7411 196.785 18.6296 218.381L18.8555 222.216C6.30821 224.01 0 225.878 0 225.878L169.492 228Z" fill="#3F3D56"/>
<path d="M106.627 185.399L106.626 184.781C107.856 184.78 109.105 184.755 110.338 184.706L110.363 185.323C109.122 185.373 107.865 185.398 106.627 185.399ZM102.891 185.327C101.655 185.279 100.4 185.205 99.1619 185.107L99.2106 184.491C100.44 184.588 101.687 184.662 102.916 184.71L102.891 185.327ZM114.092 185.099L114.043 184.483C115.271 184.385 116.513 184.26 117.735 184.113L117.81 184.727C116.579 184.875 115.328 185 114.092 185.099V185.099ZM95.4439 184.739C94.2103 184.591 92.9655 184.417 91.7436 184.221L91.8418 183.611C93.0554 183.806 94.292 183.979 95.5173 184.125L95.4439 184.739ZM121.509 184.205L121.41 183.595C122.624 183.399 123.852 183.175 125.061 182.929L125.185 183.534C123.967 183.782 122.731 184.007 121.509 184.205V184.205ZM88.0673 183.555C86.8498 183.309 85.6231 183.035 84.4208 182.741L84.568 182.14C85.7622 182.433 86.9808 182.705 88.19 182.949L88.0673 183.555ZM128.83 182.716L128.682 182.116C129.88 181.821 131.086 181.499 132.268 181.157L132.44 181.751C131.25 182.095 130.036 182.419 128.83 182.716V182.716ZM80.8103 181.779C79.6174 181.435 78.4168 181.063 77.2419 180.673L77.4373 180.086C78.6044 180.474 79.797 180.844 80.9819 181.186L80.8103 181.779ZM136.007 180.639L135.811 180.053C136.978 179.663 138.154 179.244 139.306 178.807L139.526 179.385C138.366 179.825 137.182 180.247 136.007 180.639V180.639ZM73.7117 179.418C72.5511 178.979 71.3821 178.509 70.2369 178.022L70.4793 177.453C71.6168 177.937 72.7781 178.404 73.931 178.84L73.7117 179.418ZM142.982 177.993L142.739 177.424C143.87 176.942 145.005 176.43 146.114 175.904L146.38 176.462C145.264 176.992 144.12 177.507 142.982 177.993V177.993ZM66.8224 176.487C65.6987 175.954 64.5721 175.391 63.4741 174.814L63.7619 174.268C64.8526 174.84 65.9715 175.399 67.0876 175.928L66.8224 176.487ZM149.714 174.795L149.426 174.248C150.516 173.675 151.607 173.073 152.67 172.459L152.98 172.994C151.91 173.612 150.811 174.218 149.714 174.795V174.795ZM60.1972 173.009C59.119 172.387 58.0423 171.735 56.9967 171.074L57.3277 170.552C58.3663 171.209 59.4359 171.856 60.5068 172.474L60.1972 173.009ZM156.171 171.063L155.84 170.541C156.877 169.884 157.917 169.197 158.931 168.496L159.283 169.005C158.262 169.71 157.215 170.402 156.171 171.063L156.171 171.063ZM53.8776 169.012C52.8546 168.306 51.8342 167.571 50.8446 166.827L51.2165 166.333C52.1996 167.072 53.2132 167.802 54.2292 168.504L53.8776 169.012ZM162.31 166.823L161.938 166.329C162.919 165.592 163.901 164.823 164.857 164.043L165.249 164.521C164.286 165.307 163.298 166.081 162.31 166.823H162.31ZM47.9024 164.522C46.9419 163.738 45.9842 162.924 45.0558 162.102L45.466 161.64C46.3884 162.456 47.3398 163.265 48.2939 164.043L47.9024 164.522ZM168.093 162.103L167.683 161.641C168.604 160.825 169.522 159.979 170.41 159.127L170.839 159.573C169.945 160.431 169.021 161.282 168.093 162.103H168.093ZM42.3089 159.571C41.4165 158.714 40.5274 157.827 39.6663 156.932L40.1122 156.504C40.9677 157.392 41.8509 158.274 42.7375 159.125L42.3089 159.571ZM173.481 156.935L173.036 156.506C173.888 155.62 174.736 154.704 175.554 153.782L176.017 154.192C175.193 155.12 174.34 156.043 173.481 156.935ZM37.1319 154.191C36.3071 153.262 35.4922 152.307 34.7097 151.351L35.1888 150.959C35.9659 151.909 36.7754 152.858 37.5947 153.781L37.1319 154.191ZM178.441 151.35L177.962 150.959C178.744 150.004 179.515 149.022 180.255 148.041L180.75 148.412C180.005 149.401 179.228 150.389 178.441 151.35ZM32.404 148.417C31.6585 147.428 30.923 146.411 30.2183 145.394L30.727 145.042C31.4271 146.053 32.1575 147.063 32.8982 148.045L32.404 148.417ZM182.939 145.384L182.43 145.032C183.133 144.017 183.823 142.976 184.482 141.938L185.005 142.269C184.341 143.314 183.646 144.362 182.939 145.384ZM28.1562 142.286C27.4933 141.242 26.8423 140.17 26.2213 139.1L26.7565 138.79C27.3734 139.853 28.0201 140.918 28.6785 141.955L28.1562 142.286ZM186.944 139.073L186.409 138.763C187.028 137.694 187.633 136.6 188.206 135.513L188.753 135.8C188.176 136.896 187.568 137.997 186.944 139.073ZM24.417 135.838C23.8406 134.745 23.2785 133.624 22.7462 132.508L23.3047 132.242C23.8335 133.351 24.3919 134.464 24.9643 135.55L24.417 135.838ZM190.429 132.457L189.87 132.191C190.399 131.078 190.914 129.939 191.398 128.804L191.968 129.047C191.48 130.189 190.962 131.336 190.429 132.457ZM21.2118 129.115C20.7246 127.977 20.2551 126.815 19.8164 125.663L20.3945 125.444C20.8304 126.588 21.2967 127.741 21.7806 128.872L21.2118 129.115ZM193.367 125.576L192.789 125.357C193.227 124.201 193.648 123.023 194.038 121.855L194.625 122.051C194.232 123.226 193.809 124.412 193.367 125.576ZM18.5585 122.148C18.1646 120.974 17.7898 119.775 17.4443 118.586L18.0385 118.414C18.3817 119.595 18.754 120.785 19.1452 121.952L18.5585 122.148ZM195.735 118.486L195.141 118.315C195.482 117.135 195.804 115.93 196.099 114.733L196.699 114.88C196.403 116.086 196.078 117.299 195.735 118.486ZM16.4759 114.981C16.1786 113.777 15.9024 112.552 15.6544 111.34L16.2607 111.216C16.5069 112.42 16.7813 113.637 17.0764 114.833L16.4759 114.981ZM197.517 111.238L196.91 111.115C197.155 109.912 197.378 108.684 197.575 107.468L198.185 107.566C197.988 108.791 197.763 110.026 197.517 111.238ZM14.9812 107.668C14.7829 106.448 14.6065 105.205 14.457 103.973L15.0711 103.899C15.2197 105.122 15.3949 106.357 15.592 107.569L14.9812 107.668ZM198.706 103.87L198.091 103.796C198.238 102.573 198.362 101.332 198.46 100.107L199.077 100.156C198.978 101.389 198.854 102.638 198.706 103.87V103.87ZM14.0819 100.26C13.9821 99.0254 13.906 97.7719 13.8557 96.5339L14.4737 96.5089C14.5237 97.7385 14.5994 98.9837 14.6985 100.21L14.0819 100.26ZM199.299 96.4309L198.681 96.4064C198.729 95.175 198.754 93.9278 198.754 92.6995L198.754 92.4948H199.372L199.373 92.6982C199.373 93.9358 199.348 95.1911 199.299 96.4309ZM14.3962 92.802H13.7776L13.7777 92.6982C13.7777 91.4926 13.8011 90.2717 13.8475 89.0709L14.4656 89.0947C14.4196 90.2877 14.3964 91.5005 14.3964 92.6995L14.3962 92.802ZM198.672 88.7888C198.621 87.5617 198.544 86.3165 198.443 85.088L199.06 85.0376C199.161 86.2744 199.239 87.5277 199.29 88.7631L198.672 88.7888ZM14.6823 85.3935L14.0655 85.3453C14.1627 84.1078 14.2863 82.8582 14.4325 81.631L15.0469 81.704C14.9016 82.9231 14.779 84.1645 14.6823 85.3935H14.6823ZM198.067 81.3997C197.918 80.1809 197.741 78.9461 197.542 77.7297L198.153 77.63C198.353 78.8545 198.531 80.0976 198.681 81.3248L198.067 81.3997ZM15.5592 78.0322L14.9484 77.9344C15.1445 76.7108 15.3682 75.475 15.6136 74.2616L16.2199 74.3838C15.9762 75.5892 15.7541 76.8166 15.5592 78.0322H15.5592ZM196.869 74.0836C196.621 72.876 196.345 71.6596 196.049 70.4678L196.65 70.319C196.948 71.5188 197.225 72.7437 197.475 73.9593L196.869 74.0836ZM17.0275 70.7653L16.4265 70.6187C16.7207 69.4159 17.0439 68.2022 17.3871 67.0112L17.9816 67.1821C17.6407 68.3652 17.3197 69.5707 17.0275 70.7653ZM195.083 66.8881C194.739 65.7078 194.366 64.5175 193.973 63.3504L194.56 63.1537C194.955 64.3286 195.331 65.5269 195.677 66.7152L195.083 66.8881ZM19.0802 63.6409L18.4931 63.4459C18.8846 62.2693 19.3063 61.0826 19.7466 59.919L20.3254 60.1375C19.888 61.2934 19.469 62.472 19.0802 63.6409ZM192.719 59.8606C192.28 58.7111 191.812 57.5582 191.33 56.4339L191.898 56.1904C192.384 57.3223 192.855 58.4828 193.298 59.6401L192.719 59.8606ZM21.7117 56.6886L21.1423 56.4466C21.6285 55.3049 22.1451 54.157 22.6775 53.0352L23.2365 53.2999C22.7075 54.4142 22.1946 55.5544 21.7117 56.6886ZM189.802 53.0648C189.272 51.957 188.713 50.8448 188.139 49.7589L188.685 49.4703C189.264 50.5635 189.827 51.6832 190.36 52.7986L189.802 53.0648ZM24.8973 49.9765L24.3493 49.6895C24.926 48.5916 25.5334 47.4899 26.1547 46.4148L26.6905 46.7238C26.0734 47.7916 25.47 48.8861 24.8973 49.9765ZM186.343 46.5217C185.724 45.4578 185.076 44.3935 184.417 43.3581L184.939 43.0264C185.603 44.0689 186.255 45.1404 186.878 46.2112L186.343 46.5217ZM28.6134 43.5471L28.0905 43.2167C28.7542 42.1685 29.4482 41.1198 30.1531 40.0997L30.6621 40.4508C29.9619 41.4641 29.2727 42.5058 28.6134 43.5471ZM182.365 40.2734C181.663 39.2632 180.932 38.2536 180.191 37.2729L180.684 36.9005C181.431 37.8878 182.167 38.9042 182.873 39.9212L182.365 40.2734ZM32.8334 37.4399L32.3389 37.0687C33.0844 36.0775 33.86 35.0883 34.644 34.1284L35.1234 34.5192C34.3445 35.4726 33.5741 36.4552 32.8334 37.4399ZM177.897 34.3609C177.117 33.4099 176.306 32.4617 175.488 31.5425L175.95 31.1318C176.774 32.0572 177.59 33.0118 178.376 33.9692L177.897 34.3609ZM37.5284 31.6929L37.0653 31.2835C37.8867 30.3565 38.7387 29.4328 39.5978 28.5381L40.0442 28.966C39.1909 29.8546 38.3444 30.7723 37.5284 31.6929V31.6929ZM172.968 28.8217C172.112 27.9344 171.227 27.0536 170.339 26.2036L170.767 25.7573C171.661 26.613 172.551 27.4997 173.413 28.3929L172.968 28.8217ZM42.6665 26.3421L42.2376 25.8967C43.1302 25.0386 44.0532 24.1865 44.9806 23.3636L45.3914 23.8256C44.4701 24.643 43.5533 25.4897 42.6665 26.3421V26.3421ZM167.608 23.6919C166.684 22.8755 165.731 22.0677 164.778 21.2911L165.169 20.8121C166.129 21.5939 167.087 22.407 168.018 23.229L167.608 23.6919ZM48.2143 21.4206L47.8222 20.9426C48.782 20.1573 49.7698 19.3819 50.7579 18.6378L51.1304 19.1311C50.1488 19.8703 49.1676 20.6407 48.2143 21.4206ZM161.852 19.0052C160.865 18.2653 159.851 17.5361 158.837 16.8378L159.188 16.329C160.209 17.032 161.23 17.766 162.224 18.5109L161.852 19.0052ZM54.1357 16.9602L53.7832 16.4523C54.803 15.7464 55.8492 15.0528 56.8929 14.3907L57.2246 14.9125C56.1879 15.57 55.1486 16.2589 54.1357 16.9602H54.1357ZM155.736 14.7927C154.693 14.1345 153.623 13.4889 152.555 12.8738L152.864 12.3385C153.939 12.9577 155.017 13.6077 156.067 14.2702L155.736 14.7927ZM60.3924 12.991L60.0821 12.4563C61.1517 11.8367 62.2498 11.2295 63.3454 10.6521L63.6342 11.1986C62.5456 11.7722 61.455 12.3753 60.3924 12.991ZM149.298 11.0841C148.206 10.5123 147.086 9.95476 145.971 9.42714L146.235 8.86859C147.358 9.39968 148.486 9.96095 149.585 10.5367L149.298 11.0841ZM66.9443 9.53909L66.678 8.98114C67.7936 8.4499 68.9362 7.9336 70.0742 7.44657L70.3177 8.01462C69.1874 8.49834 68.0523 9.01117 66.9443 9.53909ZM142.577 7.90584C141.44 7.42349 140.279 6.95832 139.124 6.52289L139.343 5.94473C140.505 6.38303 141.675 6.8515 142.819 7.33703L142.577 7.90584ZM73.749 6.62805L73.5286 6.05049C74.6862 5.60963 75.8697 5.18626 77.0463 4.79202L77.2429 5.37803C76.0744 5.76956 74.8988 6.1902 73.749 6.62805H73.749ZM135.616 5.28086C134.447 4.89356 133.254 4.52496 132.07 4.18534L132.241 3.59149C133.433 3.93337 134.634 4.30438 135.811 4.69425L135.616 5.28086ZM80.7852 4.27028L80.6124 3.67703C81.8022 3.33122 83.0162 3.00502 84.2207 2.70734L84.3693 3.30723C83.1728 3.60295 81.9669 3.92704 80.7852 4.27028ZM128.483 3.23451C127.289 2.94346 126.07 2.67264 124.86 2.42957L124.982 1.82364C126.2 2.06837 127.427 2.34115 128.63 2.63401L128.483 3.23451ZM87.9893 2.49053L87.8651 1.8852C89.0779 1.63716 90.3143 1.41024 91.54 1.21063L91.6397 1.82048C90.422 2.01888 89.1939 2.2443 87.9893 2.49053ZM121.208 1.77175C119.991 1.57801 118.754 1.40632 117.531 1.26178L117.604 0.648009C118.835 0.793605 120.08 0.96636 121.305 1.1616L121.208 1.77175ZM95.3138 1.29814L95.2389 0.684672C96.4696 0.535 97.7201 0.408117 98.9559 0.307928L99.0061 0.923811C97.7785 1.02356 96.5362 1.14938 95.3138 1.29814ZM113.838 0.899673C112.612 0.804168 111.365 0.732046 110.133 0.685424L110.156 0.0677395C111.397 0.114812 112.651 0.187382 113.886 0.283492L113.838 0.899673ZM102.711 0.697343L102.686 0.0799653C103.923 0.0289806 105.179 0.0020981 106.421 0L106.422 0.617996C105.188 0.620094 103.94 0.646801 102.711 0.697343Z" fill="#3F3D56"/>
<path d="M77.5455 127.818C77.5455 127.818 75.0292 138.59 77.186 138.59C79.3428 138.59 83.6563 133.563 83.6563 133.563V130.691L77.5455 127.818Z" fill="#A0616A"/>
<path d="M82.7582 118.302L76.2881 128.356H80.961L82.7582 118.302Z" fill="#D0CDE1"/>
<path d="M87.431 205.918H78.804V213.1H87.431V205.918Z" fill="#A0616A"/>
<path d="M106.483 204.84L108.28 213.099L117.267 210.945L115.11 203.763L106.483 204.84Z" fill="#A0616A"/>
<path d="M79.5228 130.511C79.5228 130.511 76.6471 131.947 76.2877 138.411C75.9282 144.874 77.3661 161.751 77.3661 161.751C77.3661 161.751 75.9282 169.292 77.3661 176.114C78.8039 182.937 75.9282 207.713 77.7255 207.713C79.5228 207.713 88.8688 208.79 89.2283 207.713C89.5877 206.636 89.9472 190.477 89.9472 190.477C89.9472 190.477 92.8229 182.218 89.9472 177.191C89.9472 177.191 96.4175 182.578 96.4175 184.014C96.4175 185.45 103.247 207.713 106.482 208.072C109.718 208.431 118.704 207.713 116.907 204.482C115.109 201.25 110.796 186.527 110.796 186.527C110.796 186.527 107.561 175.755 101.809 171.087L104.685 148.106C104.685 148.106 110.796 132.665 107.201 130.511C103.607 128.356 79.5228 130.511 79.5228 130.511Z" fill="#2F2E41"/>
<path d="M90.3069 71.9808C95.4686 71.9808 99.6529 67.8009 99.6529 62.6447C99.6529 57.4885 95.4686 53.3086 90.3069 53.3086C85.1453 53.3086 80.9609 57.4885 80.9609 62.6447C80.9609 67.8009 85.1453 71.9808 90.3069 71.9808Z" fill="#A0616A"/>
<path d="M85.6333 68.39C85.6333 68.39 89.2279 80.2397 88.1495 81.676C87.0711 83.1124 99.6523 73.7763 99.6523 73.7763C99.6523 73.7763 94.9793 70.5445 96.7766 65.8765L85.6333 68.39Z" fill="#A0616A"/>
<path d="M100.731 72.6987C100.731 72.6987 96.4173 74.1351 94.2606 76.6486C92.1038 79.1622 87.0713 79.5213 87.0713 79.5213C87.0713 79.5213 82.6226 82.024 80.9605 86.3438C79.189 90.9477 80.2187 97.4296 80.9605 98.9117C82.3983 101.784 82.3983 108.966 82.3983 108.966L80.601 125.484C80.601 125.484 74.1307 131.588 79.1632 132.306C84.1956 133.024 93.1822 131.947 98.5741 132.306C103.966 132.665 110.077 133.383 108.28 129.793C106.482 126.202 104.325 123.688 106.482 116.507C108.17 110.887 108.097 89.8749 107.985 81.0019C107.97 79.7833 107.643 78.5889 107.035 77.5323C106.427 76.4756 105.559 75.5919 104.512 74.9652L100.731 72.6987Z" fill="#2F89E3"/>
<path d="M86.712 127.639C86.712 127.639 85.0766 131.236 84.9147 133.384C83.6566 150.082 92.8229 133.384 92.8229 133.384V130.512L86.712 127.639Z" fill="#A0616A"/>
<path d="M111.874 210.227C111.874 210.227 106.482 206.277 106.482 208.431C106.482 210.586 100.372 219.204 100.372 219.204C100.372 219.204 90.3068 226.386 98.5744 226.386C106.842 226.386 110.437 224.949 110.437 224.949L119.064 219.204C119.064 219.204 121.22 216.69 120.501 213.818C119.783 210.945 117.266 206.995 117.266 206.995C117.266 206.995 114.391 210.945 111.874 210.227Z" fill="#2F2E41"/>
<path d="M80.2421 211.304C80.2421 211.304 79.5231 207.713 77.0069 209.509C74.4907 211.304 67.6609 216.69 67.6609 216.69C67.6609 216.69 55.0798 219.563 62.988 223.154C70.8961 226.744 88.8691 221.717 88.8691 221.717C88.8691 221.717 89.5881 210.227 88.8691 210.586C88.1502 210.945 80.6015 212.022 80.2421 211.304Z" fill="#2F2E41"/>
<path opacity="0.1" d="M95.5187 84.0103L96.597 105.914L86.1477 127.056L84.3752 126.382L95.1592 106.632L95.5187 84.0103Z" fill="black"/>
<path d="M103.966 77.3667L106.662 76.8281C106.662 76.8281 114.75 82.753 112.234 94.6027C109.717 106.452 98.5742 124.406 98.5742 124.406C98.5742 124.406 96.058 127.638 95.3391 128.356C94.6201 129.074 93.1823 128.356 93.9012 129.434C94.6201 130.511 92.8228 131.229 92.8228 131.229C92.8228 131.229 84.9147 131.229 85.6336 128.356C86.3525 125.484 98.5742 105.016 98.5742 105.016L96.7769 85.9847C96.7769 85.9847 95.3391 76.6486 103.966 77.3667Z" fill="#D0CDE1"/>
<path opacity="0.1" d="M107.381 110.582V108.068L95.1589 128.177L107.381 110.582Z" fill="black"/>
<path d="M83.6745 53.9959L82.1294 53.378C82.1294 53.378 85.36 49.8251 89.8548 50.1341L88.5906 48.7438C88.5906 48.7438 91.6807 47.508 94.4899 50.752C95.9666 52.4572 97.6752 54.4617 98.7404 56.7197H100.395L99.7045 58.2387L102.122 59.7577L99.6406 59.4849C99.8756 60.7962 99.7952 62.1447 99.406 63.4189L99.4725 64.6195C99.4725 64.6195 96.5968 60.1749 96.5968 59.557V61.1018C96.5968 61.1018 95.0517 59.7115 95.0517 58.7846L94.209 59.866L93.7876 58.1667L88.5906 59.866L89.4334 58.4757L86.2028 58.9391L87.4669 57.2399C87.4669 57.2399 83.815 59.2481 83.6745 60.9473C83.534 62.6465 81.7081 64.8092 81.7081 64.8092L80.8654 63.2644C80.8654 63.2644 79.6012 56.313 83.6745 53.9959Z" fill="#2F2E41"/>
<path d="M260 50.6187H126.719V76.9053H260V50.6187Z" fill="#2F89E3"/>
<path d="M260 81.3428H126.719V107.629H260V81.3428Z" fill="#E6E6E6"/>
<path d="M140.731 71.443C145.072 71.443 148.591 67.9276 148.591 63.5911C148.591 59.2547 145.072 55.7393 140.731 55.7393C136.39 55.7393 132.871 59.2547 132.871 63.5911C132.871 67.9276 136.39 71.443 140.731 71.443Z" fill="white"/>
<path d="M237.103 60.519H159.527V62.226H237.103V60.519Z" fill="white"/>
<path d="M237.103 64.9565H159.527V66.6635H237.103V64.9565Z" fill="white"/>
<path d="M140.731 102.509C145.072 102.509 148.591 98.994 148.591 94.6575C148.591 90.321 145.072 86.8057 140.731 86.8057C136.39 86.8057 132.871 90.321 132.871 94.6575C132.871 98.994 136.39 102.509 140.731 102.509Z" fill="white"/>
<path d="M237.103 91.5845H159.527V93.2914H237.103V91.5845Z" fill="white"/>
<path d="M237.103 96.0229H159.527V97.7299H237.103V96.0229Z" fill="white"/>
<path d="M237.103 91.5845H159.527V93.2914H237.103V91.5845Z" fill="white"/>
<path d="M237.103 96.0229H159.527V97.7299H237.103V96.0229Z" fill="white"/>
<path d="M260 111.526H126.719V137.812H260V111.526Z" fill="#E6E6E6"/>
<path d="M140.731 132.691C145.072 132.691 148.591 129.176 148.591 124.839C148.591 120.503 145.072 116.987 140.731 116.987C136.39 116.987 132.871 120.503 132.871 124.839C132.871 129.176 136.39 132.691 140.731 132.691Z" fill="white"/>
<path d="M237.103 121.767H159.527V123.474H237.103V121.767Z" fill="white"/>
<path d="M237.103 126.206H159.527V127.913H237.103V126.206Z" fill="white"/>
<path d="M237.103 121.767H159.527V123.474H237.103V121.767Z" fill="white"/>
<path d="M237.103 126.206H159.527V127.913H237.103V126.206Z" fill="white"/>
<path d="M140.015 66.559L137.199 62.8096L137.866 62.3099L140.16 65.3644L149.189 57.9849L149.717 58.6294L140.015 66.559Z" fill="#20C3C5"/>
</g>
<defs>
<clipPath id="clip0">
<rect width="260" height="228" fill="white"/>
</clipPath>
</defs>
</svg>
