<svg width="374" height="380" viewBox="0 0 374 380" fill="none" xmlns="http://www.w3.org/2000/svg">
<g clip-path="url(#clip0)">
<path d="M227.343 370.507L116.692 370.874C87.3367 362.029 63.2856 331.308 63.1335 285.247C63.104 278.308 63.6268 271.378 64.6967 264.523L153.821 244.445L222.575 228.957C227.641 233.506 232.362 238.428 236.698 243.682L170.953 278.493L139.939 294.916L174.79 282.859L247.125 257.835C251.636 264.751 255.656 271.977 259.153 279.46L237.328 302.078L262.018 285.87C262.123 286.118 262.228 286.367 262.333 286.616C277.98 323.866 258.566 370.403 227.343 370.507Z" fill="#3E64D3"/>
<path d="M209.159 218.531C192.426 223.35 171.853 229.439 150.702 235.767C120.119 244.92 88.3273 254.579 65.1816 261.64L65.1967 261.557C66.0523 256.602 68.0637 251.921 71.0668 247.894C88.2124 225.54 110.045 209.924 134.343 204.124H134.345C141.178 202.49 148.176 201.653 155.2 201.629C174.532 201.565 192.843 207.645 209.159 218.531Z" fill="#F2F2F2"/>
<path d="M137.45 380.001C179.041 380.001 212.758 375.124 212.758 369.109C212.758 363.094 179.041 358.217 137.45 358.217C95.8589 358.217 62.1426 363.094 62.1426 369.109C62.1426 375.124 95.8589 380.001 137.45 380.001Z" fill="#3F3D56"/>
<path d="M110.658 267.453V284.395L122.727 285.848L129.968 276.65L124.175 265.032L110.658 267.453Z" fill="#FBBEBE"/>
<path d="M156.519 337.16L162.794 354.102L174.38 350.23L165.691 336.191L156.519 337.16Z" fill="#FBBEBE"/>
<path d="M142.036 192.905C142.036 192.905 79.2802 186.612 81.2111 204.038C83.1421 221.465 110.658 271.325 110.658 271.325L129.002 267.936C129.002 267.936 115.968 247.605 116.934 240.828C117.899 234.051 114.038 224.854 114.038 224.854L123.21 226.306L128.52 234.535L139.623 291.656L156.519 342.968L169.07 339.58C169.07 339.58 162.312 318.28 164.243 311.503C166.174 304.726 155.07 278.586 155.07 278.586L162.794 233.083C162.794 233.083 177.759 228.726 173.415 213.72C169.07 198.713 142.036 192.905 142.036 192.905Z" fill="#2F2E41"/>
<path d="M115.968 279.07C115.968 279.07 108.727 273.261 109.21 275.681C109.483 277.446 109.483 279.242 109.21 281.006L102.452 296.012C102.452 296.012 86.0384 311.019 101.003 311.503C115.968 311.987 123.692 296.497 123.692 296.497C123.692 296.497 144.45 281.006 142.036 278.586C139.623 276.165 126.955 270.606 126.955 270.606C126.955 270.606 122.727 282.458 115.968 279.07Z" fill="#2F2E41"/>
<path d="M162.311 346.356C162.311 346.356 155.552 340.064 155.07 342.968C154.587 345.872 154.104 349.745 154.104 349.745L143.967 359.427C143.967 359.427 129.484 373.465 142.036 373.949C145.663 374.113 149.281 373.459 152.623 372.035C155.965 370.611 158.946 368.452 161.345 365.719C161.345 365.719 179.689 361.847 178.724 358.942C177.759 356.038 172.918 344.802 170.752 344.369C168.586 343.936 168.104 350.229 162.311 346.356Z" fill="#2F2E41"/>
<path d="M139.14 123.198C147.405 123.198 154.105 116.479 154.105 108.191C154.105 99.9036 147.405 93.1851 139.14 93.1851C130.875 93.1851 124.175 99.9036 124.175 108.191C124.175 116.479 130.875 123.198 139.14 123.198Z" fill="#FBBEBE"/>
<path d="M132.381 118.356C132.381 118.356 138.656 135.299 138.174 136.751C137.691 138.203 157.966 124.649 157.966 124.649C157.966 124.649 149.277 122.713 149.277 114.968L132.381 118.356Z" fill="#FBBEBE"/>
<path d="M187.414 143.045C187.414 143.045 196.103 151.758 197.551 154.663C198.999 157.567 231.826 194.357 231.826 194.357C231.826 194.357 253.549 220.013 244.86 220.497C236.17 220.981 225.067 200.166 225.067 200.166C225.067 200.166 194.172 177.414 192.724 172.089L174.862 153.695L187.414 143.045Z" fill="#FBBEBE"/>
<path d="M142.036 132.879H136.726L129.485 144.497C129.485 144.497 122.244 150.79 127.554 163.86C132.864 176.93 137.209 193.388 137.209 193.388C137.209 193.388 152.656 195.325 155.553 200.166C158.449 205.006 174.862 220.497 174.862 220.497C174.862 220.497 177.759 210.331 176.793 195.325C175.828 180.318 176.793 157.567 176.793 157.567L175.828 127.554C175.828 127.554 157.183 123.22 155.885 123.935C154.587 124.65 142.036 132.879 142.036 132.879Z" fill="#2347B0"/>
<path d="M168.587 129.006L175.829 127.554C175.829 127.554 183.552 132.394 190.793 146.433C190.793 146.433 175.346 156.598 173.898 156.114C172.449 155.63 168.587 129.006 168.587 129.006Z" fill="#575A89"/>
<path d="M124.174 161.924C124.174 161.924 113.071 179.834 116.451 186.612C119.83 193.389 124.174 192.905 124.174 192.905C124.174 192.905 132.381 191.452 132.381 184.675C132.381 177.898 135.76 177.414 135.76 177.414C135.76 177.414 157.001 159.987 148.794 159.987C140.588 159.987 129.485 172.089 129.485 172.089L129.002 160.955L124.174 161.924Z" fill="#FBBEBE"/>
<path d="M131.416 144.013C131.416 144.013 124.175 145.949 122.726 153.695C121.278 161.44 121.761 165.313 121.761 165.313L131.416 164.344V144.013Z" fill="#575A89"/>
<path opacity="0.1" d="M117.899 182.739C117.899 182.739 125.623 172.573 126.588 174.025L117.899 182.739Z" fill="black"/>
<path d="M146.742 90.0236C146.742 90.0236 138.806 82.0722 131.165 87.411C123.525 92.7498 119.967 97.8346 120.82 101.288C121.673 104.741 124.054 109.513 124.054 109.513C124.054 109.513 122.465 102.354 128.888 101.653C135.312 100.952 144.094 96.4468 144.094 96.4468L150.446 109.172C150.446 109.172 151.218 106.164 153.598 106.959C155.979 107.753 153.708 90.7967 146.742 90.0236Z" fill="#2F2E41"/>
<path d="M304.757 106.334C304.757 106.334 301.787 115.595 297.152 128.9C295.654 133.222 293.975 137.967 292.165 142.96C289.644 149.914 286.868 157.353 283.96 164.792C282.171 169.37 280.334 173.941 278.476 178.409C268.488 202.353 257.851 223.097 250.882 223.388C235.223 224.039 201.682 118.982 198.021 107.373C197.807 106.695 197.697 106.334 197.697 106.334H304.757Z" fill="#3F3D56"/>
<path opacity="0.1" d="M297.152 128.9C295.653 133.222 293.975 137.967 292.165 142.96L250.688 106.334H271.596L297.152 128.9Z" fill="black"/>
<path opacity="0.1" d="M283.96 164.792C282.171 169.37 280.334 173.941 278.476 178.409L198.021 107.373C197.807 106.695 197.697 106.334 197.697 106.334H217.755L283.96 164.792Z" fill="white"/>
<path d="M253.084 13.2885C248.176 17.187 240.415 15.7129 235.698 19.8418C232.472 22.666 231.611 27.4955 232.491 31.6984C233.372 35.9013 235.711 39.6307 238.065 43.2187C239.689 45.6949 241.374 48.1908 243.656 50.0741C246.847 52.7072 250.943 53.9329 254.957 54.9174C263.699 57.0607 272.625 58.3583 281.614 58.7923C285.623 58.9855 290.162 58.7923 292.863 55.8157C294.436 54.0824 295.068 51.7071 295.529 49.4097C296.25 45.8161 296.651 41.9471 295.161 38.5997C293.937 35.8483 291.58 33.7859 289.194 31.955C281.709 26.2119 272.894 21.4572 268.326 13.191C266.51 9.90531 265.39 6.09784 262.638 3.54854C259.051 0.225733 251.069 -1.13296 246.845 1.08673C247.498 2.57853 256.026 10.9515 253.084 13.2885Z" fill="#3E64D3"/>
<path d="M211.841 52.0355C210.386 57.0955 209.045 62.4494 210.271 67.5702C211.886 74.322 217.79 79.3784 224.266 81.8363C230.741 84.2941 237.804 84.581 244.723 84.8402L280.951 86.197C285.504 86.3675 290.144 86.5546 294.423 88.1241C297.95 89.4176 302.141 91.5476 305.082 89.2051C306.415 88.1427 307.014 86.4224 307.487 84.7818C309.027 79.4432 309.889 73.581 307.818 68.4261C305.445 62.5191 299.594 58.6376 293.519 56.7823C287.443 54.9269 281.009 54.7462 274.697 54.0456C268.294 53.3345 261.963 52.0778 255.773 50.2891C250.597 48.7935 245.354 46.8199 241.526 43.0208C239.455 40.9657 237.887 38.4595 235.936 36.2906C224.755 23.8661 214.591 42.4736 211.841 52.0355Z" fill="#3E64D3"/>
<path d="M203.88 75.2822C200.356 76.8648 197.3 79.3331 195.007 82.448C192.714 85.5629 191.262 89.2188 190.791 93.0617C190.321 96.9045 190.848 100.804 192.321 104.383C193.795 107.961 196.165 111.098 199.203 113.488C204.719 117.829 211.938 119.339 218.932 119.844C225.762 120.338 232.621 119.998 239.46 119.658L299.969 116.653C303.516 116.477 307.531 116.068 309.696 113.245C311.312 111.138 311.407 108.233 311.021 105.603C309.633 96.1448 302.511 87.771 293.415 84.9043C289.985 83.8232 286.373 83.4811 282.793 83.1452L256.854 80.7115C253.361 80.3837 249.848 80.0523 246.462 79.1295C236.205 76.3336 227.039 68.1703 216.478 69.379C209.313 70.199 203.414 75.2288 198.209 80.2341" fill="#3E64D3"/>
<path opacity="0.1" d="M237.758 34.3027C237.758 34.3027 246.224 49.6302 289.65 55.819L237.758 34.3027Z" fill="black"/>
<path opacity="0.1" d="M213.737 74.4473C213.737 74.4473 229.469 90.4045 294.396 90.4045L213.737 74.4473Z" fill="black"/>
<path d="M250.191 26.6836C252.479 26.6836 254.335 26.0634 254.335 25.2983C254.335 24.5333 252.479 23.9131 250.191 23.9131C247.902 23.9131 246.046 24.5333 246.046 25.2983C246.046 26.0634 247.902 26.6836 250.191 26.6836Z" fill="white"/>
<path d="M264.006 35.6875C266.294 35.6875 268.15 35.0673 268.15 34.3022C268.15 33.5372 266.294 32.917 264.006 32.917C261.717 32.917 259.861 33.5372 259.861 34.3022C259.861 35.0673 261.717 35.6875 264.006 35.6875Z" fill="white"/>
<path d="M279.892 45.3843C282.181 45.3843 284.036 44.7641 284.036 43.999C284.036 43.234 282.181 42.6138 279.892 42.6138C277.603 42.6138 275.748 43.234 275.748 43.999C275.748 44.7641 277.603 45.3843 279.892 45.3843Z" fill="white"/>
<path d="M224.635 49.5395C226.923 49.5395 228.779 48.9193 228.779 48.1543C228.779 47.3892 226.923 46.769 224.635 46.769C222.346 46.769 220.49 47.3892 220.49 48.1543C220.49 48.9193 222.346 49.5395 224.635 49.5395Z" fill="white"/>
<path d="M259.861 62.6997C262.149 62.6997 264.005 62.0795 264.005 61.3144C264.005 60.5494 262.149 59.9292 259.861 59.9292C257.572 59.9292 255.716 60.5494 255.716 61.3144C255.716 62.0795 257.572 62.6997 259.861 62.6997Z" fill="white"/>
<path d="M210.13 89.7124C212.419 89.7124 214.274 89.0922 214.274 88.3271C214.274 87.5621 212.419 86.9419 210.13 86.9419C207.841 86.9419 205.985 87.5621 205.985 88.3271C205.985 89.0922 207.841 89.7124 210.13 89.7124Z" fill="white"/>
<path d="M236.377 64.084C238.665 64.084 240.521 63.4638 240.521 62.6987C240.521 61.9337 238.665 61.3135 236.377 61.3135C234.088 61.3135 232.232 61.9337 232.232 62.6987C232.232 63.4638 234.088 64.084 236.377 64.084Z" fill="white"/>
<path d="M220.49 100.102C222.779 100.102 224.634 99.4819 224.634 98.7168C224.634 97.9517 222.779 97.3315 220.49 97.3315C218.201 97.3315 216.346 97.9517 216.346 98.7168C216.346 99.4819 218.201 100.102 220.49 100.102Z" fill="white"/>
<path d="M247.428 93.8681C249.717 93.8681 251.572 93.248 251.572 92.4829C251.572 91.7179 249.717 91.0977 247.428 91.0977C245.139 91.0977 243.284 91.7179 243.284 92.4829C243.284 93.248 245.139 93.8681 247.428 93.8681Z" fill="white"/>
<path d="M262.299 213.83C262.299 213.83 267.531 199.967 286.753 203.794L262.299 213.83Z" fill="#3F3D56"/>
<path d="M257.451 208.982C257.451 208.982 265.496 196.547 251.041 183.277L257.451 208.982Z" fill="#3F3D56"/>
<path d="M389.165 215.584L379.955 211.939L370.745 208.295L378.497 202.119L386.249 195.943L387.707 205.763L389.165 215.584Z" fill="#F2F2F2"/>
<path d="M18.4199 152.653L9.2102 149.009L0 145.364L7.75233 139.189L15.5047 133.012L16.9625 142.833L18.4199 152.653Z" fill="#F2F2F2"/>
<path d="M343.304 269.316L334.094 265.672L324.884 262.027L332.636 255.852L340.388 249.675L341.846 259.496L343.304 269.316Z" fill="#F2F2F2"/>
<path d="M65.2192 113.808L56.5208 118.551L47.8228 123.294L48.0757 113.369L48.3287 103.443L56.7742 108.626L65.2192 113.808Z" fill="#F2F2F2"/>
</g>
<defs>
<clipPath id="clip0">
<rect width="393" height="380" fill="white"/>
</clipPath>
</defs>
</svg>
