<svg width="168" height="39" viewBox="0 0 168 39" fill="none" xmlns="http://www.w3.org/2000/svg">
<path d="M11.2426 23.8721L9.16581 26.2834V38.4498H0V0.116211H9.17912V14.0769L9.51194 14.1836L20.1621 0.116211H31.2516L31.3615 0.393024L17.3065 16.8117L34.1837 38.4498H22.3853L11.2426 23.8721Z" fill="#683FDB"/>
<path d="M82.8451 12.816L83.118 12.6526V11.0651H92.2971V38.4495H83.118V35.9882L82.7852 35.8782C81.1976 37.6858 78.4585 38.9998 75.0804 38.9998C67.7052 38.9998 61.9175 32.7032 61.9175 24.7657C61.9175 16.8281 67.9248 10.5348 75.6263 10.5348C78.9678 10.5181 81.2076 11.4353 82.8451 12.816ZM83.118 28.1574V19.4962C81.5338 18.4957 79.3472 17.9621 76.7944 17.9621C73.6826 17.9621 71.1132 20.7002 71.1132 24.749C71.1132 28.7978 73.6826 31.5392 76.7944 31.5392C79.4037 31.5392 81.8067 30.6621 83.118 28.1441V28.1574Z" fill="#683FDB"/>
<path d="M95.1388 11.0654H104.315V14.0203L104.647 14.1837C106.448 12.0493 109.507 10.5151 113.44 10.5151C118.849 10.5151 123.328 14.4005 123.328 22.0112V38.4499H114.156V22.6148C114.156 19.3298 111.969 17.9624 109.347 17.9624C107.38 17.9624 105.579 18.4527 104.321 19.4965V38.4499H95.1388V11.0654Z" fill="#683FDB"/>
<path d="M124.317 11.0655H128.135V1.72726H137.321V11.0655H143.601V17.9091H137.321V27.5809C137.321 29.7154 138.575 30.6459 140.432 30.6459C141.49 30.6419 142.54 30.4754 143.548 30.1523L144.639 37.5428C143.165 38.2532 140.705 38.6901 138.632 38.6901C132.568 38.6901 128.141 34.8614 128.141 28.1812V17.9091H124.317V11.0655Z" fill="#683FDB"/>
<path d="M148.221 29.9486C150.561 30.7479 153.013 31.1733 155.486 31.2093C157.453 31.2093 158.927 30.8258 158.927 29.7318C158.927 28.8547 158.328 28.1443 155.266 27.5407C149.915 26.5402 146.746 23.9288 146.746 19.4964C146.746 13.5266 152.098 10.5184 158.062 10.5184C161.039 10.5549 163.983 11.1487 166.742 12.2693L165.597 19.3297C163.301 18.6193 161.007 18.0724 158.658 18.0724C157.13 18.0724 155.819 18.566 155.819 19.4964C155.819 20.2602 156.092 21.084 159.586 21.7376C164.832 22.6681 168 24.7392 168 29.5117C168 35.8484 162.209 38.8166 156.145 38.8166C153.019 38.783 149.927 38.1713 147.022 37.0124L148.221 29.9486Z" fill="#683FDB"/>
<path d="M43.2625 18.4392L47.1897 24.5691L60.3527 16.0179V11.0653H51.1769H41.3987H32.2229V25.116L43.2625 18.4392Z" fill="#79A52B"/>
<path d="M46.2382 28.9848L42.2677 22.7749L32.5128 28.6713C33.7908 35.008 39.3056 38.9868 46.3248 38.9868C54.3523 38.9868 60.363 33.784 60.363 25.7931V19.8133L46.2382 28.9848Z" fill="#683FDB"/>
</svg>
