<svg width="133" height="104" viewBox="0 0 133 104" fill="none" xmlns="http://www.w3.org/2000/svg">
<g clip-path="url(#clip0)">
<rect x="-29.4736" y="-19.5" width="191.184" height="143" rx="4.5" fill="white" stroke="#F2F2F2"/>
<path opacity="0.1" d="M82.8037 21.1618C75.0044 20.8555 67.5762 18.011 60.4819 14.8984C53.3876 11.7858 46.3631 8.33679 38.7506 6.69469C33.8543 5.63399 28.2555 5.48422 24.3101 8.44981C20.5141 11.3092 19.2873 16.2314 18.6269 20.8024C18.1316 24.2431 17.8388 27.8623 19.1993 31.0825C20.1429 33.3183 21.8192 35.1973 22.9785 37.3391C27.0107 44.7899 24.1607 53.978 19.7898 61.2531C17.7412 64.6653 15.3623 67.925 13.7801 71.5551C12.1978 75.1851 11.4663 79.3503 12.8497 83.0566C14.2223 86.733 17.4917 89.4889 21.0323 91.4292C28.2254 95.3697 36.6983 96.4985 44.9676 97.1371C63.2632 98.5518 81.6576 97.939 100.001 97.3263C106.791 97.0989 113.609 96.8688 120.288 95.6829C123.997 95.0238 127.827 93.9781 130.519 91.4619C133.937 88.258 134.784 82.832 132.494 78.8152C128.652 72.0766 118.033 70.4018 115.345 63.1703C113.866 59.1903 115.384 54.7555 117.532 51.0642C122.14 43.1437 129.863 36.1967 130.271 27.1434C130.55 20.9263 126.837 14.6996 121.096 11.7572C115.078 8.67311 106.734 9.06117 102.297 14.1659C97.7226 19.4094 89.6895 21.4314 82.8037 21.1618Z" fill="#4285F4"/>
<g opacity="0.1">
<path opacity="0.1" d="M11.2254 48.2127C11.2254 48.2127 1.50938 43.5964 0.231513 51.9201C0.231513 51.9201 -0.432771 53.2181 0.491507 54.2899C0.491507 54.2899 0.690403 53.7144 1.62898 54.309C1.96421 54.5184 2.32031 54.6821 2.68976 54.7965C3.1887 54.9519 3.71886 54.92 4.20032 54.7054C4.20032 54.7054 7.39695 54.5102 10.0853 49.7867C10.0853 49.7867 11.2384 48.9821 11.2956 48.6796L9.369 48.8264C9.369 48.8264 9.5172 50.4195 8.71902 51.3754C8.71902 51.3754 9.4262 48.9028 9.08691 48.8338C9.01801 48.8191 8.06903 48.96 8.06903 48.96C8.06903 48.96 8.31473 51.7307 7.02906 53.1637C7.02906 53.1637 8.22243 50.3461 7.70374 49.01L6.28157 49.3198C6.28157 49.3198 6.67157 52.2343 5.265 53.9287C5.265 53.9287 6.42197 50.9334 5.97478 49.4123L4.61371 49.9291C4.61371 49.9291 4.9413 52.7791 3.76483 54.1871C3.76483 54.1871 4.79181 50.5737 4.30822 50.0759C4.30822 50.0759 3.08365 50.6368 2.82235 50.9569C2.82235 50.9569 3.01605 53.0125 2.26857 53.754C2.26857 53.754 2.72746 51.2579 2.49996 51.1551C2.49996 51.1551 1.07779 52.365 0.643604 53.4089C0.643604 53.4089 1.18439 51.8144 2.32187 50.9129C2.32187 50.9129 1.36639 50.7308 0.631904 51.1816C0.631904 51.1816 1.12329 50.1229 2.66636 50.6251C2.66636 50.6251 3.80903 49.7309 4.03783 49.7441C4.03783 49.7441 2.57796 49.01 1.52368 49.101C1.52368 49.101 2.65466 48.3669 4.39402 49.5929L5.75249 49.0393C5.75249 49.0393 3.86753 47.9484 2.92375 47.9528C2.92375 47.9528 4.17952 47.4037 6.10478 48.9307L7.49575 48.6106C7.49575 48.6106 5.93578 47.5314 4.88411 47.2803C4.88411 47.2803 6.14508 47.0542 7.89744 48.5357L8.84771 48.4461C8.84771 48.4461 7.69724 47.6797 7.34885 47.4932C7.00046 47.3068 7.01606 47.1864 7.01606 47.1864C7.84483 47.3492 8.61719 47.7691 9.24681 48.3992C9.24681 48.3992 11.2176 48.3492 11.2254 48.2127Z" fill="#20C3C5"/>
</g>
<g opacity="0.1">
<path opacity="0.1" d="M10.869 39.9373C10.869 39.9373 7.42275 30.9412 2.46727 35.067C2.46727 35.067 1.41949 35.4106 1.42729 36.6381C1.42729 36.6381 1.83548 36.4237 2.09417 37.3825C2.18903 37.7226 2.31998 38.0485 2.48416 38.3531C2.70116 38.767 3.03218 39.0893 3.42664 39.2707C3.42664 39.2707 5.4247 41.2118 9.4065 40.1356C9.4065 40.1356 10.4985 40.3984 10.6844 40.2574L9.4676 39.1019C9.4676 39.1019 8.75132 40.1444 7.79194 40.1943C7.79194 40.1943 9.4598 39.1812 9.29341 38.9213C9.25961 38.8684 8.62392 38.3428 8.62392 38.3428C8.62392 38.3428 7.37335 40.1458 5.89398 40.1737C5.89398 40.1737 8.02463 39.2663 8.38993 38.1402L7.38895 37.406C7.38895 37.406 6.14878 39.3867 4.46012 39.4895C4.46012 39.4895 6.65837 38.4544 7.16016 37.2621L6.09028 36.6939C6.09028 36.6939 4.84751 38.6027 3.44224 38.6746C3.44224 38.6746 5.87579 37.1887 5.83809 36.5823C5.83809 36.5823 4.82801 36.1271 4.50692 36.1536C4.50692 36.1536 3.58784 37.4971 2.76756 37.4589C2.76756 37.4589 4.30022 36.271 4.21702 36.064C4.21702 36.064 2.76106 35.8673 1.97718 36.2108C1.97718 36.2108 3.10295 35.6118 4.23262 35.8085C4.23262 35.8085 3.75683 35.0847 3.09515 34.8835C3.09515 34.8835 3.92193 34.5708 4.58492 35.8599C4.58492 35.8599 5.71329 36.0655 5.84589 36.2182C5.84589 36.2182 5.3506 34.8395 4.67591 34.2184C4.67591 34.2184 5.71589 34.512 6.13188 36.3577L7.21865 36.9024C7.21865 36.9024 6.64927 35.0406 6.08508 34.4371C6.08508 34.4371 7.10816 34.9187 7.48255 37.0654L8.47053 37.7687C8.47053 37.7687 8.08833 36.1242 7.59045 35.2976C7.59045 35.2976 8.45363 35.9759 8.74612 37.9831L9.3571 38.541C9.3571 38.541 9.05941 37.3458 8.94632 37.011C8.83322 36.6763 8.90342 36.6146 8.90342 36.6146C9.31406 37.2442 9.5612 37.9906 9.6171 38.7701C9.6171 38.7701 10.7923 40.0122 10.869 39.9373Z" fill="#20C3C5"/>
</g>
<path d="M121.322 97.9565C121.192 97.425 121.062 96.8862 120.802 96.4236C120.561 96.0311 120.274 95.677 119.95 95.3709C119.007 94.4033 117.849 93.421 116.6 93.6662C116.212 93.7618 115.838 93.9159 115.487 94.1243C115.305 94.2197 115.122 94.3152 114.934 94.3959C114.407 94.6448 113.824 94.7022 113.267 94.5604C112.981 94.4738 112.714 94.3181 112.432 94.2212C112.298 94.1759 112.16 94.1425 112.021 94.1214C112.294 93.9821 112.558 93.8247 112.814 93.65C114.217 92.6707 115.336 90.9088 115.179 89.044C115.127 88.4127 114.934 87.8092 114.745 87.2146C114.578 86.6948 114.411 86.1745 114.244 85.6538C114.028 84.9769 113.806 84.2883 113.411 83.7259C112.971 83.1004 112.347 82.6761 111.703 82.3589C110.317 81.6791 108.802 81.4398 107.307 81.2078L107.203 81.1917V62.9497C107.204 62.7948 107.178 62.6413 107.126 62.4979C107.074 62.3546 106.998 62.2242 106.901 62.1144C106.805 62.0045 106.69 61.9173 106.563 61.8578C106.436 61.7983 106.301 61.7677 106.164 61.7677H104.197C104.11 61.1687 104.023 60.5701 103.937 59.972C103.688 58.2673 103.432 56.5289 102.737 54.9931C102.282 53.9873 101.556 53.03 100.58 52.8317C100.388 52.8115 100.199 52.7621 100.019 52.6849C99.7326 52.5263 99.5766 52.1739 99.3556 51.9126C98.7888 51.2416 97.8671 51.2313 97.1066 50.8848C96.4358 50.5838 95.8872 50.0156 95.2763 49.5795C94.6653 49.1434 93.9048 48.8321 93.2275 49.117C93.2275 49.1728 93.2184 49.2271 93.2132 49.2829L92.779 49.0627C92.311 48.8189 91.8326 48.5664 91.4569 48.1641C90.9734 47.6487 90.716 46.9689 90.5158 46.2435C90.495 46.1672 90.4755 46.0967 90.456 46.016C91.2867 45.0572 91.8492 43.8433 92.0731 42.5259C92.1082 42.6536 92.1446 42.7828 92.1797 42.912C92.2117 43.0434 92.2553 43.1708 92.3097 43.2923C92.3278 43.3325 92.3482 43.3712 92.3708 43.4083C92.4137 43.4804 92.4674 43.5435 92.5294 43.5948C92.591 43.6454 92.6631 43.6772 92.7387 43.6873C92.7749 43.693 92.8117 43.693 92.8479 43.6873C92.9461 43.6638 93.0375 43.613 93.1138 43.5394C93.1901 43.4658 93.2489 43.3717 93.2847 43.2659C93.3054 43.2081 93.3207 43.1481 93.3302 43.0867C93.3352 43.0498 93.3383 43.0125 93.3393 42.9751C93.3393 42.9634 93.3393 42.9517 93.3393 42.9399C93.3393 42.9282 93.3393 42.8885 93.3393 42.8636C93.3393 42.8386 93.3393 42.8357 93.3393 42.8224C93.3393 42.8092 93.3393 42.7725 93.3393 42.749V42.7109C93.3393 42.6815 93.3315 42.6521 93.3263 42.6242C93.3211 42.5963 93.3263 42.6081 93.3263 42.6007C93.3198 42.5626 93.312 42.5259 93.3055 42.4877C93.3049 42.4794 93.3049 42.471 93.3055 42.4627L93.286 42.3702L93.2743 42.3144V42.2997C93.2613 42.2425 93.2496 42.1837 93.2379 42.125C93.1434 41.6149 93.1193 41.0914 93.1664 40.573C93.2447 39.8126 93.3689 39.0591 93.5382 38.3177L93.5655 38.1841L93.5967 38.0285C93.6175 37.9228 93.637 37.8171 93.6565 37.7113C93.6734 37.6218 93.689 37.5307 93.7033 37.4397C93.7176 37.3487 93.728 37.2797 93.7384 37.1989C93.7384 37.1886 93.7384 37.1798 93.7384 37.1695C93.8178 36.6223 93.8392 36.0663 93.8021 35.5133C93.741 34.7454 93.5304 34.0186 93.0676 33.4386C92.7413 33.029 92.3123 32.7265 92.0094 32.2963C91.7247 31.8925 91.5648 31.3963 91.2711 31.0013C90.4586 29.9059 88.3747 29.0617 87.0956 28.9149C85.6305 28.7475 83.2632 29.1703 82.0829 30.1482C81.6461 30.5094 81.3471 31.0292 81.0429 31.524C80.4839 32.4431 79.8482 33.3593 78.9525 33.8732C78.6132 34.0671 78.2259 34.2139 78.001 34.5516C77.8651 34.7805 77.7762 35.0409 77.741 35.3136C77.5682 36.2706 77.4785 37.2442 77.4732 38.2208C77.4537 38.648 77.5022 39.0757 77.6162 39.4836C77.6344 39.5394 77.6565 39.5966 77.6799 39.6509C77.7007 39.6994 77.7241 39.7479 77.7488 39.7978L77.7644 39.8286C77.9213 40.083 78.0608 40.3505 78.1817 40.6288C78.2103 40.7072 78.2312 40.789 78.2441 40.8726C78.2663 41.0881 78.254 41.3065 78.2077 41.5171C78.2077 41.5494 78.1973 41.5803 78.1908 41.6111L78.1791 41.6786C78.1791 41.6992 78.1791 41.7212 78.1687 41.7418C78.1583 41.8054 78.1492 41.8685 78.1414 41.9312C78.1414 41.9752 78.1336 42.0208 78.1323 42.0663C78.123 42.2481 78.1539 42.4297 78.222 42.5949C78.2391 42.6342 78.2595 42.6716 78.2831 42.7064C78.3296 42.7769 78.3896 42.8346 78.4585 42.8753C78.6134 42.941 78.775 42.9844 78.9395 43.0045C79.4257 43.1278 79.7299 43.5478 79.9275 44.0631C79.9713 44.1788 80.0099 44.2969 80.0432 44.417C80.1243 44.7183 80.1851 45.026 80.2252 45.3376C80.4462 45.3244 80.5749 45.1042 80.6529 44.8634C80.6773 44.784 80.6977 44.7031 80.714 44.6211C80.7439 44.4669 80.7738 44.3128 80.805 44.1586C81.3181 45.3883 82.1447 46.417 83.1787 47.1128C83.2151 47.2332 83.2502 47.355 83.2827 47.4784C83.453 48.1435 83.5349 48.8409 83.2398 49.4224C83.0292 49.835 82.6744 50.0905 82.2792 50.2666C82.2223 50.1804 82.149 50.1096 82.0647 50.0596C81.7215 49.8658 81.3107 50.1022 81.0247 50.3914C80.5047 50.923 80.0809 51.685 79.3958 51.8597C79.1488 51.9243 78.8758 51.9111 78.6691 52.0814C78.533 52.226 78.4192 52.3952 78.3325 52.5821C78.1839 52.8229 77.9841 53.0177 77.7515 53.1485C77.5189 53.2794 77.2609 53.3421 77.0013 53.331C76.7634 53.3177 76.4813 53.2561 76.3188 53.4528C76.1979 53.5997 76.1888 53.8331 76.0588 53.9726C75.8833 54.1664 75.5986 54.071 75.3542 54.0592C75.1776 54.0597 75.003 54.1009 74.841 54.1802C74.6789 54.2594 74.5329 54.3751 74.4117 54.5203C74.3964 53.9279 74.1956 53.3608 73.845 52.9198C73.494 52.5117 73.0065 52.3017 72.5905 51.9816C71.5505 51.1829 71.0305 49.7792 70.4884 48.493C69.9463 47.2067 69.2314 45.85 68.0484 45.3817C67.7767 45.273 67.3984 45.2642 67.2762 45.5623C67.2346 45.6867 67.2278 45.8225 67.2567 45.9514C67.3711 46.6356 67.8027 47.1847 68.1758 47.7353C68.8037 48.6633 69.3302 49.7983 69.1781 50.9582C69 52.3311 67.9171 53.397 67.7871 54.7757C67.7299 55.3836 67.8664 55.9944 67.8651 56.6052C67.8651 56.987 67.8118 57.3731 67.8846 57.7446C67.9619 58.0268 68.0535 58.3038 68.1589 58.5742C68.276 59.0179 68.3365 59.4782 68.3383 59.9412C68.4301 61.8871 68.5216 63.8336 68.6126 65.7805C68.6815 67.2327 68.4007 68.6657 68.1173 70.0944C67.7659 70.9412 67.4932 71.8269 67.3035 72.7373C66.9837 74.3274 66.9746 76.0218 67.4335 77.5694C67.6792 78.4107 68.0562 79.1992 68.2577 80.0552C68.2577 80.0743 68.2655 80.0919 68.2694 80.1095C68.2889 80.2916 68.311 80.4737 68.3409 80.6543C68.3778 80.8629 68.426 81.0689 68.4852 81.2709C68.5442 81.619 68.6402 81.9577 68.7712 82.2797C68.9535 82.6887 69.2212 83.0414 69.5512 83.3075C69.364 83.7215 69.0611 84.0548 68.8596 84.4601C68.5086 85.1619 68.4943 86.0238 68.6217 86.8196C68.8674 88.3554 69.6019 89.7283 70.5716 90.8442C70.5283 90.8413 70.4849 90.8413 70.4416 90.8442C70.1244 90.8838 69.8198 91.007 69.5525 91.2039C67.4998 92.5591 66.3259 95.4619 66.7549 98.1195C66.8394 98.6393 66.9863 99.1649 67.2931 99.5599C67.5485 99.8743 67.8768 100.102 68.2408 100.216C68.4681 100.293 68.7022 100.343 68.9389 100.363C70.5391 100.51 72.0887 99.6715 73.6929 99.601C74.2247 99.5915 74.7566 99.6195 75.2853 99.6847C76.0575 99.7571 76.8314 99.8031 77.6071 99.8227C78.8667 99.8565 79.5765 99.4777 80.3812 98.4132C80.579 98.149 80.7438 97.8556 80.8713 97.541C81.5551 97.497 82.3104 97.4294 82.8577 97.378L82.8654 97.4647C82.8953 97.7583 82.9408 98.096 83.1488 98.2825C83.2663 98.3724 83.3992 98.4334 83.5388 98.4616C84.8531 98.8272 86.183 99.1958 87.5349 99.1958C88.1699 99.1809 88.8035 99.1255 89.4329 99.0298L91.8118 98.72C92.5041 98.8207 93.1874 98.9887 93.8541 99.2222C94.5405 99.4865 95.1827 99.8785 95.8534 100.187C97.4134 100.902 99.093 101.157 100.756 101.407C101.039 101.45 101.364 101.479 101.575 101.26C101.845 100.967 101.754 100.475 101.679 100.064C101.647 99.8961 101.624 99.7258 101.605 99.5555C102.727 99.8887 103.825 100.319 104.888 100.843L105.075 100.936C105.129 101.256 105.391 101.513 105.642 101.858C105.725 102.003 105.821 102.137 105.93 102.259C106.053 102.351 106.194 102.409 106.342 102.427C108.098 102.797 109.892 102.888 111.671 102.699C112.035 102.643 112.403 102.629 112.77 102.657C113.039 102.698 113.304 102.765 113.563 102.859L115.068 103.345C116.177 103.705 117.315 104.068 118.465 103.987C118.699 103.969 118.931 103.932 119.159 103.874C120.069 103.636 120.918 103.06 121.355 102.135C121.941 100.877 121.657 99.3308 121.322 97.9565ZM77.1677 74.9911C77.1213 75.6278 76.9743 76.2499 76.7335 76.8279C76.5723 77.1965 76.3643 77.5356 76.2135 77.9056C76.0705 78.2404 75.9639 78.8732 75.9002 79.5677C75.8222 79.5531 75.7429 79.5398 75.6649 79.5296C75.7806 79.0715 75.8677 78.6016 75.9834 78.142C76.2577 77.0496 76.7088 76.0174 77.1677 74.9911Z" fill="url(#paint0_linear)"/>
<path d="M79.1711 97.5734C78.8968 96.8687 78.6368 96.0582 78.9111 95.3534C79.0901 94.9383 79.3977 94.6118 79.7756 94.4357C80.1495 94.2635 80.5436 94.1537 80.9455 94.1097C82.2071 93.9229 83.4837 93.9031 84.7493 94.051C84.8416 94.8762 84.6466 95.7131 84.4789 96.5104C84.3268 97.2445 84.2397 97.3532 83.5689 97.3914C83.1347 97.4178 79.2738 97.8333 79.1711 97.5734Z" fill="#FBBEBE"/>
<path d="M90.7473 92.819C101.014 92.819 109.337 90.1895 109.337 86.9459C109.337 83.7022 101.014 81.0728 90.7473 81.0728C80.4805 81.0728 72.1577 83.7022 72.1577 86.9459C72.1577 90.1895 80.4805 92.819 90.7473 92.819Z" fill="#464353"/>
<path opacity="0.1" d="M90.7473 92.819C101.014 92.819 109.337 90.1895 109.337 86.9459C109.337 83.7022 101.014 81.0728 90.7473 81.0728C80.4805 81.0728 72.1577 83.7022 72.1577 86.9459C72.1577 90.1895 80.4805 92.819 90.7473 92.819Z" fill="black"/>
<path d="M94.0801 55.9416C93.4429 57.3323 92.3846 58.4182 91.098 59.0015C90.3404 59.3133 89.5432 59.4849 88.7372 59.5095C87.8546 59.555 86.9537 59.4904 86.1243 59.1498C85.0115 58.6946 84.0872 57.7637 83.3944 56.6787C82.7015 55.5936 82.2244 54.3544 81.8097 53.1049C81.5913 52.4544 81.3833 51.7614 81.486 51.0742C82.1555 50.9024 82.8887 50.6499 83.2345 49.9789C83.5296 49.4033 83.4477 48.7132 83.2774 48.0554C83.2293 47.869 83.1734 47.684 83.1175 47.5063C82.9875 47.0805 82.539 46.2715 82.851 45.9073C83.0499 45.6768 83.8831 45.5594 84.1704 45.4096C85.0557 44.9486 85.8721 44.282 86.8445 44.0632C87.6856 43.8738 88.5539 44.0514 89.3937 44.2482C89.5051 44.2665 89.6121 44.3099 89.7083 44.3759C89.818 44.4803 89.8992 44.6178 89.9423 44.7724C90.1815 45.4301 90.3219 46.1569 90.5143 46.8426C90.7145 47.5606 90.9719 48.2346 91.4542 48.7441C91.8299 49.142 92.3083 49.3916 92.7762 49.6338L93.928 50.23C94.1329 50.3166 94.3187 50.4524 94.4727 50.6279C94.6233 50.8617 94.7134 51.1383 94.7327 51.4266C94.9391 52.9717 94.7108 54.5509 94.0801 55.9416Z" fill="#FBBEBE"/>
<path opacity="0.1" d="M90.5091 46.8426C89.5922 47.9198 88.385 48.6232 87.0764 48.8427C85.7678 49.0621 84.4317 48.7853 83.2773 48.0554C83.2292 47.869 83.1733 47.684 83.1174 47.5063C82.9874 47.0805 82.5389 46.2715 82.8509 45.9073C83.0498 45.6768 83.8831 45.5594 84.1704 45.4096C85.0557 44.9485 85.8721 44.282 86.8444 44.0632C87.6855 43.8738 88.5539 44.0514 89.3937 44.2482C89.5051 44.2665 89.6121 44.3099 89.7083 44.3759C89.818 44.4803 89.8991 44.6178 89.9423 44.7724C90.1763 45.4301 90.3167 46.1569 90.5091 46.8426Z" fill="black"/>
<path d="M86.1972 48.6237C89.4997 48.6237 92.177 45.5998 92.177 41.8696C92.177 38.1394 89.4997 35.1155 86.1972 35.1155C82.8946 35.1155 80.2173 38.1394 80.2173 41.8696C80.2173 45.5998 82.8946 48.6237 86.1972 48.6237Z" fill="#FBBEBE"/>
<path d="M104.416 63.7896L103.925 60.4272C103.676 58.7402 103.42 57.0208 102.726 55.5012C102.27 54.5057 101.546 53.5571 100.569 53.3604C100.377 53.341 100.188 53.2916 100.008 53.2136C99.7218 53.0579 99.5658 52.7085 99.3461 52.4501C98.7793 51.7864 97.8563 51.7761 97.0972 51.4384C96.4264 51.1447 95.8778 50.5795 95.2668 50.1478C94.6558 49.7161 93.8953 49.4136 93.2194 49.6897C93.1102 51.0038 92.9945 52.3473 92.5005 53.5439C92.179 54.323 91.7073 55.011 91.1201 55.5576C90.5329 56.1043 89.8449 56.4958 89.1065 56.7036C88.368 56.9113 87.5978 56.93 86.8522 56.7583C86.1066 56.5866 85.4043 56.2288 84.7968 55.7111C83.6386 54.7259 82.8963 53.2062 82.5505 51.6161C82.466 51.2284 82.3698 50.7836 82.0539 50.6059C81.712 50.4121 81.3012 50.647 81.0139 50.9318C80.4875 51.459 80.0689 52.2137 79.3851 52.3913C79.1381 52.4559 78.8651 52.4427 78.6597 52.6116C78.5232 52.7539 78.4089 52.9211 78.3217 53.1064C78.1721 53.3452 77.9721 53.5381 77.74 53.6679C77.5078 53.7976 77.2507 53.8599 76.9918 53.8493C76.7539 53.8361 76.4718 53.7744 76.3093 53.9697C76.1884 54.1166 76.1793 54.3456 76.0494 54.4822C75.8739 54.6745 75.5892 54.5805 75.3448 54.5703C74.882 54.5482 74.4517 54.883 74.1865 55.3044C73.9213 55.7258 73.7965 56.247 73.6665 56.7521C75.0874 60.3259 76.3873 63.9041 77.8082 67.4779C77.8748 67.6126 77.9101 67.7642 77.9109 67.9184C77.8824 68.0785 77.8219 68.2292 77.7341 68.3589C77.0373 69.6231 77.0594 71.2133 77.1361 72.6992C77.2128 74.1851 77.3064 75.7547 76.7188 77.0864C76.5589 77.452 76.3509 77.7868 76.1988 78.1524C75.8427 78.9805 75.714 81.6293 75.9219 82.5191H105.301C104.741 80.7791 104.954 77.2876 105.071 75.4405C105.153 74.1484 104.941 72.8577 104.85 71.5657C104.659 68.9271 104.802 66.4237 104.416 63.7896Z" fill="#F86D70"/>
<path d="M105.92 81.4911C106.353 81.3046 106.83 81.3721 107.294 81.4426C108.788 81.6731 110.303 81.9095 111.688 82.5835C112.338 82.8977 112.957 83.3176 113.396 83.9358C113.786 84.4922 114.014 85.1735 114.229 85.8445L114.729 87.3848C114.918 87.9721 115.111 88.5711 115.164 89.1952C115.32 91.0437 114.201 92.7866 112.793 93.7468C111.385 94.7071 109.728 95.0492 108.113 95.4074C106.498 95.7657 104.877 96.1621 103.269 96.5821C102.519 96.8019 101.758 96.9711 100.991 97.0886C99.2693 97.3089 97.4702 96.9844 95.8348 97.6275C95.1848 97.8844 94.5465 98.2662 93.8719 98.4439C93.4244 98.5547 92.9717 98.6371 92.516 98.6905L89.4208 99.0899C88.7914 99.185 88.1577 99.2399 87.5228 99.2543C86.1708 99.2543 84.841 98.8931 83.528 98.5319C83.3884 98.5043 83.2555 98.4438 83.138 98.3543C82.93 98.1693 82.8845 97.8419 82.8546 97.5453C82.722 96.2326 82.6059 94.9185 82.5062 93.6029C82.475 93.1757 82.4516 92.7132 82.6583 92.3534C82.9183 91.9129 83.4253 91.7749 83.8881 91.6898C85.8505 91.3272 87.8384 91.1713 89.8264 91.2243C90.5816 90.3712 91.827 90.3668 92.8163 89.9029C93.1802 89.7141 93.5324 89.4978 93.8706 89.2553C95.6394 88.0896 97.6161 87.3839 99.6567 87.1895C100.057 87.1757 100.454 87.1117 100.841 86.9986C101.607 86.7299 102.305 85.9987 103.091 86.1778C103.189 85.8739 103.256 85.4672 103.481 85.2587C103.593 85.1515 103.731 85.0796 103.834 84.965C104.051 84.7169 104.07 84.3263 104.038 83.9798C104.005 83.6333 103.932 83.278 104.012 82.9403C104.045 82.8124 104.093 82.6904 104.156 82.5776C104.547 81.8053 105.136 81.4177 105.92 81.4911Z" fill="#464353"/>
<path opacity="0.05" d="M105.92 81.4911C106.353 81.3046 106.83 81.3721 107.294 81.4426C108.788 81.6731 110.303 81.9095 111.688 82.5835C112.338 82.8977 112.957 83.3176 113.396 83.9358C113.786 84.4922 114.014 85.1735 114.229 85.8445L114.729 87.3848C114.918 87.9721 115.111 88.5711 115.164 89.1952C115.32 91.0437 114.201 92.7866 112.793 93.7468C111.385 94.7071 109.728 95.0492 108.113 95.4074C106.498 95.7657 104.877 96.1621 103.269 96.5821C102.519 96.8019 101.758 96.9711 100.991 97.0886C99.2693 97.3089 97.4702 96.9844 95.8348 97.6275C95.1848 97.8844 94.5465 98.2662 93.8719 98.4439C93.4244 98.5547 92.9717 98.6371 92.516 98.6905L89.4208 99.0899C88.7914 99.185 88.1577 99.2399 87.5228 99.2543C86.1708 99.2543 84.841 98.8931 83.528 98.5319C83.3884 98.5043 83.2555 98.4438 83.138 98.3543C82.93 98.1693 82.8845 97.8419 82.8546 97.5453C82.722 96.2326 82.6059 94.9185 82.5062 93.6029C82.475 93.1757 82.4516 92.7132 82.6583 92.3534C82.9183 91.9129 83.4253 91.7749 83.8881 91.6898C85.8505 91.3272 87.8384 91.1713 89.8264 91.2243C90.5816 90.3712 91.827 90.3668 92.8163 89.9029C93.1802 89.7141 93.5324 89.4978 93.8706 89.2553C95.6394 88.0896 97.6161 87.3839 99.6567 87.1895C100.057 87.1757 100.454 87.1117 100.841 86.9986C101.607 86.7299 102.305 85.9987 103.091 86.1778C103.189 85.8739 103.256 85.4672 103.481 85.2587C103.593 85.1515 103.731 85.0796 103.834 84.965C104.051 84.7169 104.07 84.3263 104.038 83.9798C104.005 83.6333 103.932 83.278 104.012 82.9403C104.045 82.8124 104.093 82.6904 104.156 82.5776C104.547 81.8053 105.136 81.4177 105.92 81.4911Z" fill="black"/>
<path d="M80.3668 98.4807C79.5621 99.5335 78.8537 99.9094 77.594 99.8756C76.8192 99.855 76.0453 99.8095 75.2722 99.739C74.7439 99.6745 74.2125 99.6466 73.6811 99.6554C72.0769 99.7258 70.5287 100.555 68.9284 100.41C68.6918 100.389 68.4578 100.34 68.2303 100.263C67.8693 100.15 67.5431 99.9256 67.2878 99.6157C66.981 99.2237 66.8341 98.7039 66.7496 98.19C66.3219 95.5559 67.4945 92.6869 69.5472 91.3463C69.815 91.151 70.1194 91.0288 70.4364 90.9895C70.7471 90.9881 71.0543 91.0643 71.3359 91.2127L71.3554 91.2215C72.1894 91.6091 72.9468 92.1801 73.5836 92.9012C73.6802 93.0262 73.7955 93.1311 73.9242 93.211C74.0526 93.2658 74.1886 93.2947 74.3259 93.2962L76.034 93.4181C76.3234 93.4278 76.6111 93.4726 76.892 93.5517C77.2017 93.6738 77.5032 93.821 77.7942 93.9922C78.7133 94.4561 79.7324 94.5795 80.7256 94.7586C80.8213 94.7646 80.9127 94.8059 80.9856 94.8761C81.0252 94.9318 81.0528 94.9971 81.0662 95.067C81.2049 95.6573 81.2136 96.2769 81.0917 96.8719C80.9698 97.4669 80.721 98.0192 80.3668 98.4807Z" fill="#3F3D56"/>
<path opacity="0.1" d="M71.3502 91.2215C70.6875 91.9363 70.1126 92.7481 69.6408 93.6354C68.8837 95.0997 68.408 96.7276 68.2446 98.4132C68.1826 99.0281 68.1779 99.6486 68.2303 100.265C67.8691 100.151 67.5429 99.9261 67.2878 99.6157C66.981 99.2237 66.8341 98.7039 66.7496 98.19C66.322 95.5559 67.4945 92.6869 69.5472 91.3463C69.815 91.151 70.1194 91.0288 70.4363 90.9895C70.7471 90.9881 71.0543 91.0643 71.3359 91.2127L71.3502 91.2215Z" fill="black"/>
<path d="M104.433 94.873C105.389 94.8437 106.461 94.7894 107.163 95.5162C107.833 96.2033 107.921 97.3368 107.965 98.3573L108.016 99.5422C108.032 99.9034 108.045 100.276 107.916 100.611C107.687 101.198 107.059 101.482 106.486 101.448C105.913 101.414 105.386 101.131 104.862 100.875C103.44 100.183 101.959 99.6564 100.442 99.3029C100.492 98.4836 100.574 97.6682 100.689 96.8567C100.769 96.2943 100.782 95.3532 101.114 94.8863C101.467 94.3929 101.926 94.6601 102.404 94.7512C103.075 94.8669 103.755 94.9077 104.433 94.873Z" fill="#FBBEBE"/>
<path d="M79.1851 82.9683C79.1851 83.1151 78.981 82.9683 78.9628 82.8112C78.8198 81.6234 77.9852 80.644 77.0128 80.1683C76.0404 79.6926 74.9328 79.6676 73.8799 79.7807C72.2874 79.951 70.5064 80.6396 69.9175 82.3208C69.7798 82.7143 69.7174 83.1401 69.5484 83.5174C69.3612 83.9315 69.0557 84.2619 68.8529 84.6642C68.5032 85.3601 68.4889 86.2132 68.615 87.0002C68.9543 89.0999 70.2256 90.8956 71.7661 92.1392C73.3066 93.3829 75.107 94.1258 76.9023 94.7954C81.6494 96.5637 86.5198 97.8775 91.462 98.723C92.2628 98.8596 93.0713 98.9858 93.8383 99.2766C94.5247 99.5365 95.1669 99.9255 95.8377 100.231C97.3976 100.939 99.0759 101.191 100.739 101.439C101.022 101.48 101.347 101.51 101.556 101.293C101.827 101.009 101.737 100.516 101.66 100.109C101.378 98.5639 101.614 96.9555 102.322 95.5956C102.6 95.067 102.962 94.5252 102.91 93.9129C102.847 93.1993 102.218 92.6942 101.591 92.5797C100.965 92.4652 100.328 92.634 99.6986 92.7265C99.4815 92.7588 99.2449 92.7794 99.0486 92.6546C98.9551 92.5833 98.8703 92.4984 98.7964 92.4021C98.363 91.9298 97.8082 91.6247 97.2118 91.5305C96.6153 91.4363 96.0078 91.5579 95.4763 91.8779C95.2436 92.0247 94.8913 91.6973 94.6495 91.5739L91.9183 90.1747C88.7775 88.5698 85.6212 86.9576 82.2985 85.9416C82.0334 85.8827 81.7814 85.7644 81.5575 85.5936C81.3924 85.4468 81.2741 85.2471 81.122 85.0841C80.7905 84.7303 80.329 84.5893 79.9312 84.3382C79.5334 84.0871 79.0915 83.4719 79.1851 82.9683Z" fill="#464353"/>
<path d="M121.329 102.157C120.892 103.072 120.044 103.642 119.134 103.877C118.906 103.935 118.674 103.972 118.44 103.988C117.29 104.069 116.154 103.709 115.045 103.354L113.539 102.872C113.281 102.78 113.015 102.713 112.746 102.673C112.38 102.645 112.013 102.659 111.649 102.715C109.87 102.902 108.076 102.811 106.319 102.445C106.172 102.427 106.031 102.37 105.907 102.279C105.799 102.159 105.702 102.025 105.62 101.881C105.21 101.325 104.77 101 105.255 100.266C105.534 99.8402 106.053 99.6273 106.27 99.1384C106.487 98.6495 106.348 97.955 106.219 97.4499C106.044 96.7524 105.467 96.4514 105.26 95.8113C105.105 95.3282 105.365 94.7673 105.756 94.5045C106.148 94.2417 106.631 94.2211 107.082 94.2887C107.533 94.3562 107.975 94.5001 108.429 94.5397C109.763 94.6601 111.127 93.8834 112.407 94.321C112.689 94.4179 112.956 94.572 113.242 94.6572C113.799 94.7981 114.382 94.7411 114.909 94.4942C115.097 94.4149 115.28 94.3195 115.462 94.2255C115.813 94.0191 116.187 93.8666 116.573 93.7718C117.823 93.5296 118.981 94.506 119.923 95.4589C120.247 95.7622 120.533 96.1127 120.775 96.5014C121.035 96.9595 121.173 97.4925 121.295 98.0181C121.639 99.3792 121.924 100.909 121.329 102.157Z" fill="#3F3D56"/>
<path opacity="0.1" d="M121.329 102.157C120.892 103.072 120.044 103.642 119.134 103.877C119.488 103.1 119.648 102.229 119.596 101.357C119.518 99.9609 118.975 98.6453 118.282 97.4854C117.855 96.7713 117.371 96.1042 116.834 95.4929C116.42 95.0231 115.912 94.6501 115.467 94.2199C115.818 94.0135 116.192 93.8609 116.579 93.7662C117.828 93.5239 118.986 94.5003 119.929 95.4533C120.252 95.7565 120.539 96.1071 120.78 96.4957C121.04 96.9538 121.178 97.4868 121.3 98.0125C121.64 99.3795 121.924 100.909 121.329 102.157Z" fill="black"/>
<path d="M82.0661 30.9074C81.6293 31.2641 81.3303 31.7766 81.0261 32.2685C80.4658 33.1773 79.8314 34.0847 78.9357 34.5913C78.5965 34.7836 78.2091 34.929 77.9842 35.2637C77.8507 35.4902 77.7641 35.7476 77.7307 36.017C77.5591 36.9642 77.4694 37.928 77.4629 38.8948C77.4629 39.3764 77.4811 39.8727 77.6696 40.3102C77.8477 40.7214 78.1688 41.0693 78.2351 41.5172C78.2858 41.8666 78.1714 42.2146 78.1311 42.5655C78.0908 42.9164 78.161 43.332 78.4483 43.4994C78.6031 43.5651 78.7647 43.6081 78.9292 43.6271C79.7937 43.8444 80.0836 44.9897 80.2149 45.9367C80.5087 45.9176 80.6413 45.5373 80.7024 45.2275L81.6033 40.7037C81.7008 40.2133 81.8633 39.6451 82.2962 39.4733C82.5861 39.3603 82.9032 39.466 83.2061 39.4953C84.3956 39.6055 85.4018 38.5674 86.5653 38.2811C86.9377 38.1967 87.3185 38.1685 87.6975 38.1974C88.6153 38.2488 89.6826 38.6746 89.8776 39.6422C89.9101 39.7993 89.9296 39.9872 90.0596 40.065C90.1896 40.1429 90.3196 40.0768 90.4626 40.065C91.0449 39.999 91.3881 40.739 91.5558 41.3439L92.1668 43.5463C92.2578 43.8796 92.4112 44.2717 92.731 44.3143C93.0261 44.3554 93.277 44.0397 93.3212 43.7269C93.3654 43.4142 93.2692 43.0897 93.2055 42.7755C92.9182 41.3292 93.3576 39.8492 93.6254 38.4C93.8932 36.9508 93.9413 35.2858 93.043 34.1699C92.7167 33.7661 92.2877 33.4651 91.9835 33.0393C91.7001 32.6399 91.5402 32.1495 91.2464 31.7575C90.434 30.6754 88.3501 29.8399 87.0722 29.7019C85.6176 29.5213 83.2464 29.9398 82.0661 30.9074Z" fill="#3F3D56"/>
<g opacity="0.1">
<path opacity="0.1" d="M92.7359 43.2849C92.4161 43.2408 92.2627 42.8444 92.1717 42.517C91.9681 41.7819 91.7644 41.0477 91.5608 40.3146C91.3931 39.7082 91.0499 38.9681 90.4675 39.0357C90.3375 39.0518 90.1841 39.112 90.0645 39.0357C89.9449 38.9593 89.915 38.7699 89.8825 38.6128C89.6875 37.6437 88.6202 37.2194 87.7024 37.168C87.3234 37.1399 86.9427 37.168 86.5702 37.2517C85.4002 37.5454 84.4005 38.5732 83.2111 38.466C82.9043 38.4381 82.5871 38.3324 82.3011 38.4454C81.863 38.6158 81.7057 39.1796 81.6082 39.6759L80.7073 44.1982C80.6462 44.5094 80.5136 44.8897 80.2198 44.9074C80.0898 43.9618 79.7986 42.8165 78.9342 42.5992C78.7698 42.5788 78.6083 42.5359 78.4532 42.4715C78.3401 42.4017 78.2515 42.2903 78.2023 42.1558C78.1789 42.2923 78.1516 42.4289 78.136 42.5654C78.097 42.9149 78.1659 43.3319 78.4532 43.4993C78.608 43.565 78.7696 43.608 78.9342 43.627C79.7986 43.8443 80.0885 44.9896 80.2198 45.9366C80.5136 45.9175 80.6462 45.5373 80.7073 45.2274L81.6082 40.7037C81.7057 40.2132 81.8682 39.645 82.3011 39.4732C82.591 39.3602 82.9082 39.4659 83.2111 39.4953C84.4005 39.6054 85.4067 38.5673 86.5702 38.281C86.941 38.1971 87.3199 38.169 87.6973 38.1973C88.615 38.2487 89.6823 38.6745 89.8773 39.6421C89.9098 39.7992 89.9293 39.9871 90.0593 40.0649C90.1893 40.1428 90.3193 40.0767 90.4623 40.0649C91.0447 39.9989 91.3879 40.7389 91.5556 41.3438C91.7584 42.0789 91.962 42.8131 92.1665 43.5463C92.2575 43.8796 92.4109 44.2716 92.7307 44.3142C93.0258 44.3553 93.2767 44.0396 93.3209 43.7269C93.3409 43.4637 93.3144 43.1987 93.2429 42.9472C93.1967 43.0531 93.1241 43.1415 93.0341 43.2015C92.944 43.2615 92.8404 43.2905 92.7359 43.2849Z" fill="black"/>
<path opacity="0.1" d="M78.2361 40.4893C78.1698 40.0414 77.8461 39.6935 77.6706 39.2823C77.5577 39.005 77.4924 38.7061 77.4782 38.4014C77.4782 38.5658 77.4652 38.7303 77.4639 38.8962C77.4639 39.3778 77.4821 39.8741 77.6706 40.3116C77.8149 40.6449 78.0528 40.9386 78.1724 41.2777C78.2354 41.0214 78.257 40.7543 78.2361 40.4893Z" fill="black"/>
<path opacity="0.1" d="M93.63 37.3647C93.3934 38.6451 93.0242 39.9489 93.1386 41.2322C93.2127 40.2852 93.4571 39.3322 93.63 38.3925C93.7741 37.6794 93.8249 36.9463 93.7808 36.2166C93.7525 36.6026 93.7021 36.9861 93.63 37.3647Z" fill="black"/>
</g>
<path d="M78.7483 70.2795C78.591 73.1955 76.697 75.605 75.9755 78.4094C75.7961 79.1112 75.6882 79.8395 75.4308 80.5076C74.9108 81.8511 73.8409 82.826 72.7008 83.5132C72.2849 83.7847 71.8299 83.9716 71.3567 84.0652C70.8365 84.1339 70.3101 84.0219 69.8477 83.7441C69.3853 83.4663 69.0088 83.0359 68.7684 82.5103C68.4707 81.8276 68.4291 81.042 68.2484 80.3079C68.0469 79.4607 67.6699 78.6796 67.4242 77.847C66.9719 76.3156 66.981 74.6388 67.2942 73.0648C67.5911 71.6961 68.0609 70.3827 68.6891 69.1651C68.7801 68.9845 68.8724 68.8054 68.9673 68.6277C69.2355 68.1141 69.5366 67.6233 69.8682 67.1594C70.6482 66.0978 71.6505 65.2815 72.6423 64.4769C72.7181 64.4064 72.807 64.3562 72.9023 64.33H72.9179C73.0298 64.3256 73.1406 64.355 73.239 64.4152C74.6146 65.0869 75.9349 65.8947 77.1844 66.829C77.6316 67.1653 78.3375 67.5412 78.5715 68.1138C78.8055 68.6864 78.7821 69.657 78.7483 70.2795Z" fill="#FBBEBE"/>
<path d="M73.5873 56.8607C73.4606 57.0104 73.3624 57.1878 73.2987 57.3819C72.2479 60.0567 71.6272 62.9216 71.4657 65.8422C71.4685 65.9846 71.4395 66.1255 71.3812 66.2518C71.3238 66.3359 71.2598 66.414 71.1901 66.4853C71.1268 66.57 71.0796 66.6685 71.0514 66.7747C71.0231 66.8808 71.0144 66.9924 71.0259 67.1025C71.0374 67.2126 71.0687 67.3189 71.1179 67.4147C71.1672 67.5106 71.2334 67.5941 71.3123 67.6599C71.5268 67.2033 72.0403 67.055 72.4966 67.0153C74.6818 66.8201 76.8164 67.9682 79.0081 67.8816C78.8534 67.2782 78.6311 66.6982 78.505 66.0874C77.9474 63.3755 79.3383 60.4227 78.4856 57.8107C78.3153 57.2879 78.0306 56.774 77.5821 56.545C77.3964 56.4603 77.202 56.4021 77.0036 56.3717C76.4498 56.2587 75.3474 55.7756 74.8118 55.9694C74.6142 56.0414 74.5362 56.2513 74.3724 56.3776C74.1293 56.5582 73.7992 56.6213 73.5873 56.8607Z" fill="#F86D70"/>
<path opacity="0.1" d="M74.4831 81.1389C74.1489 81.7792 73.6743 82.3116 73.1051 82.6847C72.5359 83.0578 71.8912 83.2592 71.2332 83.2693C70.877 83.2799 70.5228 83.2064 70.1932 83.0535C69.3625 82.6395 68.8932 81.6146 68.719 80.6074C68.5448 79.6001 68.5994 78.5606 68.4759 77.543C68.3772 76.7325 68.1666 75.9456 68.0574 75.1365C67.7896 73.1353 68.3174 71.1589 68.693 69.1665C68.784 68.9859 68.8763 68.8068 68.9712 68.6291C69.2394 68.1155 69.5405 67.6247 69.8721 67.1608C70.6521 66.0992 71.6544 65.2829 72.6462 64.4783H71.6063C71.6314 64.4575 71.661 64.4445 71.692 64.4407C71.723 64.4368 71.7543 64.4422 71.7828 64.4563C71.8114 64.4705 71.8362 64.4928 71.8547 64.5211C71.8732 64.5494 71.8848 64.5828 71.8884 64.6177C71.9911 65.6455 73.2741 66.6733 73.5536 67.6718C73.7265 68.2855 73.9345 68.8875 74.0736 69.513C74.1833 70.0457 74.2666 70.5849 74.3232 71.1281C74.5078 72.6483 74.6915 74.1655 74.8744 75.6798C75.1045 77.5284 75.3021 79.5267 74.4831 81.1389Z" fill="black"/>
<path d="M72.7617 61.8603L74.0162 57.4158C74.2034 56.7507 74.3932 56.0753 74.4153 55.3764C74.4374 54.6775 74.2749 53.9448 73.842 53.4456C73.491 53.0418 73.0048 52.8333 72.5889 52.5176C71.5489 51.7262 71.0289 50.3402 70.4868 49.0642C69.9447 47.7883 69.231 46.4536 68.0481 45.9808C67.7751 45.8722 67.3981 45.8634 67.2759 46.1585C67.2336 46.2812 67.2268 46.4158 67.2564 46.5432C67.3708 47.2215 67.8011 47.7633 68.1755 48.3051C68.8033 49.2228 69.3285 50.346 69.1777 51.4942C68.9983 52.8539 67.9168 53.9081 67.7868 55.2751C67.7296 55.8771 67.8661 56.4805 67.8648 57.0869C67.8648 57.4628 67.8102 57.846 67.8843 58.2131C67.9612 58.4969 68.0528 58.7754 68.1586 59.0471C68.2743 59.4861 68.3347 59.9413 68.338 60.3994L68.6123 66.1785C68.7604 69.3045 67.259 72.3453 67.6724 75.4287C67.7816 76.2377 67.9922 77.0247 68.091 77.8352C68.221 78.8527 68.1599 79.8908 68.3341 80.8995C68.5083 81.9082 68.984 82.9316 69.8082 83.3457C70.1378 83.4986 70.492 83.5721 70.8482 83.5615C71.5063 83.5514 72.1509 83.35 72.7201 82.9769C73.2893 82.6037 73.7639 82.0714 74.0981 81.431C74.9171 79.8159 74.7195 77.8205 74.4959 75.9793L73.9447 71.4276C73.8881 70.8845 73.8048 70.3453 73.6951 69.8125C73.5573 69.187 73.3493 68.585 73.1751 67.9713C72.6175 65.9642 72.2002 63.8542 72.7617 61.8603Z" fill="#FBBEBE"/>
<path d="M106.156 62.2053H79.2387C78.6665 62.2053 78.2026 62.7293 78.2026 63.3755V81.8848C78.2026 82.5311 78.6665 83.055 79.2387 83.055H106.156C106.728 83.055 107.192 82.5311 107.192 81.8848V63.3755C107.192 62.7293 106.728 62.2053 106.156 62.2053Z" fill="#3F3D56"/>
<path opacity="0.2" d="M106.156 62.2053H79.2387C78.6665 62.2053 78.2026 62.7293 78.2026 63.3755V81.8848C78.2026 82.5311 78.6665 83.055 79.2387 83.055H106.156C106.728 83.055 107.192 82.5311 107.192 81.8848V63.3755C107.192 62.7293 106.728 62.2053 106.156 62.2053Z" fill="black"/>
<path d="M92.632 73.5112C93.0628 73.5112 93.412 73.1168 93.412 72.6303C93.412 72.1437 93.0628 71.7493 92.632 71.7493C92.2013 71.7493 91.8521 72.1437 91.8521 72.6303C91.8521 73.1168 92.2013 73.5112 92.632 73.5112Z" fill="white"/>
<path d="M58.4257 89.7122H60C60.8619 89.7122 61.6885 90.0989 62.298 90.7873C62.9075 91.4757 63.2499 92.4093 63.2499 93.3829V98.8317H55.1758V93.3829C55.1758 92.4093 55.5182 91.4757 56.1277 90.7873C56.7371 90.0989 57.5638 89.7122 58.4257 89.7122Z" fill="#3F3D56"/>
<path opacity="0.1" d="M58.4257 89.7122H60C60.8619 89.7122 61.6885 90.0989 62.298 90.7873C62.9075 91.4757 63.2499 92.4093 63.2499 93.3829V98.8317H55.1758V93.3829C55.1758 92.4093 55.5182 91.4757 56.1277 90.7873C56.7371 90.0989 57.5638 89.7122 58.4257 89.7122Z" fill="black"/>
<path d="M58.8912 91.7192C59.248 91.7192 59.5373 91.3925 59.5373 90.9895C59.5373 90.5865 59.248 90.2598 58.8912 90.2598C58.5344 90.2598 58.2451 90.5865 58.2451 90.9895C58.2451 91.3925 58.5344 91.7192 58.8912 91.7192Z" fill="#3F3D56"/>
<path d="M58.8912 90.8074C59.248 90.8074 59.5373 90.4807 59.5373 90.0776C59.5373 89.6746 59.248 89.3479 58.8912 89.3479C58.5344 89.3479 58.2451 89.6746 58.2451 90.0776C58.2451 90.4807 58.5344 90.8074 58.8912 90.8074Z" fill="#3F3D56"/>
<path d="M58.8912 89.8955C59.248 89.8955 59.5373 89.5688 59.5373 89.1658C59.5373 88.7628 59.248 88.436 58.8912 88.436C58.5344 88.436 58.2451 88.7628 58.2451 89.1658C58.2451 89.5688 58.5344 89.8955 58.8912 89.8955Z" fill="#3F3D56"/>
<path d="M58.8912 88.9836C59.248 88.9836 59.5373 88.6569 59.5373 88.2539C59.5373 87.8509 59.248 87.5242 58.8912 87.5242C58.5344 87.5242 58.2451 87.8509 58.2451 88.2539C58.2451 88.6569 58.5344 88.9836 58.8912 88.9836Z" fill="#3F3D56"/>
<path d="M58.8912 88.072C59.248 88.072 59.5373 87.7453 59.5373 87.3423C59.5373 86.9393 59.248 86.6125 58.8912 86.6125C58.5344 86.6125 58.2451 86.9393 58.2451 87.3423C58.2451 87.7453 58.5344 88.072 58.8912 88.072Z" fill="#3F3D56"/>
<path d="M58.8912 87.1604C59.248 87.1604 59.5373 86.8337 59.5373 86.4307C59.5373 86.0276 59.248 85.7009 58.8912 85.7009C58.5344 85.7009 58.2451 86.0276 58.2451 86.4307C58.2451 86.8337 58.5344 87.1604 58.8912 87.1604Z" fill="#3F3D56"/>
<path d="M58.8912 86.2485C59.248 86.2485 59.5373 85.9218 59.5373 85.5188C59.5373 85.1158 59.248 84.7891 58.8912 84.7891C58.5344 84.7891 58.2451 85.1158 58.2451 85.5188C58.2451 85.9218 58.5344 86.2485 58.8912 86.2485Z" fill="#3F3D56"/>
<path d="M59.86 86.6126C60.2168 86.6126 60.506 86.2858 60.506 85.8828C60.506 85.4798 60.2168 85.1531 59.86 85.1531C59.5031 85.1531 59.2139 85.4798 59.2139 85.8828C59.2139 86.2858 59.5031 86.6126 59.86 86.6126Z" fill="#3F3D56"/>
<path d="M60.5055 86.2485C60.8623 86.2485 61.1515 85.9218 61.1515 85.5188C61.1515 85.1158 60.8623 84.7891 60.5055 84.7891C60.1486 84.7891 59.8594 85.1158 59.8594 85.5188C59.8594 85.9218 60.1486 86.2485 60.5055 86.2485Z" fill="#3F3D56"/>
<path d="M61.1519 85.8828C61.5088 85.8828 61.798 85.5561 61.798 85.1531C61.798 84.7501 61.5088 84.4233 61.1519 84.4233C60.7951 84.4233 60.5059 84.7501 60.5059 85.1531C60.5059 85.5561 60.7951 85.8828 61.1519 85.8828Z" fill="#3F3D56"/>
<path d="M58.8912 85.3352C59.248 85.3352 59.5373 85.0085 59.5373 84.6055C59.5373 84.2024 59.248 83.8757 58.8912 83.8757C58.5344 83.8757 58.2451 84.2024 58.2451 84.6055C58.2451 85.0085 58.5344 85.3352 58.8912 85.3352Z" fill="#3F3D56"/>
<path d="M58.8912 84.4233C59.248 84.4233 59.5373 84.0966 59.5373 83.6936C59.5373 83.2906 59.248 82.9639 58.8912 82.9639C58.5344 82.9639 58.2451 83.2906 58.2451 83.6936C58.2451 84.0966 58.5344 84.4233 58.8912 84.4233Z" fill="#3F3D56"/>
<path d="M58.8912 83.5115C59.248 83.5115 59.5373 83.1848 59.5373 82.7817C59.5373 82.3787 59.248 82.052 58.8912 82.052C58.5344 82.052 58.2451 82.3787 58.2451 82.7817C58.2451 83.1848 58.5344 83.5115 58.8912 83.5115Z" fill="#3F3D56"/>
<path d="M58.8912 82.5996C59.248 82.5996 59.5373 82.2729 59.5373 81.8699C59.5373 81.4669 59.248 81.1401 58.8912 81.1401C58.5344 81.1401 58.2451 81.4669 58.2451 81.8699C58.2451 82.2729 58.5344 82.5996 58.8912 82.5996Z" fill="#3F3D56"/>
<path d="M61.5677 79.5165C61.4078 79.543 61.2466 79.562 61.0854 79.5738C61.2352 79.4261 61.3744 79.2651 61.5014 79.0922C61.4114 78.7858 61.2799 78.497 61.1114 78.2362C60.9512 78.3378 60.7742 78.4008 60.5914 78.4212C60.4315 78.4476 60.2703 78.4682 60.1091 78.4799C60.3257 78.2471 60.5318 78.0021 60.7266 77.7458C60.2592 77.271 59.6617 76.992 59.034 76.9553C58.4062 76.9187 57.7864 77.1266 57.2782 77.5444C56.77 77.9622 56.4042 78.5645 56.2422 79.2505C56.0801 79.9364 56.1315 80.6644 56.3879 81.3127C56.6442 81.9609 57.0899 82.4901 57.6504 82.8115C58.2108 83.133 58.852 83.2273 59.4666 83.0787C60.0813 82.93 60.6321 82.5474 61.0268 81.9949C61.4216 81.4425 61.6364 80.7536 61.6353 80.0436C61.6353 79.8649 61.6214 79.6866 61.5937 79.5107L61.5677 79.5165Z" fill="#4285F4"/>
<path d="M63.7272 83.1416C63.5622 83.2557 63.3764 83.326 63.1838 83.3471C63.0239 83.3736 62.8627 83.3926 62.7015 83.4044C62.8729 83.2308 63.0328 83.0434 63.1799 82.8435C62.7904 82.7288 62.377 82.7823 62.0205 82.9936C61.6641 83.2048 61.3902 83.5587 61.2524 83.9859C61.1147 84.4131 61.1229 84.883 61.2756 85.3037C61.4283 85.7244 61.7144 86.0657 62.078 86.2608C62.4416 86.4559 62.8566 86.4908 63.2418 86.3587C63.627 86.2266 63.9547 85.937 64.1609 85.5465C64.3671 85.156 64.4369 84.6926 64.3567 84.2471C64.2765 83.8015 64.052 83.4058 63.7272 83.1372V83.1416Z" fill="#4285F4"/>
<path d="M57.9215 86.6126C58.2783 86.6126 58.5676 86.2858 58.5676 85.8828C58.5676 85.4798 58.2783 85.1531 57.9215 85.1531C57.5647 85.1531 57.2754 85.4798 57.2754 85.8828C57.2754 86.2858 57.5647 86.6126 57.9215 86.6126Z" fill="#3F3D56"/>
<path d="M57.2755 86.2485C57.6323 86.2485 57.9216 85.9218 57.9216 85.5188C57.9216 85.1158 57.6323 84.7891 57.2755 84.7891C56.9187 84.7891 56.6294 85.1158 56.6294 85.5188C56.6294 85.9218 56.9187 86.2485 57.2755 86.2485Z" fill="#3F3D56"/>
<path d="M56.6295 85.8828C56.9863 85.8828 57.2756 85.5561 57.2756 85.1531C57.2756 84.7501 56.9863 84.4233 56.6295 84.4233C56.2727 84.4233 55.9834 84.7501 55.9834 85.1531C55.9834 85.5561 56.2727 85.8828 56.6295 85.8828Z" fill="#3F3D56"/>
<path d="M54.054 83.1416C54.2189 83.2559 54.4047 83.3262 54.5974 83.3471C54.7573 83.3736 54.9185 83.3926 55.0797 83.4044C54.908 83.2312 54.7481 83.0437 54.6013 82.8435C54.9908 82.7288 55.4042 82.7823 55.7607 82.9936C56.1171 83.2048 56.391 83.5587 56.5288 83.9859C56.6665 84.4131 56.6583 84.883 56.5056 85.3037C56.3529 85.7244 56.0668 86.0657 55.7032 86.2608C55.3396 86.4559 54.9246 86.4908 54.5394 86.3587C54.1542 86.2266 53.8265 85.937 53.6203 85.5465C53.4141 85.156 53.3443 84.6926 53.4245 84.2471C53.5047 83.8015 53.7292 83.4058 54.054 83.1372V83.1416Z" fill="#4285F4"/>
<path d="M58.4257 90.2598H60C60.8619 90.2598 61.6885 90.6465 62.298 91.3349C62.9075 92.0233 63.2499 92.9569 63.2499 93.9305V98.7567C63.2499 98.9218 63.1918 99.0802 63.0885 99.1969C62.9851 99.3137 62.8449 99.3793 62.6987 99.3793H55.727C55.5808 99.3793 55.4406 99.3137 55.3372 99.1969C55.2339 99.0802 55.1758 98.9218 55.1758 98.7567V93.9305C55.1758 92.9569 55.5182 92.0233 56.1277 91.3349C56.7371 90.6465 57.5638 90.2598 58.4257 90.2598Z" fill="#3F3D56"/>
<g opacity="0.1">
<path opacity="0.1" d="M61.6172 79.7161C61.5518 79.795 61.4823 79.8695 61.4092 79.9392C61.4833 79.9392 61.5561 79.926 61.6302 79.9172C61.6276 79.8497 61.6237 79.7821 61.6172 79.7161Z" fill="#F5B16A"/>
<path opacity="0.1" d="M60.4399 78.844C60.6024 78.8322 60.7623 78.8131 60.9235 78.7867C61.0681 78.766 61.2095 78.7225 61.3434 78.6575C61.2777 78.5107 61.202 78.3698 61.1172 78.2361C61.0364 78.2917 60.9488 78.3337 60.8572 78.3609C60.7298 78.5342 60.5902 78.6958 60.4399 78.844Z" fill="#F5B16A"/>
<path opacity="0.1" d="M56.4682 80.4106C56.4672 79.8539 56.5992 79.3073 56.8502 78.8282C57.1012 78.3491 57.4619 77.9554 57.8944 77.6885C58.3269 77.4215 58.8152 77.2913 59.3077 77.3114C59.8002 77.3316 60.2788 77.5014 60.6931 77.8029L60.7347 77.753C60.4643 77.4813 60.149 77.2727 59.807 77.1393C59.4649 77.0058 59.1029 76.9501 58.7417 76.9754C58.3805 77.0007 58.0273 77.1065 57.7024 77.2866C57.3776 77.4668 57.0875 77.7178 56.8489 78.0251C56.6104 78.3325 56.428 78.6901 56.3123 79.0774C56.1967 79.4647 56.15 79.874 56.175 80.2818C56.2001 80.6896 56.2963 81.0877 56.4581 81.4533C56.62 81.8189 56.8443 82.1446 57.1182 82.4119C56.6978 81.8533 56.4673 81.1437 56.4682 80.4106Z" fill="#F5B16A"/>
</g>
<g opacity="0.1">
<path opacity="0.1" d="M62.7017 83.7683C62.8629 83.7566 63.0241 83.7375 63.184 83.7111C63.3766 83.6905 63.5626 83.6202 63.7273 83.5055C63.9099 83.6573 64.0621 83.8508 64.174 84.0734C64.286 84.296 64.3553 84.5428 64.3773 84.7976C64.3836 84.7337 64.3867 84.6695 64.3864 84.6052C64.3876 84.3201 64.3294 84.0386 64.2165 83.7835C64.1036 83.5284 63.9392 83.307 63.7364 83.137C63.5714 83.2511 63.3856 83.3213 63.1931 83.3425L63.0631 83.3601C62.9521 83.5066 62.8313 83.643 62.7017 83.7683Z" fill="black"/>
<path opacity="0.1" d="M62.7664 83.1459C62.8203 83.1466 62.8742 83.151 62.9276 83.1591C63.0121 83.0578 63.0953 82.9491 63.1798 82.8434C62.9408 82.7713 62.6903 82.7623 62.4478 82.8171C62.2052 82.8719 61.9771 82.9889 61.781 83.1593C61.5849 83.3296 61.4262 83.5487 61.3171 83.7994C61.208 84.0502 61.1515 84.3259 61.1519 84.6053C61.1519 84.667 61.1519 84.7272 61.1597 84.7874C61.1996 84.3375 61.3862 83.9204 61.6831 83.617C61.98 83.3137 62.3661 83.1458 62.7664 83.1459Z" fill="black"/>
</g>
<g opacity="0.1">
<path opacity="0.1" d="M55.0798 83.7683C54.9186 83.7566 54.7574 83.7375 54.5975 83.7111C54.4048 83.6908 54.2188 83.6205 54.0541 83.5055C53.8716 83.6573 53.7194 83.8508 53.6074 84.0734C53.4954 84.296 53.4262 84.5428 53.4041 84.7976C53.3978 84.7337 53.3948 84.6695 53.395 84.6052C53.3938 84.3201 53.452 84.0386 53.5649 83.7835C53.6778 83.5284 53.8423 83.307 54.045 83.137C54.2099 83.2513 54.3958 83.3216 54.5884 83.3425L54.7184 83.3601C54.8287 83.5073 54.9495 83.6438 55.0798 83.7683Z" fill="black"/>
<path opacity="0.1" d="M55.015 83.1459C54.9606 83.1466 54.9063 83.151 54.8525 83.1591C54.7693 83.0578 54.6861 82.9491 54.6016 82.8434C54.8406 82.7713 55.091 82.7623 55.3336 82.8171C55.5762 82.8719 55.8043 82.9889 56.0004 83.1593C56.1964 83.3296 56.3552 83.5487 56.4643 83.7994C56.5734 84.0502 56.6299 84.3259 56.6295 84.6053C56.6295 84.667 56.6295 84.7272 56.6217 84.7874C56.5817 84.3375 56.3952 83.9204 56.0983 83.617C55.8014 83.3137 55.4153 83.1458 55.015 83.1459Z" fill="black"/>
</g>
<path d="M67 27.5L25 27V39.9209H68L67 27.5Z" fill="#4285F4"/>
<path d="M67.2226 26.3777H22.1137C21.2521 26.3777 20.5537 27.1665 20.5537 28.1396V37.5366C20.5537 38.5097 21.2521 39.2986 22.1137 39.2986H67.2226C68.0842 39.2986 68.7826 38.5097 68.7826 37.5366V28.1396C68.7826 27.1665 68.0842 26.3777 67.2226 26.3777Z" stroke="#3F3D56" stroke-width="9" stroke-miterlimit="10"/>
<path d="M65.0827 31.1399C64.9877 30.5995 64.7463 30.1058 64.3919 29.7271C64.0375 29.3484 63.5877 29.1035 63.1047 29.0262C62.6216 28.949 62.1293 29.0432 61.6958 29.2959C61.2623 29.5486 60.909 29.9472 60.6849 30.4366C60.2049 30.4938 59.7626 30.7571 59.4496 31.1721C59.1365 31.5871 58.9766 32.122 59.0028 32.6664C59.029 33.2108 59.2393 33.723 59.5904 34.0972C59.9414 34.4714 60.4063 34.6789 60.889 34.677H64.9735C65.3908 34.6759 65.7906 34.4876 66.0851 34.1536C66.3795 33.8197 66.5445 33.3673 66.5439 32.896C66.5455 32.4477 66.3949 32.0158 66.1231 31.6891C65.8513 31.3624 65.4789 31.1659 65.0827 31.1399ZM63.277 32.1868V33.5347H62.2708V32.1868H61.2036L62.7739 30.4117L64.3443 32.1868H63.277Z" fill="white"/>
</g>
<defs>
<linearGradient id="paint0_linear" x1="94.1739" y1="103.999" x2="94.1739" y2="28.8737" gradientUnits="userSpaceOnUse">
<stop stop-color="#808080" stop-opacity="0.25"/>
<stop offset="0.54" stop-color="#808080" stop-opacity="0.12"/>
<stop offset="1" stop-color="#808080" stop-opacity="0.1"/>
</linearGradient>
<clipPath id="clip0">
<rect width="132.237" height="104" fill="white"/>
</clipPath>
</defs>
</svg>
