<svg width="681" height="426" viewBox="0 0 681 426" fill="none" xmlns="http://www.w3.org/2000/svg">
<path d="M220.85 33.5215H222.597V46.0488H220.85V33.5215Z" fill="#9192FF"/>
<path d="M215.46 38.9111H227.986V40.6586H215.46V38.9111Z" fill="#9192FF"/>
<path d="M205.26 0H207.885V18.8165H205.26V0Z" fill="#9192FF"/>
<path d="M197.164 8.09375H215.978V10.7195H197.164V8.09375Z" fill="#9192FF"/>
<path d="M146.262 96.2178H148.25V110.465H146.262V96.2178Z" fill="#9192FF"/>
<path d="M140.133 102.348H154.379V104.336H140.133V102.348Z" fill="#9192FF"/>
<path opacity="0.4" d="M366.393 63.479C357.336 54.4205 357.336 39.7338 366.393 30.6753C375.45 21.6167 390.135 21.6167 399.192 30.6753C408.249 39.7338 408.249 54.4205 399.192 63.479C390.135 72.5376 375.45 72.5376 366.393 63.479Z" fill="#E5E5FF"/>
<path opacity="0.4" d="M327.444 353.002C313.029 353.002 301.343 341.315 301.343 326.898C301.343 312.481 313.029 300.793 327.444 300.793C341.859 300.793 353.544 312.481 353.544 326.898C353.544 341.315 341.859 353.002 327.444 353.002Z" fill="#E5E5FF"/>
<path d="M375.783 365.186H376.601V364.434C375.365 364.452 374.108 364.434 372.875 364.356L372.83 365.105C373.799 365.156 374.794 365.186 375.783 365.186ZM380.382 364.976C381.636 364.861 382.899 364.699 384.135 364.491L384.011 363.752C382.809 363.956 381.548 364.116 380.312 364.227L380.382 364.976ZM369.05 364.738L369.149 363.992C367.922 363.827 366.686 363.613 365.477 363.355L365.321 364.091C366.548 364.353 367.805 364.57 369.035 364.738H369.05ZM387.843 363.724C389.064 363.424 390.288 363.069 391.482 362.675L391.244 361.962C390.071 362.35 388.865 362.696 387.662 362.994L387.843 363.724ZM361.652 363.165L361.863 362.443C360.675 362.094 359.484 361.694 358.329 361.258L358.061 361.962C359.237 362.419 360.443 362.81 361.652 363.165ZM395.033 361.36C396.194 360.876 397.352 360.341 398.474 359.769L398.134 359.099C397.03 359.661 395.89 360.187 394.745 360.666L395.033 361.36ZM354.582 360.494L354.898 359.814C353.779 359.288 352.663 358.717 351.59 358.109L351.22 358.762C352.308 359.372 353.439 359.956 354.579 360.488L354.582 360.494ZM401.797 357.926C402.87 357.273 403.932 356.569 404.957 355.82L404.518 355.219C403.511 355.94 402.464 356.632 401.406 357.276L401.797 357.926ZM347.984 356.774L348.402 356.148C347.373 355.459 346.357 354.725 345.395 353.961L344.931 354.563C345.915 355.33 346.943 356.076 347.984 356.774ZM407.926 353.507C408.888 352.701 409.835 351.847 410.734 350.969L410.208 350.43C409.321 351.293 408.404 352.136 407.441 352.933L407.926 353.507ZM342.029 352.112L342.535 351.555C341.632 350.722 340.73 349.841 339.876 348.941L339.329 349.456C340.198 350.37 341.106 351.263 342.035 352.112H342.029ZM413.345 348.229C414.175 347.284 414.981 346.298 415.751 345.296L415.149 344.842C414.403 345.828 413.609 346.8 412.788 347.729L413.345 348.229ZM336.836 346.604L337.422 346.132C336.64 345.167 335.885 344.162 335.182 343.145L334.565 343.576C335.284 344.607 336.051 345.627 336.842 346.604H336.836ZM417.91 342.195C418.593 341.136 419.239 340.041 419.838 338.941L419.176 338.58C418.574 339.665 417.949 340.745 417.278 341.789L417.91 342.195ZM332.526 340.39L333.176 340.011C332.55 338.941 331.955 337.834 331.414 336.721L330.737 337.052C331.296 338.174 331.898 339.296 332.532 340.381L332.526 340.39ZM421.516 335.557C422.027 334.411 422.505 333.229 422.929 332.05L422.222 331.794C421.801 332.958 421.32 334.119 420.827 335.25L421.516 335.557ZM329.206 333.587L329.904 333.307C329.447 332.158 329.029 330.973 328.659 329.788L327.94 330.014C328.322 331.205 328.737 332.408 329.212 333.578L329.206 333.587ZM424.069 328.432C424.403 327.228 424.694 325.977 424.935 324.744L424.198 324.6C423.961 325.803 423.675 327.036 423.344 328.23L424.069 328.432ZM326.951 326.347L327.684 326.182C327.408 324.979 327.173 323.742 326.987 322.518L326.244 322.63C326.439 323.875 326.68 325.123 326.96 326.347H326.951ZM425.521 321.005C425.669 319.757 425.768 318.488 425.822 317.231L425.07 317.201C425.019 318.437 424.917 319.688 424.77 320.915L425.521 321.005ZM325.82 318.867L326.569 318.813C326.479 317.58 326.43 316.325 326.43 315.086H325.679C325.688 316.346 325.73 317.619 325.829 318.867H325.82ZM326.421 314.584C326.421 313.342 326.494 312.087 326.599 310.857L325.85 310.794C325.742 312.042 325.682 313.315 325.67 314.575L326.421 314.584ZM425.076 313.468L425.828 313.444C425.789 312.187 425.699 310.914 425.566 309.669L424.818 309.75C424.971 310.987 425.058 312.229 425.097 313.468H425.076ZM327.053 307.152C327.248 305.928 327.498 304.697 327.787 303.494L327.056 303.32C326.755 304.541 326.512 305.789 326.31 307.031L327.053 307.152ZM424.279 306.054L425.019 305.916C424.791 304.679 424.511 303.437 424.189 302.222L423.464 302.414C423.801 303.618 424.069 304.842 424.3 306.06L424.279 306.054ZM328.797 299.906C329.176 298.727 329.606 297.548 330.075 296.402L329.381 296.101C328.902 297.268 328.478 298.462 328.081 299.659L328.797 299.906ZM422.373 298.85L423.082 298.601C422.667 297.413 422.204 296.225 421.702 295.073L421.013 295.373C421.528 296.516 421.985 297.683 422.394 298.856L422.373 298.85ZM331.615 293.009C332.168 291.905 332.773 290.808 333.419 289.743L332.773 289.358C332.126 290.435 331.516 291.55 330.953 292.666L331.615 293.009ZM419.392 292.011L420.057 291.659C419.456 290.549 418.827 289.445 418.156 288.38L417.522 288.783C418.205 289.836 418.833 290.922 419.414 292.017L419.392 292.011ZM335.467 286.624C336.183 285.61 336.944 284.615 337.732 283.661L337.151 283.183C336.352 284.151 335.579 285.162 334.854 286.191L335.467 286.624ZM415.435 285.721L416.036 285.273C415.287 284.266 414.488 283.27 413.667 282.32L413.098 282.813C413.91 283.736 414.698 284.717 415.435 285.721ZM340.213 280.909C341.073 280.007 341.975 279.144 342.898 278.319L342.396 277.76C341.461 278.596 340.544 279.48 339.672 280.389L340.213 280.909ZM410.554 280.1L411.086 279.568C410.184 278.665 409.258 277.817 408.302 277.002L407.814 277.573C408.753 278.349 409.676 279.201 410.554 280.073V280.1ZM345.77 275.937C346.751 275.185 347.776 274.457 348.814 273.781L348.402 273.152C347.349 273.841 346.297 274.578 345.313 275.342L345.77 275.937ZM404.888 275.261L405.333 274.659C404.32 273.916 403.264 273.206 402.197 272.554L401.8 273.191C402.852 273.802 403.89 274.503 404.888 275.233V275.261ZM352.011 271.859C353.096 271.257 354.218 270.695 355.346 270.183L355.045 269.498C353.902 270.018 352.762 270.592 351.659 271.2L352.011 271.859ZM398.564 271.326L398.91 270.659C397.794 270.078 396.645 269.534 395.493 269.037L395.193 269.729C396.332 270.189 397.463 270.728 398.564 271.299V271.326ZM358.81 268.737C359.971 268.313 361.165 267.925 362.356 267.588L362.151 266.866C360.948 267.206 359.73 267.6 358.542 268.033L358.81 268.737ZM391.731 268.367L391.975 267.657C390.772 267.251 389.569 266.884 388.348 266.571L388.159 267.299C389.346 267.609 390.549 267.976 391.719 268.367H391.731ZM365.98 266.712C367.183 266.469 368.428 266.267 369.661 266.111L369.567 265.365C368.316 265.518 367.059 265.723 365.832 265.967L365.98 266.712ZM384.517 266.505L384.649 265.765C383.416 265.545 382.156 265.368 380.902 265.242L380.824 265.988C382.048 266.114 383.29 266.288 384.505 266.505H384.517ZM373.375 265.795C374.614 265.735 375.871 265.72 377.104 265.753L377.125 265.001C375.871 264.968 374.596 264.983 373.338 265.043L373.375 265.795Z" fill="#9192FF"/>
<path d="M416.487 67.9602V67.2083C415.249 67.1967 414.013 67.1124 412.785 66.9556L412.689 67.7016C413.949 67.862 415.217 67.9484 416.487 67.9602ZM420.283 67.7677C421.542 67.6285 422.792 67.4145 424.027 67.1271L423.855 66.3932C422.65 66.6769 421.429 66.8868 420.198 67.0218L420.283 67.7677ZM408.963 66.9887L409.146 66.2609C407.947 65.9563 406.767 65.5797 405.613 65.1329L405.339 65.8338C406.523 66.2892 407.733 66.6719 408.963 66.9797V66.9887ZM427.678 66.0263C428.869 65.5882 430.033 65.079 431.163 64.5013L430.82 63.8336C429.717 64.397 428.582 64.8932 427.419 65.3194L427.678 66.0263ZM401.893 64.2396L402.245 63.5749C401.15 62.9968 400.093 62.352 399.078 61.644L398.648 62.2455C399.687 62.9741 400.768 63.64 401.887 64.2396H401.893ZM434.438 62.5703C435.485 61.8615 436.489 61.0912 437.445 60.2634L436.952 59.6949C436.014 60.5026 435.03 61.2548 434.005 61.9477L434.438 62.5703ZM395.674 59.8904L396.176 59.331C395.254 58.5034 394.382 57.6226 393.563 56.6932L393 57.1895C393.835 58.1419 394.726 59.0438 395.668 59.8904H395.674ZM440.182 57.6106C441.036 56.6736 441.834 55.6863 442.57 54.6539L441.968 54.2178C441.25 55.2264 440.472 56.1907 439.638 57.1053L440.182 57.6106ZM390.657 54.1907L391.289 53.7636C390.589 52.7427 389.95 51.6811 389.376 50.5845L388.709 50.9334C389.294 52.0565 389.944 53.1442 390.657 54.1907ZM444.582 51.4326C445.188 50.32 445.728 49.172 446.197 47.9948L445.496 47.7151C445.039 48.8653 444.512 49.9863 443.917 51.0717L444.582 51.4326ZM387.142 47.4594L387.846 47.1947C387.41 46.0356 387.045 44.8514 386.751 43.6486L386.02 43.826C386.32 45.0589 386.694 46.2723 387.142 47.4594ZM447.384 44.3825C447.707 43.1564 447.955 41.9119 448.127 40.6559L447.381 40.5536C447.213 41.7803 446.969 42.9957 446.654 44.193L447.384 44.3825ZM385.344 40.0874L386.089 39.9972C385.942 38.7675 385.869 37.5301 385.87 36.2916C385.87 35.9186 385.87 35.5427 385.888 35.1697L385.136 35.1427C385.136 35.5246 385.118 35.9096 385.118 36.2916C385.118 37.5602 385.193 38.8277 385.344 40.0874ZM448.428 36.8661C448.428 36.6766 448.428 36.4841 448.428 36.2916C448.428 35.2158 448.374 34.1407 448.266 33.0703L447.52 33.1455C447.622 34.1832 447.676 35.2509 447.676 36.2916C447.676 36.4811 447.676 36.6676 447.676 36.8541L448.428 36.8661ZM386.243 31.4762C386.433 30.253 386.698 29.0426 387.037 27.8519L386.312 27.6443C385.968 28.8653 385.697 30.1057 385.5 31.3589L386.243 31.4762ZM446.924 29.4821L447.658 29.3166C447.379 28.0783 447.026 26.8579 446.6 25.6622L445.893 25.9149C446.308 27.0823 446.652 28.2735 446.924 29.4821ZM388.261 24.3478C388.74 23.2073 389.287 22.0964 389.9 21.0213L389.244 20.6483C388.619 21.7471 388.06 22.882 387.569 24.0471L388.261 24.3478ZM444.437 22.5011L445.12 22.1642C444.554 21.0294 443.92 19.9296 443.222 18.8707L442.594 19.2828C443.272 20.3179 443.887 21.3926 444.437 22.5011ZM391.924 17.9112C392.662 16.9168 393.458 15.9668 394.308 15.0659L393.761 14.5516C392.89 15.4725 392.074 16.4447 391.319 17.4631L391.924 17.9112ZM440.341 16.3141L440.916 15.8269C440.096 14.8601 439.219 13.9431 438.29 13.0808L437.779 13.6312C438.69 14.4737 439.549 15.3696 440.353 16.3141H440.341ZM397.003 12.5274C397.955 11.735 398.953 10.9998 399.992 10.3257L399.586 9.69406C398.52 10.3827 397.497 11.135 396.522 11.9469L397.003 12.5274ZM434.925 11.2731L435.367 10.6716C434.342 9.92609 433.272 9.2431 432.164 8.62631L431.798 9.282C432.878 9.88365 433.923 10.5485 434.925 11.2731ZM403.234 8.49998C404.347 7.95608 405.492 7.47999 406.662 7.07431L406.416 6.36448C405.217 6.78118 404.044 7.26829 402.903 7.82324L403.234 8.49998ZM428.456 7.66984L428.742 6.97205C427.565 6.49163 426.36 6.08381 425.133 5.7509L424.935 6.47576C426.132 6.80285 427.308 7.20159 428.456 7.66984ZM410.238 6.07574C411.449 5.81517 412.674 5.62835 413.907 5.5163L413.838 4.76736C412.574 4.88167 411.319 5.07353 410.079 5.34184L410.238 6.07574ZM421.311 5.7148L421.422 4.97189C420.168 4.78729 418.904 4.67782 417.636 4.64404L417.615 5.39598C418.852 5.42811 420.087 5.53458 421.311 5.7148Z" fill="#9192FF"/>
<path d="M543.008 229.684C545.164 229.684 547.272 229.045 549.065 227.847C550.857 226.649 552.255 224.946 553.08 222.953C553.905 220.961 554.121 218.769 553.7 216.654C553.279 214.539 552.241 212.596 550.717 211.071C549.192 209.547 547.249 208.508 545.135 208.087C543.02 207.667 540.828 207.883 538.836 208.708C536.844 209.533 535.142 210.931 533.944 212.724C532.746 214.517 532.107 216.625 532.107 218.781C532.11 221.672 533.259 224.443 535.303 226.487C537.347 228.531 540.118 229.681 543.008 229.684ZM543.008 209.382C544.867 209.382 546.684 209.933 548.229 210.966C549.775 211.999 550.979 213.467 551.691 215.184C552.402 216.902 552.588 218.791 552.225 220.615C551.863 222.438 550.968 224.113 549.653 225.427C548.339 226.742 546.664 227.637 544.841 228C543.018 228.362 541.129 228.176 539.412 227.465C537.694 226.753 536.227 225.549 535.194 224.003C534.161 222.457 533.61 220.64 533.61 218.781C533.613 216.289 534.605 213.9 536.366 212.138C538.128 210.376 540.517 209.385 543.008 209.382Z" fill="#9192FF"/>
<path d="M178.371 89.625H490.828V320.669H178.371V89.625Z" fill="white"/>
<path d="M177.619 321.42H491.583V88.873H177.619V321.42ZM490.079 319.917H179.123V90.3769H490.079V319.917Z" fill="#9192FF"/>
<path d="M225.583 245.628H200.021V295.102H225.583V245.628Z" fill="#D1D1FF"/>
<path d="M266.182 220.956H240.62V295.103H266.182V220.956Z" fill="#D1D1FF"/>
<path d="M306.781 170.07H281.218V295.103H306.781V170.07Z" fill="#D1D1FF"/>
<path d="M347.379 206.196H321.817V295.102H347.379V206.196Z" fill="#D1D1FF"/>
<path d="M387.978 166.987H362.416V295.103H387.978V166.987Z" fill="#D1D1FF"/>
<path d="M428.577 173.68H403.015V295.103H428.577V173.68Z" fill="#D1D1FF"/>
<path d="M469.176 129.315H443.613V295.103H469.176V129.315Z" fill="#D1D1FF"/>
<path d="M207.729 275.471L207.046 274.13L249.741 252.405L293.771 192.424L334.081 234.626L375.525 193.176L415.715 198.061L456.052 151.741L457.185 152.731L416.325 199.649L376.069 194.758L334.057 236.776L293.924 194.758L250.742 253.584L207.729 275.471Z" fill="#3335CF"/>
<path d="M271.697 118.147H397.502V119.651H271.697V118.147Z" fill="#3335CF"/>
<path d="M314.16 134.69H355.036V136.194H314.16V134.69Z" fill="#3335CF"/>
<path d="M535.877 364.846C533.435 351.826 534.995 338.37 540.352 326.254C545.684 314.346 554.724 304.354 565.71 298.225C560.146 305.284 558.712 314.972 558.147 324.161C557.581 333.349 557.623 342.842 554.291 351.342C550.959 359.842 543.086 367.198 534.479 366.134L535.877 364.846Z" fill="#3335CF"/>
<path d="M535.697 368.107C538.138 355.085 536.577 341.63 531.219 329.514C525.887 317.606 516.85 307.615 505.861 301.482C511.428 308.544 512.862 318.229 513.425 327.421C513.987 336.612 513.948 346.099 517.283 354.599C520.618 363.099 528.485 370.459 537.092 369.391L535.697 368.107Z" fill="#3335CF"/>
<path d="M545.567 361.959C551.112 352.728 552.625 340.881 549.6 330.414C546.574 319.947 539.056 311.05 529.589 306.725C531.583 319.959 521.749 332.745 523.505 346.021C524.642 354.611 531.096 362.127 539.041 364.116L545.567 361.959Z" fill="#D1D1FF"/>
<path d="M541.522 379.723C541.483 366.349 537.008 353.366 528.798 342.809C520.585 332.243 508.739 324.326 495.57 320.603C503.05 326.365 506.58 335.566 509.064 344.46C511.548 353.354 513.443 362.669 518.793 370.327C524.143 377.984 534.181 383.561 543.302 380.706L541.522 379.723Z" fill="#9192FF"/>
<path d="M537.378 380.43C537.357 367.241 541.522 354.082 549.062 343.515C556.601 332.949 567.475 325.033 579.55 321.309C572.687 327.072 569.445 336.273 567.163 345.17C564.88 354.067 563.145 363.376 558.231 371.018C553.317 378.661 544.096 384.252 535.73 381.398L537.378 380.43Z" fill="#9192FF"/>
<path d="M515.256 425.435H562.886L571.075 375.834H507.067L515.256 425.435Z" fill="white"/>
<path d="M514.778 425.997H563.364L571.731 375.268H506.406L514.778 425.997ZM562.408 424.869H515.737L507.735 376.396H570.41L562.408 424.869Z" fill="#9192FF"/>
<path d="M412.172 51.4326H557.299V165.447H412.172V51.4326Z" fill="white"/>
<path d="M411.42 166.199H558.051V50.6807H411.42V166.199ZM556.547 164.696H412.924V52.1845H556.547V164.696Z" fill="#9192FF"/>
<path d="M504.851 70H537.583V88.5368H504.851V70Z" fill="#D1D1FF"/>
<path d="M431.5 71.9004H491.048V72.6884H431.5V71.9004Z" fill="#9192FF"/>
<path d="M431.5 78.9868H491.048V79.7748H431.5V78.9868Z" fill="#D1D1FF"/>
<path d="M431.5 86.0728H491.048V86.8608H431.5V86.0728Z" fill="#D1D1FF"/>
<path d="M515.362 125.634H522.198V146.814H515.362V125.634Z" fill="#D1D1FF"/>
<path d="M508.526 115.326H515.362V146.811H508.526V115.326Z" fill="#9192FF"/>
<path d="M489.86 111.765H496.695V146.682H489.86V111.765Z" fill="#D1D1FF"/>
<path d="M483.024 133.758H489.86V146.679H483.024V133.758Z" fill="#9192FF"/>
<path d="M464.358 122.605H471.193V146.784H464.358V122.605Z" fill="#D1D1FF"/>
<path d="M457.522 117.26H464.358V146.784H457.522V117.26Z" fill="#9192FF"/>
<path d="M438.856 129.767H445.691V146.628H438.856V129.767Z" fill="#D1D1FF"/>
<path d="M432.02 106.399H438.856V146.631H432.02V106.399Z" fill="#9192FF"/>
<path d="M432.02 147.025H537.249V104.559H536.461V146.234H432.02V147.025Z" fill="#9192FF"/>
<path d="M131.349 405.075L126.838 425.248L157.476 425.188L144.695 414.156L145.634 404.134L131.349 405.075Z" fill="#1B1B43"/>
<path d="M144.334 413.705L145.059 414.568L139.985 418.833L139.259 417.969L144.334 413.705Z" fill="#EBEBFF"/>
<path d="M191.685 404.756L189.429 425.248H222.32L207.284 414.156V404.004L191.685 404.756Z" fill="#1B1B43"/>
<path d="M206.923 413.706L207.649 414.569L202.574 418.834L201.849 417.97L206.923 413.706Z" fill="#EBEBFF"/>
<path d="M130.786 407.587L145.291 407.782C153.185 380.496 166.073 364.5 174.672 328.588C175.859 323.631 176.989 318.735 178.061 313.901C182.04 295.999 185.213 278.966 187.234 263.184C187.669 259.792 188.05 256.46 188.377 253.19C188.641 250.583 188.867 248.011 189.053 245.475L152.965 251.49C152.605 254.913 152.222 258.347 151.817 261.792C132.5 311 141.983 357.432 130.786 407.587Z" fill="#683FDB"/>
<path d="M172.137 250.362L173.28 262.634L177.89 312.021L178.061 313.901L192 407.517L207.5 408C206.965 353.86 214.5 299.5 204.339 263.861C203.818 261.054 203.267 258.327 202.685 255.68L188.376 253.19L172.137 250.362Z" fill="#683FDB"/>
<path d="M184.559 280L185.292 280.161L173.733 332.684L173 332.523L184.559 280Z" fill="#1B1B43"/>
<path opacity="0.3" d="M151.817 261.792L173.28 262.634L187.234 263.184L204.339 263.861C203.818 261.054 203.267 258.327 202.685 255.68L188.377 253.19C188.641 250.583 188.867 248.011 189.053 245.475L152.965 251.49C152.605 254.913 152.222 258.347 151.817 261.792Z" fill="#1B1B43"/>
<path d="M191.97 193.985L178.137 192.255L149.267 198.307L149.101 250.341C149.099 251.047 149.242 251.746 149.52 252.394C149.798 253.043 150.206 253.628 150.719 254.113C151.674 255.013 152.935 255.517 154.247 255.523L202.664 255.689L211.987 227.515L203.031 200.903L191.97 193.985Z" fill="white" stroke="#999999" stroke-width="0.5"/>
<path d="M174.726 205.376C177.741 205.394 180.647 204.255 182.846 202.193L182.458 201.781C178.164 205.824 171.415 205.818 166.414 201.781L166.059 202.22C168.501 204.235 171.561 205.349 174.726 205.376Z" fill="#999999"/>
<path d="M143.768 202.532C144.283 200.214 145.495 198.109 147.241 196.5C148.988 194.892 151.184 193.856 153.536 193.533L171.962 191L160.808 210.048L157.364 221.968L140 219.52L143.768 202.532Z" fill="white" stroke="#999999" stroke-width="0.5"/>
<path d="M136.335 239.61C136.771 246.055 140.666 248.798 145.613 249.926C150.77 251.099 157.064 250.528 161.792 250.528C169.566 250.549 177.34 250.227 185.108 249.791L204.842 249.977L207.097 246.467C204.526 242.834 197.573 238.076 185.423 240.954L153.907 233.811L157.416 221.668L140.049 219.223L136.494 235.264C136.293 236.703 136.24 238.159 136.335 239.61Z" fill="#F5B09F"/>
<path d="M221.006 226.49L208.601 242.091L206.345 242.657L204.487 224.496L217.181 218.504L221.006 226.49Z" fill="#F5B09F"/>
<path d="M179.655 190.583L197.774 193.452C200.245 193.843 202.584 194.827 204.589 196.322C206.595 197.817 208.207 199.777 209.286 202.034L217.166 218.504L204.472 224.495L203.136 211.451L179.655 190.583Z" fill="white" stroke="#999999" stroke-width="0.5"/>
<path d="M203.405 211.434L207.37 246.458L206.808 246.522L202.843 211.498L203.405 211.434Z" fill="#999999"/>
<path d="M160.597 209.705L161.137 209.861L154.183 233.925L153.643 233.769L160.597 209.705Z" fill="#999999"/>
<path d="M157.206 183.064L160.439 178.116L159.191 183.59L170.348 186.538L191.309 187.389L189.619 170.747C194.972 168.116 198.767 151.152 178.446 148.294C174.753 147.777 170.964 148.108 167.536 149.558C157.085 153.979 153.552 165.703 152.59 181.846L157.206 183.064Z" fill="#1B1B43"/>
<path d="M174.624 200.671C176.796 200.671 178.879 199.808 180.415 198.272C181.95 196.736 182.813 194.653 182.813 192.481V174.735H166.438V192.481C166.438 194.653 167.301 196.735 168.836 198.271C170.371 199.807 172.453 200.67 174.624 200.671Z" fill="#F5B09F"/>
<path d="M171.725 182.186C173.478 187.356 177.586 189.774 182.816 191.085V183.377L171.725 182.186Z" fill="#1B1B43"/>
<path d="M166.784 157.498L167.313 180.495C167.313 180.495 176.979 187.531 183.745 185.509C186.016 184.833 187.559 182.252 188.602 179.043C189.106 177.442 189.501 175.809 189.784 174.155C190.442 170.11 190.779 166.018 190.791 161.919L166.784 157.498Z" fill="#F5B09F"/>
<path d="M186.56 171.64C186.56 172.326 186.969 172.88 187.462 172.88C187.956 172.88 188.365 172.326 188.365 171.64C188.365 170.955 187.956 170.404 187.462 170.404C186.969 170.404 186.56 170.958 186.56 171.64Z" fill="#1B1B43"/>
<path d="M180.518 172.534C179.947 172.534 179.484 171.892 179.484 171.099C179.484 170.307 179.947 169.665 180.518 169.665C181.09 169.665 181.553 170.307 181.553 171.099C181.553 171.892 181.09 172.534 180.518 172.534Z" fill="#1B1B43"/>
<path d="M177.147 168.178C177.183 168.53 178.35 168.612 179.661 168.383C180.973 168.154 182.067 168.221 181.869 167.354C181.697 166.645 180.666 166.705 179.361 166.933C178.055 167.162 177.114 167.872 177.147 168.178Z" fill="#1B1B43"/>
<path d="M189.901 168.966C189.856 169.315 188.855 169.3 187.757 168.966C186.659 168.633 185.712 168.608 185.926 167.763C186.097 167.072 186.972 167.216 188.07 167.55C189.168 167.884 189.94 168.666 189.901 168.966Z" fill="#1B1B43"/>
<path opacity="0.2" d="M172.657 174.089C172.657 174.619 172.814 175.137 173.109 175.577C173.403 176.018 173.822 176.362 174.311 176.565C174.801 176.767 175.34 176.82 175.86 176.717C176.379 176.614 176.857 176.358 177.232 175.984C177.606 175.609 177.861 175.131 177.965 174.611C178.068 174.092 178.015 173.553 177.812 173.063C177.61 172.573 177.266 172.155 176.825 171.86C176.385 171.566 175.867 171.409 175.337 171.409C174.985 171.408 174.636 171.477 174.311 171.612C173.986 171.746 173.69 171.944 173.441 172.193C173.192 172.442 172.995 172.737 172.861 173.063C172.726 173.388 172.657 173.737 172.657 174.089Z" fill="#F5B09F"/>
<path opacity="0.2" d="M187.393 176.817C187.393 177.258 187.503 177.693 187.713 178.082C187.923 178.47 188.227 178.8 188.596 179.042C189.1 177.442 189.495 175.809 189.778 174.155C189.122 174.227 188.516 174.538 188.076 175.029C187.636 175.521 187.393 176.157 187.393 176.817Z" fill="#F5B09F"/>
<path d="M184.443 172.735C184.421 172.975 184.462 173.217 184.563 173.436C184.655 173.639 184.769 173.832 184.903 174.01C185.135 174.279 185.321 174.583 185.453 174.913C185.486 175.045 185.486 175.183 185.453 175.316C185.416 175.456 185.343 175.584 185.24 175.686C184.974 175.936 184.656 176.123 184.308 176.233L184.335 176.534C184.808 176.596 185.287 176.475 185.673 176.194C185.89 176.033 186.056 175.811 186.148 175.556C186.241 175.293 186.256 175.007 186.19 174.735C186.034 174.292 185.764 173.897 185.408 173.589C185.124 173.349 184.899 173.046 184.75 172.705L184.443 172.735Z" fill="#1B1B43"/>
<path d="M185.156 178.835C184.166 181.984 179.938 180.384 179.61 177.424L185.156 178.835Z" fill="white"/>
<path d="M191.603 165.583C184.527 165.568 178.591 164.918 172.997 162.199C172.396 166.816 170.411 169.045 167.734 170.281L162.096 165.583L164.995 156.087L180.314 155.242L192.157 161.164L191.603 165.583Z" fill="#1B1B43"/>
<path d="M163.277 173.678C161.753 171.511 161.74 168.894 163.247 167.833C164.755 166.772 167.213 167.668 168.738 169.835C170.262 172.002 170.276 174.619 168.768 175.68C167.26 176.741 164.802 175.844 163.277 173.678Z" fill="#F5B09F"/>
<path d="M167.343 173.283C167.453 172.886 167.485 172.471 167.437 172.062C167.391 171.63 167.238 171.216 166.992 170.859C166.735 170.494 166.38 170.208 165.969 170.034C165.583 169.87 165.164 169.798 164.745 169.824L164.694 170.125C165.029 170.269 165.352 170.438 165.662 170.63C165.941 170.806 166.185 171.033 166.381 171.298C166.572 171.573 166.716 171.878 166.808 172.2C166.91 172.537 166.974 172.901 167.049 173.28L167.343 173.283Z" fill="#1B1B43"/>
<path d="M186.548 249.863H206.472V255.752H186.548V249.863Z" fill="#1B1B43"/>
<path d="M200.081 255.755H245.191L264.988 212.985H219.878L200.081 255.755Z" fill="#EBEBFF"/>
<path d="M216.778 253.839C217.269 253.93 217.712 254.191 218.03 254.576C218.349 254.961 218.522 255.445 218.519 255.944V251.279C218.509 250.822 218.667 250.377 218.962 250.027C219.257 249.677 219.669 249.446 220.122 249.379C220.369 249.348 220.62 249.37 220.859 249.441C221.097 249.513 221.318 249.633 221.508 249.795C221.698 249.956 221.852 250.155 221.962 250.379C222.071 250.603 222.132 250.847 222.143 251.096V249.216C222.133 248.753 222.294 248.303 222.594 247.951C222.895 247.599 223.314 247.37 223.773 247.306C224.026 247.278 224.282 247.303 224.525 247.381C224.768 247.459 224.991 247.587 225.181 247.758C225.37 247.928 225.522 248.137 225.625 248.37C225.728 248.604 225.78 248.856 225.779 249.111V251.093C225.789 250.844 225.85 250.6 225.96 250.376C226.069 250.152 226.223 249.953 226.413 249.792C226.603 249.63 226.824 249.51 227.063 249.438C227.301 249.367 227.552 249.345 227.799 249.376C228.252 249.443 228.664 249.674 228.959 250.024C229.254 250.374 229.412 250.819 229.402 251.276V254.979C229.453 254.032 230.172 252.874 231.156 252.768C233.177 252.579 232.731 256.131 232.731 256.131C232.13 259.722 231.083 260.119 228.93 260.273C225.533 260.51 222.123 260.51 218.726 260.273C216.561 260.128 216.221 259.894 215.274 256.663C214.955 255.274 215.229 253.559 216.778 253.839Z" fill="#F5B09F"/>
<path d="M229.354 252.429C229.216 253.181 229.139 253.944 229.123 254.709C229.123 255.091 229.123 255.472 229.123 255.854C229.133 256.238 229.17 256.621 229.231 257H229.45C229.53 256.624 229.587 256.244 229.619 255.86C229.655 255.482 229.673 255.1 229.682 254.721C229.709 253.955 229.673 253.189 229.577 252.429H229.354Z" fill="#D28572"/>
<path d="M225.667 251.081C225.529 251.882 225.449 252.693 225.43 253.506C225.43 253.909 225.43 254.315 225.43 254.709C225.44 255.111 225.475 255.513 225.532 255.912H225.755C225.835 255.514 225.892 255.113 225.926 254.709C225.962 254.306 225.98 253.9 225.992 253.506C226.019 252.693 225.983 251.88 225.887 251.072L225.667 251.081Z" fill="#D28572"/>
<path d="M222.034 251.078C221.885 251.835 221.794 252.602 221.764 253.373C221.746 253.758 221.74 254.143 221.764 254.528C221.769 254.914 221.798 255.3 221.851 255.683H222.074C222.159 255.306 222.222 254.925 222.26 254.54C222.299 254.155 222.326 253.773 222.341 253.388C222.377 252.618 222.353 251.847 222.269 251.081L222.034 251.078Z" fill="#D28572"/>
<path d="M217.325 254.071C217.492 254.302 217.628 254.555 217.728 254.823C217.839 255.096 217.948 255.376 218.053 255.659C218.158 255.942 218.263 256.224 218.381 256.507C218.494 256.794 218.624 257.075 218.772 257.346L218.982 257.289C218.97 256.975 218.926 256.662 218.853 256.357C218.781 256.05 218.689 255.748 218.576 255.454C218.463 255.156 218.322 254.869 218.155 254.597C217.988 254.302 217.745 254.057 217.451 253.887L217.325 254.071Z" fill="#D28572"/>
<path d="M123.677 157.597V178.248L133.201 185.016H123.677H88.2511V157.597H123.677Z" fill="white"/>
<path d="M114 191H50L64.2089 180.83V152H114V191ZM53.2407 189.959H112.965V153.041H65.2436V181.38L53.2407 189.959Z" fill="#9192FF"/>
<path d="M88.768 181L81 173.369L82.401 171.885L88.2633 177.646L98.2276 159L100 159.985L88.768 181Z" fill="#9192FF"/>
<path opacity="0.3" d="M87 424.872H573V426H87V424.872Z" fill="#1B1B43"/>
</svg>
