<svg width="85" height="110" viewBox="0 0 85 110" fill="none" xmlns="http://www.w3.org/2000/svg">
<path d="M42.5 40C48.2871 40 53 35.4493 53 29.8625V27.1375C53 21.5502 48.2866 17 42.5 17C36.7129 17 32 21.5507 32 27.1375V29.8625C32 35.4493 36.7127 40 42.5 40ZM34.613 27.1375C34.613 22.9357 38.1479 19.5228 42.5 19.5228C46.8521 19.5228 50.387 22.9357 50.387 27.1375V29.8625C50.387 34.0643 46.8521 37.4772 42.5 37.4772C38.1479 37.4772 34.613 34.0643 34.613 29.8625V27.1375Z" fill="#683FDB"/>
<path d="M23.3088 60.9842V61.0027C23.3178 61.0301 23.3273 61.0486 23.3273 61.0665C23.3458 61.1214 23.3547 61.1763 23.382 61.2313C23.4005 61.2677 23.4183 61.2951 23.4368 61.3321C23.4552 61.3685 23.4731 61.4145 23.5004 61.4509C23.5278 61.4873 23.5552 61.5147 23.5825 61.5518C23.6099 61.5792 23.6284 61.6156 23.6557 61.6431C23.6831 61.6705 23.7194 61.698 23.7468 61.7254C23.7741 61.7529 23.8104 61.7804 23.8378 61.7989C23.8741 61.8174 23.911 61.8353 23.9473 61.8538C23.9836 61.8723 24.0205 61.8902 24.0568 61.9087C24.1026 61.9272 24.1478 61.9361 24.1847 61.9451C24.221 61.954 24.2483 61.9636 24.2853 61.9725C24.34 61.9815 24.4037 61.9911 24.4679 61.9911C24.4864 61.9911 24.5138 62 24.5316 62H24.5405H24.5494H60.4564C60.5385 62 60.6117 61.9911 60.6938 61.9725C60.7212 61.9636 60.7397 61.9636 60.767 61.954C60.8129 61.9451 60.8676 61.9266 60.9128 61.9081C60.9402 61.8991 60.9675 61.8806 60.9949 61.8717C61.0407 61.8531 61.077 61.8353 61.1133 61.8078C61.1407 61.7893 61.168 61.7714 61.1865 61.7529C61.2228 61.7254 61.2597 61.698 61.296 61.6616C61.3144 61.6431 61.3418 61.6252 61.3596 61.6067C61.3959 61.5703 61.4233 61.5333 61.4602 61.4879C61.4787 61.4694 61.4876 61.4515 61.506 61.4241C61.5423 61.3781 61.5608 61.3232 61.5881 61.2683C61.5971 61.2498 61.6066 61.2319 61.6155 61.2223C61.6429 61.1489 61.6703 61.085 61.6792 61.0027V60.9937V60.9848C62.3545 57.8728 62.7651 55.5111 62.9477 53.7718C63.2399 50.9618 62.2998 48.1882 60.3106 45.9822C58.0657 43.4928 54.717 42.0006 51.3409 42.0006L33.6562 42C30.2891 42 26.9403 43.4826 24.6954 45.9727C22.7063 48.1877 21.7661 50.9524 22.0495 53.7713C22.2315 55.5475 22.6427 57.9086 23.3085 60.9843L23.3088 60.9842ZM26.5577 47.666C28.3278 45.6981 30.9833 44.5169 33.6566 44.5169H51.3511C54.0244 44.5169 56.6799 45.6974 58.4596 47.666C59.965 49.3407 60.6772 51.419 60.4671 53.5152C60.3118 54.9798 59.9834 56.9387 59.4545 59.4832H53.934V55.437C53.934 54.7411 53.3681 54.183 52.6839 54.183C51.9901 54.183 51.4337 54.7507 51.4337 55.437V59.4832H33.5943V55.437C33.5943 54.7411 33.0284 54.183 32.3442 54.183C31.6504 54.183 31.0941 54.7507 31.0941 55.437V59.4832H25.564C25.0439 56.9751 24.7155 55.0163 24.5602 53.5241C24.3412 51.419 25.0528 49.3414 26.5589 47.666H26.5577Z" fill="#683FDB"/>
<path d="M42.5 78C62.0769 78 78 62.0786 78 42.5C78 22.9213 62.0786 7 42.5 7C22.9214 7 7 22.9214 7 42.5C7 62.0787 22.9214 78 42.5 78ZM42.5 9.82657C60.5165 9.82657 75.1753 24.484 75.1753 42.5018C75.1753 60.5184 60.5171 75.1753 42.5 75.1753C24.4829 75.1753 9.82474 60.5178 9.82474 42.5018C9.82474 24.4846 24.4829 9.82657 42.5 9.82657Z" fill="#683FDB"/>
<path d="M70.6546 73.8259C79.276 66.0691 84.702 54.8331 84.702 42.35C84.7028 18.9918 65.6985 0 42.352 0C19.0055 0 0 18.9927 0 42.352C0 54.8351 5.42675 66.0717 14.0474 73.8278L3.51194 95.2382C3.26009 95.7526 3.31505 96.354 3.66534 96.8027C4.00419 97.2514 4.57349 97.4812 5.13137 97.3713L20.6671 94.5484L27.8988 108.585C28.1614 109.088 28.6757 109.395 29.2336 109.395H29.2443C29.8128 109.395 30.3272 109.067 30.579 108.552L42.3295 84.6803H42.3516H42.3737L54.1242 108.552C54.376 109.067 54.8904 109.384 55.4589 109.395H55.4696C56.0275 109.395 56.5525 109.077 56.8044 108.585L64.0361 94.5484L79.5718 97.3713C80.1297 97.4697 80.699 97.2507 81.0379 96.8027C81.3767 96.354 81.4423 95.7411 81.1913 95.2382L70.6546 73.8259ZM3.00828 42.35C3.00828 20.6544 20.6555 3.00672 42.3516 3.00672C64.0477 3.00672 81.6949 20.654 81.6949 42.35C81.6949 64.0457 64.0477 81.6933 42.3516 81.6933C20.6559 81.6941 3.00828 64.0469 3.00828 42.352V42.35ZM29.1994 104.557L22.821 92.1835C22.515 91.5928 21.8693 91.2753 21.213 91.3959L7.51514 93.8907L16.4212 75.8063C22.7775 80.7409 30.5565 83.9025 39.0351 84.5695L29.1994 104.557ZM63.4866 91.3959C62.8409 91.2753 62.1846 91.5928 61.8786 92.1835L55.5002 104.557L45.654 84.5692C54.1326 83.9129 61.9229 80.7396 68.2679 75.8059L77.174 93.8904L63.4866 91.3959Z" fill="#683FDB"/>
</svg>
