<svg width="109" height="107" viewBox="0 0 109 107" fill="none" xmlns="http://www.w3.org/2000/svg">
<path d="M1.70312 70.701H1.64719C0.801612 70.6715 0.125 69.9766 0.125 69.1238V66.3737C0.125 56.5245 5.1891 48.2238 12.6651 44.348C13.5324 45.1671 14.4882 45.89 15.5176 46.5047C8.29042 49.5007 3.28123 57.1705 3.28123 66.3728V69.1229C3.28123 69.9943 2.57459 70.701 1.70312 70.701Z" fill="#683FDB" stroke="white" stroke-width="0.25"/>
<path d="M46.1095 66.3726C46.1095 56.7262 40.5995 48.7656 32.8005 46.1068C33.8088 45.4412 34.7384 44.6675 35.5734 43.7998C43.677 47.3968 49.2657 56.0297 49.2657 66.3726V69.1227C49.2657 69.9942 48.559 70.7008 47.6876 70.7008C46.8161 70.7008 46.1095 69.9942 46.1095 69.1227V66.3726Z" fill="#683FDB" stroke="white" stroke-width="0.25"/>
<path d="M11.1943 32.5075C11.1943 25.5192 16.8604 19.8575 23.8412 19.8575C30.8235 19.8575 36.4911 25.5192 36.4911 32.5075C36.4911 39.4882 30.8234 45.1543 23.8412 45.1543C16.8605 45.1543 11.1943 39.4882 11.1943 32.5075ZM14.3506 32.5075C14.3506 37.7406 18.6081 41.9981 23.8412 41.9981C29.0765 41.9981 33.3349 37.7406 33.3349 32.5075C33.3349 27.2728 29.0766 23.0138 23.8412 23.0138C18.608 23.0138 14.3506 27.2729 14.3506 32.5075Z" fill="#683FDB" stroke="white" stroke-width="0.25"/>
<path d="M51.1913 90.4568L51.2294 90.2177C48.2717 88.9347 46.1976 85.967 46.1976 82.5116C46.1976 77.877 49.9181 74.125 54.4993 74.125C59.082 74.125 62.8024 77.8771 62.8024 82.5116C62.8024 85.9677 60.7276 88.9357 57.7692 90.2186L57.8072 90.4577C63.3009 90.9754 67.5689 93.9529 69.7097 98.4453L69.8226 98.6822L69.9354 98.4453C72.0756 93.9523 76.3431 90.974 81.8365 90.457L81.8745 90.2179C78.9174 88.9348 76.8427 85.9672 76.8427 82.5118C76.8427 77.8772 80.5632 74.1252 85.1452 74.1252C89.7271 74.1252 93.4476 77.8772 93.4476 82.5118C93.4476 85.9679 91.3728 88.9355 88.4144 90.2191L88.4524 90.4582C92.462 90.8359 95.8166 92.0636 98.1675 94.2225C100.515 96.3785 101.875 99.4752 101.875 103.621V105.452C101.875 106.239 101.244 106.874 100.468 106.874C99.6918 106.874 99.0605 106.239 99.0605 105.452V103.621C99.0605 99.9174 97.8499 97.3074 95.6854 95.6277C93.5268 93.9525 90.4391 93.2179 86.7137 93.2179H83.5712C79.8475 93.2179 76.7611 93.9525 74.6034 95.6277C72.4399 97.3074 71.2298 99.9174 71.2298 103.621V105.453C71.2298 106.239 70.5985 106.875 69.8226 106.875C69.0466 106.875 68.4153 106.239 68.4153 105.453V103.621C68.4153 99.9174 67.2047 97.3074 65.0403 95.6277C62.8817 93.9525 59.7939 93.2179 56.0685 93.2179H52.9254C49.2016 93.2179 46.1154 93.9525 43.9579 95.6277C41.7946 97.3075 40.5847 99.9174 40.5847 103.621V105.453C40.5847 106.239 39.9534 106.875 39.1774 106.875C38.4015 106.875 37.7702 106.239 37.7702 105.453V103.621C37.7702 99.9174 36.5594 97.3074 34.3947 95.6277C32.236 93.9525 29.148 93.2179 25.4226 93.2179H22.2802C18.5565 93.2179 15.4702 93.9525 13.3127 95.6277C11.1494 97.3075 9.93952 99.9174 9.93952 103.621V105.453C9.93952 106.239 9.30822 106.875 8.53226 106.875C7.7563 106.875 7.125 106.239 7.125 105.453V103.621C7.125 99.4739 8.48456 96.3765 10.832 94.2202C13.1825 92.0612 16.5366 90.8338 20.5455 90.4568L20.5835 90.2177C17.6265 88.9347 15.5524 85.967 15.5524 82.5116C15.5524 77.877 19.2729 74.125 23.8541 74.125C28.4363 74.125 32.1573 77.8771 32.1573 82.5116C32.1573 85.9677 30.0819 88.9355 27.1241 90.2184L27.1621 90.4575C32.6562 90.9752 36.9244 93.952 39.0646 98.4444L39.1774 98.6814L39.2903 98.4444C41.4297 93.9514 45.6972 90.9731 51.1913 90.4568ZM18.3668 82.5116C18.3668 85.5659 20.8266 88.0519 23.854 88.0519C26.8813 88.0519 29.3426 85.5659 29.3426 82.5116C29.3426 79.4565 26.8813 76.9699 23.854 76.9699C20.8266 76.9699 18.3668 79.4566 18.3668 82.5116ZM85.1452 76.9699C82.1178 76.9699 79.6573 79.4566 79.6573 82.5116C79.6573 85.5659 82.1178 88.0519 85.1452 88.0519C88.1718 88.0519 90.6331 85.5659 90.6331 82.5116C90.6331 79.4565 88.1718 76.9699 85.1452 76.9699ZM49.0119 82.5116C49.0119 85.5659 51.4725 88.0519 54.4991 88.0519C57.5264 88.0519 59.9877 85.5659 59.9877 82.5116C59.9877 79.4565 57.5265 76.9699 54.4991 76.9699C51.4724 76.9699 49.0119 79.4566 49.0119 82.5116Z" fill="#683FDB" stroke="white" stroke-width="0.25"/>
<path d="M57.1787 51.2411V46.1318C57.1787 45.2603 57.8854 44.5536 58.7568 44.5536C59.6283 44.5536 60.3349 45.2603 60.3349 46.1318V51.2411C60.3349 52.1126 59.6283 52.8192 58.7568 52.8192C57.8854 52.8192 57.1787 52.1126 57.1787 51.2411Z" fill="#683FDB" stroke="white" stroke-width="0.25"/>
<path d="M65.6953 51.2392V41.0205C65.6953 40.149 66.402 39.4424 67.2734 39.4424C68.1449 39.4424 68.8515 40.149 68.8515 41.0205V51.2392C68.8515 52.1107 68.1449 52.8173 67.2734 52.8173C66.402 52.8173 65.6953 52.1107 65.6953 51.2392Z" fill="#683FDB" stroke="white" stroke-width="0.25"/>
<path d="M74.209 51.2392V34.2081C74.209 33.3366 74.9156 32.6299 75.7871 32.6299C76.6586 32.6299 77.3652 33.3366 77.3652 34.2081V51.2392C77.3652 52.1107 76.6586 52.8174 75.7871 52.8174C74.9156 52.8174 74.209 52.1107 74.209 51.2392Z" fill="#683FDB" stroke="white" stroke-width="0.25"/>
<path d="M82.7266 51.2392V27.3956C82.7266 26.5241 83.4332 25.8174 84.3047 25.8174C85.1762 25.8174 85.8828 26.5241 85.8828 27.3956V51.2392C85.8828 52.1107 85.1762 52.8173 84.3047 52.8173C83.4332 52.8173 82.7266 52.1107 82.7266 51.2392Z" fill="#683FDB" stroke="white" stroke-width="0.25"/>
<path d="M94.3974 20.5831V51.2392C94.3974 52.1107 93.6908 52.8173 92.8193 52.8173C91.9479 52.8173 91.2412 52.1107 91.2412 51.2392V20.5831C91.2412 19.7116 91.9479 19.005 92.8193 19.005C93.6908 19.005 94.3974 19.7116 94.3974 20.5831Z" fill="#683FDB" stroke="white" stroke-width="0.25"/>
<path d="M55.856 42.0487L55.8122 41.9975C55.2925 41.336 55.3826 40.3761 56.0272 39.8235L82.0352 17.5506L82.2903 17.3322L81.9544 17.3307C81.3033 17.3279 80.6968 16.9245 80.4731 16.276L80.4731 16.2759C80.1884 15.4522 80.6246 14.5533 81.4481 14.2687L81.4481 14.2687L87.1931 12.2812L87.1932 12.2812C87.7272 12.0959 88.319 12.2107 88.7452 12.5813C89.1707 12.9519 89.3666 13.5226 89.2574 14.0762L89.2574 14.0763L88.0492 20.2166C87.9013 20.9697 87.242 21.4904 86.503 21.4904C86.4024 21.4904 86.2996 21.4806 86.1975 21.4601L86.1971 21.4601C85.3419 21.2923 84.7853 20.4625 84.9537 19.6079L84.9787 19.4819L85.0492 19.1277L84.7748 19.3626L58.0817 42.2213C58.0817 42.2213 58.0816 42.2213 58.0816 42.2213C57.7843 42.4757 57.4188 42.6003 57.0559 42.6003C56.6104 42.6003 56.1681 42.4129 55.856 42.0487Z" fill="#683FDB" stroke="white" stroke-width="0.25"/>
<path d="M41.8929 19.6284L41.8934 19.6284V19.6231C41.9701 18.754 42.7308 18.1006 43.5977 18.1909L43.6 18.1912C44.4679 18.2651 45.1118 19.0295 45.0371 19.8982L45.0371 19.8982C45.0178 20.1245 45.0078 20.3531 45.0078 20.584C45.0078 21.4564 44.3003 22.1713 43.4297 22.1713C42.5573 22.1713 41.8516 21.4729 41.8516 20.6023V20.584C41.8516 20.2624 41.8658 19.9443 41.8929 19.6284Z" fill="#683FDB" stroke="white" stroke-width="0.25"/>
<path d="M43.9477 24.048L43.9579 24.0419C44.7041 23.602 45.6668 23.8457 46.1128 24.5883L46.1128 24.5884C46.2333 24.7883 46.3615 24.9823 46.4991 25.1709L46.4991 25.1709C47.0127 25.874 46.8583 26.8625 46.1547 27.3753L46.1546 27.3753C45.8733 27.5805 45.548 27.679 45.2254 27.679C44.739 27.679 44.2587 27.4549 43.9495 27.0308L43.9493 27.0307C43.7562 26.7669 43.5751 26.4941 43.4068 26.213L43.4067 26.213C42.9586 25.4654 43.2004 24.496 43.9477 24.048ZM46.6001 25.0972C46.4647 24.9117 46.3385 24.7208 46.2199 24.5239C45.7364 23.7187 44.6902 23.4572 43.8834 23.9407L46.6001 25.0972Z" fill="#683FDB" stroke="white" stroke-width="0.25"/>
<path d="M44.5444 13.3935L44.5358 13.4034C44.3222 13.6493 44.1185 13.9049 43.9277 14.1693L43.9275 14.1696C43.4161 14.8748 43.5732 15.8618 44.2784 16.3733L44.2784 16.3733C44.5582 16.5763 44.8821 16.6742 45.204 16.6742C45.6925 16.6742 46.1736 16.448 46.4829 16.0224C46.4829 16.0224 46.4829 16.0224 46.4829 16.0224L46.584 16.0959C46.7193 15.9096 46.863 15.7294 47.0136 15.5553L44.5444 13.3935ZM44.5444 13.3935C45.1171 12.7455 46.1074 12.6792 46.7621 13.2463L44.5444 13.3935Z" fill="#683FDB" stroke="white" stroke-width="0.25"/>
<path d="M49.3893 31.1185L49.4274 30.9995C49.1134 30.8988 48.8061 30.7839 48.5057 30.6547L48.5055 30.6546C47.7061 30.313 47.3333 29.3897 47.672 28.5883L47.6741 28.5834C48.0172 27.7822 48.9437 27.4102 49.7455 27.752L49.7457 27.752C49.9589 27.8424 50.176 27.9235 50.3977 27.9954L50.3977 27.9954C51.227 28.2639 51.6821 29.1531 51.4144 29.9822L51.4144 29.9823C51.1989 30.6507 50.579 31.0764 49.9131 31.0764C49.753 31.0764 49.5894 31.0511 49.4272 30.9994L49.3893 31.1185ZM49.3893 31.1185C49.0714 31.0166 48.7605 30.9003 48.4563 30.7695L50.4362 27.8765C51.3311 28.1662 51.8223 29.1257 51.5334 30.0206C51.3007 30.7422 50.6316 31.2014 49.9131 31.2014C49.7398 31.2014 49.5634 31.174 49.3893 31.1185Z" fill="#683FDB" stroke="white" stroke-width="0.25"/>
<path d="M49.8708 13.2597H49.8777C50.0403 13.2597 50.205 13.2344 50.3679 13.1808L50.3681 13.1807C50.5881 13.109 50.8129 13.0456 51.0418 12.993C51.8915 12.7972 52.4213 11.9504 52.2262 11.1007L49.8708 13.2597ZM49.8708 13.2597C49.209 13.2568 48.5948 12.8346 48.3779 12.1706C48.108 11.3412 48.5604 10.4508 49.3889 10.1802L49.3891 10.1802C49.6979 10.0787 50.0127 9.99082 50.3335 9.91719C51.1818 9.72622 52.0304 10.2525 52.2262 11.1006L49.8708 13.2597ZM50.0569 13.3752C50.1737 13.3627 50.2908 13.3378 50.4069 13.2996L49.9599 13.2905L49.9599 13.2906L50.0569 13.3752Z" fill="#683FDB" stroke="white" stroke-width="0.25"/>
<path d="M56.1486 10.1612C56.4492 10.2587 56.745 10.369 57.0348 10.4893L57.063 10.5012C57.8669 10.8394 58.2437 11.7651 57.9056 12.5674L57.9056 12.5674C57.6513 13.1712 57.0666 13.5349 56.45 13.5349C56.246 13.5349 56.039 13.4948 55.8394 13.4109C55.6239 13.3198 55.4038 13.2379 55.1783 13.1653C54.3491 12.8968 53.894 12.0077 54.1617 11.1785C54.4294 10.3496 55.3183 9.89559 56.1486 10.1612Z" fill="#683FDB" stroke="white" stroke-width="0.25"/>
<path d="M54.8882 31.2948C54.1683 31.2948 53.5181 30.7987 53.3511 30.0677L53.3511 30.0677C53.1581 29.2179 53.6901 28.3718 54.5397 28.178L54.5397 28.178C54.7661 28.1262 54.9903 28.0644 55.21 27.9925L55.1711 27.8737L55.2099 27.9925C56.0411 27.7213 56.9295 28.1756 57.1993 29.0035L57.1993 29.0035C57.4699 29.8327 57.0169 30.7232 56.1884 30.993L56.1883 30.993C55.8778 31.0945 55.5615 31.1824 55.24 31.2553L55.2398 31.2553C55.1222 31.2821 55.0045 31.2948 54.8882 31.2948Z" fill="#683FDB" stroke="white" stroke-width="0.25"/>
<path d="M58.8026 27.9223L58.8118 27.9304C59.1121 28.1939 59.4832 28.3228 59.8516 28.3228C60.2902 28.3228 60.7274 28.1409 61.0379 27.7861L61.038 27.7859C61.2551 27.5388 61.4602 27.2811 61.6534 27.0143L61.6535 27.0142C62.1649 26.309 62.0078 25.322 61.3019 24.8105L58.8026 27.9223ZM58.8026 27.9223C58.1559 27.3461 58.0945 26.3548 58.6658 25.7042C58.8184 25.5306 58.9622 25.3489 59.098 25.1622L59.0981 25.162C59.6103 24.4554 60.5966 24.2996 61.3019 24.8105L58.8026 27.9223Z" fill="#683FDB" stroke="white" stroke-width="0.25"/>
<path d="M61.6286 14.1179L61.6497 14.1465C61.8358 14.4021 62.0114 14.6661 62.1765 14.9385C62.6245 15.6868 62.3827 16.6553 61.6353 17.104C61.3808 17.2563 61.1013 17.3287 60.8246 17.3287C60.288 17.3287 59.7655 17.056 59.4697 16.5631C59.3504 16.3631 59.2211 16.1713 59.0846 15.9853C58.5689 15.283 58.7196 14.296 59.4228 13.7796L59.4229 13.7795C60.1249 13.2626 61.1112 13.4151 61.6286 14.1179Z" fill="#683FDB" stroke="white" stroke-width="0.25"/>
<path d="M62.1296 23.0008C62.0843 23.0008 62.0358 22.998 61.9854 22.9943L62.16 18.9869H62.1653C63.0386 18.9869 63.7434 19.677 63.7434 20.5467V20.584C63.7434 20.9148 63.7284 21.2426 63.6998 21.5644C63.6258 22.3843 62.9368 23.0008 62.1296 23.0008Z" fill="#683FDB" stroke="white" stroke-width="0.25"/>
<path d="M23.8415 48.8106H23.8681L23.8684 48.8104C23.9861 48.8092 24.1075 48.8005 24.2237 48.7922C24.2446 48.7907 24.2654 48.7892 24.2859 48.7878L22.0847 60.7742L22.0696 60.8563L22.1397 60.9017L24.4503 62.3972L24.4683 62.4088L24.4891 62.4138C24.5506 62.4286 24.6329 62.4344 24.7096 62.434C24.7868 62.4336 24.8714 62.4269 24.9378 62.4107L24.9584 62.4057L24.9762 62.3942L27.226 60.9397L27.299 60.8925L27.2802 60.8077L24.6149 48.7714C25.6899 48.7209 26.7357 48.5659 27.7467 48.3165L30.4248 60.4108L30.4244 60.4109L30.4274 60.4207C30.7831 61.5721 30.2079 62.881 29.0166 63.5408L29.0165 63.5405L29.0095 63.545L26.4437 65.1964C25.9373 65.46 25.3264 65.5939 24.7122 65.5939C24.0977 65.5939 23.4864 65.4596 22.9787 65.1957L22.8454 65.1188L20.4143 63.5452L20.4145 63.5449L20.407 63.5408C19.2525 62.9004 18.6449 61.6166 18.9288 60.4849L18.929 60.4849L18.9305 60.477L21.1183 48.5668C22.0043 48.718 22.9109 48.8106 23.8415 48.8106Z" fill="#683FDB" stroke="white" stroke-width="0.25"/>
<path d="M105.599 1.12325V1.12317C107.398 1.1233 108.875 2.7159 108.875 4.70474V60.3062C108.875 62.295 107.398 63.8877 105.599 63.8877H52.8186C52.7356 62.8162 52.6042 61.7625 52.4172 60.7315H105.509H105.573L105.61 60.6802C105.66 60.6126 105.72 60.4882 105.72 60.3062V4.70474C105.72 4.52207 105.66 4.39784 105.611 4.33099L105.574 4.2794H105.51H27.3361H27.2732L27.2357 4.32992C27.1856 4.39751 27.126 4.52223 27.126 4.70474V16.5403C26.1049 16.3302 25.0511 16.2104 23.9697 16.2018V4.70481C23.9697 2.71597 25.4466 1.12325 27.2457 1.12325H105.599Z" fill="#683FDB" stroke="white" stroke-width="0.25"/>
</svg>
