<svg xmlns="http://www.w3.org/2000/svg" width="673" height="289" fill="none" xmlns:v="https://vecta.io/nano"><style><![CDATA[.B{opacity:.5}.C{fill:#683fdb}.D{fill:#f5b09f}.E{fill:#492c99}.F{fill:#fff}.G{fill:#fcecdb}.H{fill:#233862}.I{fill:#f4d2b8}.J{fill:#f99746}.K{fill:#efdece}.L{stroke-width:.5}]]></style><g clip-path="url(#A)"><g opacity=".2" class="C"><path d="M406.821 287.091H117.963V37.118a20.06 20.06 0 0 1 5.862-14.146c3.747-3.752 8.827-5.864 14.126-5.871h252.094c4.448.006 8.712 1.778 11.857 4.928s4.914 7.421 4.919 11.875v253.187zm-284.315-4.55h279.772V33.904c-.004-3.248-1.294-6.362-3.587-8.658a12.24 12.24 0 0 0-8.646-3.592H137.951a15.45 15.45 0 0 0-10.916 4.534c-2.895 2.899-4.524 6.83-4.529 10.931v245.423z" class="B"/><path d="M404.549 69.512H120.234v5.06h284.315v-5.06zm0 40.744H120.234v5.06h284.315v-5.06zm0 40.745H120.234v5.06h284.315v-5.06zm0 40.894H120.234v5.06h284.315v-5.06z" class="B"/><path d="M182.248 191.892h7.101v-26.459h-7.101v26.459zm-7.808.003h6.151v-28.758h-6.151v28.758zm-9.619-.466l6.106.748 3.485-28.545-6.106-.748-3.485 28.545zm215.807.463h7.099v-26.459h-7.099v26.459zm-7.809.003h6.152v-28.758h-6.152v28.758zm-9.623-.45l6.106.747 3.485-28.544-6.106-.748-3.485 28.545zm-232.958.45h29.03v-5.175h-29.03v5.175z" class="B"/><path d="M126.688 186.718h29.03v-3.559h-29.03v3.559z" class="B"/><path d="M129.542 183.161h27.833v-3.559h-27.833v3.559z" class="B"/><path d="M128.867 179.602h25.136v-2.718h-25.136v2.718zm140.715 12.293h29.03v-5.175h-29.03v5.175z" class="B"/><path d="M266.033 186.718h29.03v-3.559h-29.03v3.559z" class="B"/><path d="M268.887 183.161h27.833v-3.559h-27.833v3.559z" class="B"/><path d="M268.212 179.602h25.136v-2.718h-25.136v2.718z" class="B"/><path d="M265.077 176.887h29.029v-3.56h-29.029v3.56z" class="B"/><path d="M267.932 173.325h27.834v-3.559h-27.834v3.559z" class="B"/><path d="M267.258 169.768h25.136v-2.717h-25.136v2.717zm-19.437 22.012h4.948v-28.643h-4.948v28.643zm60.855 0h4.948v-29.955h-4.948v29.955zm14.991 0h4.948v-28.643h-4.948v28.643z" class="B"/><path d="M241.567 191.78h6.254v-31.006h-6.254v31.006zm88.077 0h6.253v-31.006h-6.253v31.006z" class="B"/><path d="M235.314 191.78h6.253v-29.528h-6.253v29.528zm64.213-.016l6.161-1.077-5.753-33.008-6.16 1.076 5.752 33.009z" class="B"/><path d="M229.057 191.778h6.254v-25h-6.254v25zm108.772 0h6.254v-25h-6.254v25z" class="B"/><path d="M222.804 191.778h6.254v-26.345h-6.254v26.345zm-7.255 0h6.254v-26.345h-6.254v26.345zm129.404 0h6.254v-26.345h-6.254v26.345zm-136.826.002h6.254v-28.643h-6.254v28.643zm108.649 0h6.253v-28.643h-6.253v28.643zm15.39-148.613h-7.101v26.459h7.101V43.167zm7.807-2.298h-6.152v28.757h6.152V40.869z" class="B"/><path d="M346.071 40.635l-6.106.748 3.484 28.545 6.106-.748-3.484-28.545zm-128.16 43.167h-7.1v26.459h7.1V83.802zm7.807-2.301h-6.152v28.758h6.152V81.501zm6.118-.29l-6.106.749 3.49 28.544 6.106-.749-3.49-28.544zm-98.047-38.044h-7.101v26.459h7.101V43.167zm7.807-2.298h-6.152v28.757h6.152V40.869z" class="B"/><path d="M147.691 40.619l-6.106.748 3.485 28.545 6.105-.748-3.484-28.545zm236.484 23.832h-29.03v5.174h29.03v-5.174z" class="B"/><path d="M387.724 60.895h-29.03v3.559h29.03v-3.559z" class="B"/><path d="M384.873 57.336H357.04v3.559h27.833v-3.559z" class="B"/><path d="M385.546 54.618H360.41v2.718h25.136v-2.718zM244.83 64.451H215.8v5.174h29.03v-5.174z" class="B"/><path d="M248.379 60.895H219.35v3.559h29.029v-3.559z" class="B"/><path d="M245.528 57.336h-27.833v3.559h27.833v-3.559z" class="B"/><path d="M246.201 54.618h-25.136v2.718h25.136v-2.718z" class="B"/><path d="M249.336 51.059h-29.03v3.559h29.03v-3.559z" class="B"/><path d="M246.483 47.502h-27.834v3.559h27.834v-3.559z" class="B"/><path d="M247.158 44.784h-25.137v2.718h25.137v-2.718zm19.436-3.915h-4.948v28.643h4.948V40.869zm-60.855-1.313h-4.948v29.955h4.948V39.556zm-14.991 1.313H185.8v28.643h4.948V40.869z" class="B"/><path d="M272.848 38.508h-6.254v31.006h6.254V38.508zm-88.079 0h-6.254v31.006h6.254V38.508z" class="B"/><path d="M279.101 39.985h-6.253v29.529h6.253V39.985zm-58.445-3.491l-6.161-1.077-5.752 33.009 6.16 1.077 5.753-33.008zm115.041 68.588h-29.03v5.174h29.03v-5.174z" class="B"/><path d="M339.247 101.523h-29.03v3.559h29.03v-3.559z" class="B"/><path d="M336.393 97.966H308.56v3.559h27.833v-3.559z" class="B"/><path d="M337.068 95.248h-25.136v2.718h25.136v-2.718z" class="B"/><path d="M340.203 91.689h-29.03v3.559h29.03v-3.559z" class="B"/><path d="M337.35 88.13h-27.834v3.559h27.834V88.13z" class="B"/><path d="M338.022 85.412h-25.136v2.718h25.136v-2.718zm-24.386-7.998l-6.191-1.065-5.688 33.173 6.191 1.064 5.688-33.172zm-28.281-32.902h-6.253v25h6.253v-25zm-108.769 0h-6.254v25h6.254v-25z" class="B"/><path d="M291.611 43.167h-6.254v26.345h6.254V43.167zm7.253 0h-6.254v26.345h6.254V43.167zm-129.402 0h-6.254v26.345h6.254V43.167zm120.169 36.085h-6.254v31.007h6.254V79.252zm-8.183 6.004h-6.254v25h6.254v-25zm-7.125-1.345h-6.254v26.345h6.254V83.911zm-20.902 0h-6.254v26.345h6.254V83.911zm-8.728 0h-6.254v26.345h6.254V83.911zm-98.469-4.659h-6.253v31.007h6.253V79.252zm6.229-.277l-6.207.761 3.762 30.777 6.208-.761-3.763-30.777zm-14.412 6.281h-6.253v25h6.253v-25zm-7.124-1.345h-6.253v26.345h6.253V83.911zm175.371-43.042h-6.254v28.643h6.254V40.869zm-67.97 81.489h-4.948v28.643h4.948v-28.643z" class="B"/><path d="M244.572 119.994h-6.254v31.007h6.254v-31.007z" class="B"/><path d="M250.828 121.472h-6.254v29.529h6.254v-29.529z" class="B"/><path d="M257.082 126.001h-6.254v25h6.254v-25z" class="B"/><path d="M263.336 124.656h-6.254v26.345h6.254v-26.345zm7.254 0h-6.254v26.345h6.254v-26.345zm7.424-2.298h-6.253v28.643h6.253v-28.643zm74.855-40.745h-6.254v28.643h6.254V81.613zm6.812 0h-6.253v28.643h6.253V81.613zM197.637 40.869h-6.254v28.643h6.254V40.869zm170.115 105.083h-29.029v5.175h29.029v-5.175z" class="B"/><path d="M371.302 142.396h-29.03v3.559h29.03v-3.559z" class="B"/><path d="M368.449 138.836h-27.834v3.56h27.834v-3.56z" class="B"/><path d="M369.123 136.119h-25.136v2.717h25.136v-2.717z" class="B"/><path d="M372.258 132.56h-29.029v3.559h29.029v-3.559z" class="B"/><path d="M369.405 129.003h-27.833v3.559h27.833v-3.559z" class="B"/><path d="M370.078 126.285h-25.136v2.718h25.136v-2.718zm-41.417-5.228h-4.948v29.955h4.948v-29.955zm-14.993 1.312h-4.948v28.643h4.948v-28.643zm-5.979-2.361h-6.253v31.007h6.253v-31.007zm35.891-2.014l-6.161-1.077-5.753 33.009 6.161 1.077 5.753-33.009zm-44.074 8.021h-6.254v25h6.254v-25zm-7.122-1.347h-6.254v26.344h6.254v-26.344zm-65.803-4.66h-6.254v31.007h6.254v-31.007zm-8.183 6.007h-6.254v25h6.254v-25zm-7.124-1.347h-6.254v26.344h6.254v-26.344zm-9.745-4.66h-6.254v31.007h6.254v-31.007zm-8.183 6.007h-6.254v25h6.254v-25zm-7.124-1.347h-6.254v26.344h6.254v-26.344zm134.338-2.299h-6.254v28.643h6.254v-28.643z" class="B"/></g><path opacity=".1" d="M475.451 21.428h-36.712a3.07 3.07 0 0 0-3.066 3.07v35.486a3.07 3.07 0 0 0 3.066 3.07h36.712a3.07 3.07 0 0 0 3.065-3.07V24.497a3.07 3.07 0 0 0-3.065-3.07z" class="C"/><g fill="#b7d3f3"><path d="M456.208 27.031a.89.89 0 0 1 1.06-.87c.172.034.33.119.454.243s.208.282.242.455a.89.89 0 0 1-.377.912.88.88 0 0 1-.492.15.89.89 0 0 1-.887-.888zm7.162 1.256a.89.89 0 0 1 .37-.359.87.87 0 0 1 .506-.092c.174.021.339.091.472.205s.231.264.279.433a.88.88 0 0 1-.301.939.89.89 0 0 1-.479.19.88.88 0 0 1-.503-.109.86.86 0 0 1-.264-.224.88.88 0 0 1-.159-.308c-.032-.112-.041-.23-.028-.345s.05-.228.107-.33zm6.135 4.881c.147-.095.319-.144.495-.141a.89.89 0 0 1 .49.158c.144.1.255.241.319.404s.079.342.042.514a.89.89 0 0 1-.708.686.88.88 0 0 1-.511-.059.89.89 0 0 1-.393-.333c-.063-.098-.106-.208-.127-.322a.88.88 0 0 1 .006-.347.87.87 0 0 1 .138-.318.88.88 0 0 1 .249-.241zm3.037 7.554a.89.89 0 0 1 .495.149c.146.098.26.236.328.399a.89.89 0 0 1 .052.515c-.034.173-.119.332-.243.457a.89.89 0 0 1-1.519-.629c0-.236.094-.462.26-.629a.89.89 0 0 1 .627-.262zm-1.55 8.768c.124.124.208.282.242.455a.89.89 0 0 1-.05.513c-.067.162-.181.301-.327.398a.89.89 0 0 1-.492.15c-.175 0-.347-.052-.493-.15s-.259-.236-.326-.398a.89.89 0 0 1-.051-.513c.034-.172.119-.33.243-.455.082-.083.18-.148.287-.193a.89.89 0 0 1 .34-.068c.116 0 .232.023.339.068a.88.88 0 0 1 .288.193zm-6.2 7.114a.89.89 0 0 0 .886-.888.89.89 0 0 0-.886-.888.89.89 0 0 0-.887.888.89.89 0 0 0 .887.888zm-8.584 1.366c0-.175.053-.347.151-.493s.236-.259.398-.326a.88.88 0 0 1 .512-.049.89.89 0 0 1 .454.243c.123.124.208.283.242.455a.89.89 0 0 1-.051.513c-.067.162-.181.301-.327.398a.89.89 0 0 1-1.119-.113.89.89 0 0 1-.26-.629zm-5.416-29.683a.89.89 0 0 0-.37-.359.87.87 0 0 0-.506-.092c-.174.021-.339.091-.472.205a.9.9 0 0 0-.28.433.89.89 0 0 0 .009.515.88.88 0 0 0 .293.424.89.89 0 0 0 .479.19.88.88 0 0 0 .503-.109.86.86 0 0 0 .264-.224.88.88 0 0 0 .159-.308c.032-.112.041-.23.028-.345s-.05-.228-.107-.33zm-6.135 4.881c-.147-.095-.319-.144-.495-.141a.88.88 0 0 0-.489.158.89.89 0 0 0-.32.404c-.064.163-.079.342-.042.514a.89.89 0 0 0 .708.686c.172.031.35.011.511-.059a.89.89 0 0 0 .393-.333c.063-.098.106-.208.127-.322a.88.88 0 0 0-.143-.665c-.067-.096-.151-.178-.25-.241zm-3.037 7.554a.89.89 0 0 0-.495.149c-.146.098-.26.236-.328.399a.89.89 0 0 0-.052.515c.034.173.119.332.243.457a.89.89 0 0 0 1.369-.134.9.9 0 0 0 .15-.495c0-.236-.094-.462-.26-.629a.89.89 0 0 0-.627-.262zm1.55 8.768c-.124.124-.208.283-.242.455s-.016.351.052.513.18.3.326.398a.88.88 0 0 0 .492.149.89.89 0 0 0 .87-1.06c-.034-.172-.118-.33-.241-.455a.9.9 0 0 0-.288-.194.89.89 0 0 0-.341-.068c-.116 0-.232.023-.34.068a.88.88 0 0 0-.288.194zm6.2 7.114a.89.89 0 0 0 .887-.888.89.89 0 0 0-.887-.888.89.89 0 0 0-.887.888.89.89 0 0 0 .887.888zm7.485-14.992a.9.9 0 0 1 .149-.495.89.89 0 0 1 1.368-.138.89.89 0 0 1-.133 1.371.89.89 0 0 1-.494.15c-.236 0-.462-.093-.628-.26a.89.89 0 0 1-.262-.628z"/><path d="M457.866 30.508h-.242v11.104h.242V30.508z"/><path d="M463.29 36.699l-5.879 4.621.448.572 5.879-4.621-.448-.572z"/></g><g class="C"><path opacity=".1" d="M522.979 260.224s40.598-38.67 51.99-29.68-51.99 29.68-51.99 29.68zm-2.935 7.445s75.534-33.864 93.407-15.959-20.728 15.695-35.021 13.693-58.386 2.266-58.386 2.266zm-3.172-8.289l.84-4.692c.945-5.437 2.381-14.234 2.633-18.816.381-6.932 5.946-11.855 12.058-4.797s-13.18 26.403-13.18 26.403l-2.351 1.902zm21.431-132.4c-5.528-14.484-30.149-7.298-30.149-7.298s-14.416 27.778-19.318 28.902 7.681-26.161 7.681-26.161c-9.696.04-32.982 14.297-32.982 14.297s4.608 30.247-.41 30.126-2.716-26.989-2.716-26.989c-9.012 3.73-16.592 15.463-16.592 15.463-9.063 18.777 15.479 29.461 15.479 29.461s1.374 10.517-3.914 23.271c0 0-1.245 2.382-2.356 6.33l2.535-.256a25.12 25.12 0 0 1 .489-2.04v-.028l.57-1.703c.621-1.597 1.031-2.772 1.282-3.613 1.841-5 4.557-11.542 6.654-13.069-.266-.339-.488-.712-.658-1.109l.658 1.109c5.274 8.869 27.115 8.232 38.945 4.531s6.221-6.582-.84-11.465-20.547-2.047-24.792-3.811 1.422-4.531 9.543-4.722 12.956 7.458 26.09 7.393S534.114 160 534.114 160c-8.703 3.699-25.309.361-26.242-2.678s22.953-5.128 26.577-6.442 9.379-9.414 3.854-23.9zm-396.845 127.9c-11.374-13.929 10.054-34.61 10.054-34.61s36.245 1.491 40.195-2.797-30.738-7.335-30.738-7.335c5.632-9.755 33.4-25.007 33.4-25.007s27.75 22.096 30.525 16.965-25.567-18.308-25.567-18.308c8.949-6.934 25.117-7.81 25.117-7.81 24.108 1.696 20.689 32.607 20.689 32.607s9.775 7.459 25.655 9.477c0 0 3.112.122 7.722 1.278l-1.72 2.407a29.44 29.44 0 0 0-2.327-.683h-.014-.033l-2.043-.41c-1.962-.293-3.38-.559-4.369-.792-6.086-1.028-14.232-2.065-16.976-.832a5.71 5.71 0 0 0-.735-1.303l.735 1.303c5.872 10.435-7.368 32.088-17.921 41.882s-10.208 2.475-11.041-7.459 9.796-21.895 10.473-27.193-5.374-1.182-10.241 6.892.033 17.369-7.617 30.571-37.593 5.994-37.593 5.994c8.74-6.64 14.966-25.31 12.447-28.004s-18.405 20.178-21.81 23.075-14.893 4.018-26.267-9.908z"/></g><path d="M236.321 193.787h115.584a19.34 19.34 0 0 1 7.412 1.477c2.349.974 4.484 2.403 6.283 4.204s3.224 3.939 4.198 6.292 1.474 4.875 1.474 7.422v17.189a19.85 19.85 0 0 1-5.801 14.026c-3.715 3.72-8.753 5.809-14.006 5.809H236.321v-56.419z" class="G"/><path d="M471.905 217v8.495a31.46 31.46 0 0 1-2.475 12.433c-3.16 7.346-9.042 12.285-15.772 12.285H232.707c-1.462 0-2.646-1.606-2.646-3.582v-1.27c0-1.979 1.184-3.585 2.646-3.585h130.91c1.215.008 2.405-.351 3.414-1.03a6.07 6.07 0 0 0 2.242-2.776l.014-.042a29.65 29.65 0 0 0 1.975-10.785v-10.791a29.97 29.97 0 0 0-.546-5.741c0-.031 0-.063-.017-.093-.476-2.344-1.749-4.45-3.601-5.96a10.32 10.32 0 0 0-6.558-2.324H232.707c-1.462 0-2.646-1.606-2.646-3.587v-1.268c0-1.981 1.184-3.585 2.646-3.585H454.77c7.825 0 14.43 7.107 16.474 16.817a30.96 30.96 0 0 1 .661 6.389z" class="J"/><g class="I"><path d="M236.321 221.997l16.36.948-16.36.571v-1.519zm0 8.852l38.922.949-38.922.571v-1.52z"/></g><path d="M251.086 100.875h95.526c4.29 0 8.405 1.707 11.438 4.744a16.21 16.21 0 0 1 4.738 11.455v14.779a16.58 16.58 0 0 1-4.846 11.715 16.53 16.53 0 0 1-11.697 4.853h-95.159v-47.549.003z" class="G"/><path d="M446.098 120.437v7.165c.024 3.598-.673 7.165-2.048 10.489-2.619 6.19-7.485 10.353-13.057 10.353h-182.9c-1.21 0-2.19-1.354-2.19-3.03v-1.07c0-1.666.98-3.03 2.19-3.03h111.502a21.17 21.17 0 0 0 1.564-3.242c1.094-2.905 1.647-5.986 1.629-9.09v-9.09c.002-1.624-.149-3.244-.452-4.839-.456-2.483-1.33-4.871-2.583-7.062h-111.66c-1.21 0-2.19-1.352-2.19-3.03v-1.063c0-1.671.98-3.03 2.19-3.03h183.821c6.478 0 11.94 5.99 13.637 14.173a26.58 26.58 0 0 1 .547 5.396z" fill="#ccbef2"/><g class="I"><path d="M251.086 124.649l13.541.799-13.541.483v-1.282zm0 7.461l32.218.799-32.218.48v-1.279z"/></g><path d="M394.094 287.091H262.788a18.28 18.28 0 0 1-12.935-5.366 18.33 18.33 0 0 1-5.358-12.954v-1.459a17.22 17.22 0 0 1 5.031-12.165 17.17 17.17 0 0 1 12.148-5.039h132.43v36.983h-.01z" class="E"/><path d="M536.776 287.091H387.221a17.84 17.84 0 0 1-6.835-1.362 17.86 17.86 0 0 1-5.796-3.877 17.92 17.92 0 0 1-3.872-5.804c-.898-2.17-1.36-4.497-1.36-6.846v-1.603c0-4.637 1.84-9.083 5.113-12.361a17.44 17.44 0 0 1 12.343-5.12h149.962v36.973z" class="G"/><g class="E"><path d="M359.432 287.091H541.89c1.465 0 2.653-1.19 2.653-2.657v-.217c0-1.467-1.188-2.657-2.653-2.657H359.432c-1.465 0-2.653 1.19-2.653 2.657v.217c0 1.467 1.188 2.657 2.653 2.657zm0-31.452H541.89c1.465 0 2.653-1.189 2.653-2.657v-.216c0-1.468-1.188-2.658-2.653-2.658H359.432c-1.465 0-2.653 1.19-2.653 2.658v.216c0 1.468 1.188 2.657 2.653 2.657z"/></g><g class="I"><path d="M536.776 268.599l-20.297.622 20.297.375v-.997zm.001-8.51l-48.29.62 48.29.375v-.995z"/></g><path d="M488.985 260.585s2.069 1.59 2.754 4.196c.126.476.198.966.214 1.459.114 3.47 0 11.325 0 11.325l6.109-3.927 6.096 3.927V266.92c0-2.013-.524-3.962-1.494-5.253-.466-.62-1.043-1.089-1.688-1.089l-11.991.007z" class="C"/><path d="M488.985 260.585s2.069 1.59 2.754 4.196l12.244.154s-.482-3.73-3.007-4.357l-11.991.007z" class="E"/><path d="M496.198 193.785H348.116a19.8 19.8 0 0 1-14.009-5.811c-3.715-3.721-5.802-8.767-5.802-14.029v-6.125a19.41 19.41 0 0 1 5.674-13.717 19.35 19.35 0 0 1 13.697-5.682h148.522v45.364z" class="G"/><path d="M328.221 166.023v9.766c.013 1.47.365 2.917 1.029 4.228 1.164 2.331 3.226 4.254 5.818 5.494a15.78 15.78 0 0 0 6.75 1.489h158.783c1.862 0 3.368 1.261 3.368 2.818v1.151c0 1.555-1.508 2.818-3.368 2.818H226.315c-7.873 0-14.825-3.263-19.029-8.276-2.648-3.154-4.203-6.993-4.203-11.149v-7.691a15.74 15.74 0 0 1 2.167-7.925c3.526-6.1 10.999-10.307 19.646-10.307h275.719c1.862 0 3.368 1.259 3.368 2.816v1.151c0 1.555-1.508 2.818-3.368 2.818h-159.27c-3.805 0-7.249 1.354-9.656 3.522-1.023.911-1.866 2.006-2.486 3.228-.63 1.258-.966 2.642-.982 4.049z" class="C"/><g class="I"><path d="M496.196 171.104l-20.354.762 20.354.459v-1.221zm0-10.44l-48.427.762 48.427.46v-1.222z"/></g><path d="M448.27 161.275s3.195 1.438 4.254 3.804a3.71 3.71 0 0 1 .331 1.321c.176 3.142 0 10.256 0 10.256l9.435-3.557 9.412 3.557v-9.64c.004-.917-.201-1.822-.601-2.646s-.983-1.546-1.705-2.109a4.29 4.29 0 0 0-2.607-.986H448.27z" class="J"/><path d="M448.27 161.275s3.195 1.438 4.254 3.804l18.908.14s-.742-3.385-4.643-3.944H448.27z" fill="#ed7d2b"/><path opacity=".2" d="M673 287.905v.279c.006.209-.071.413-.214.565a.79.79 0 0 1-.549.251H.764a.79.79 0 0 1-.54-.251c-.141-.15-.218-.349-.214-.555v-.28a.8.8 0 0 1 .215-.564c.143-.152.34-.242.548-.25h671.464c.207.008.402.097.545.247s.221.35.218.558z" fill="#2e3552"/><path d="M463.863 176.082s20.579 8.979 24.312 8.816 26.765-7.021 26.765-7.021l-.586 3.963s-17.763 10.232-23.973 10.812c-6.114.571-27.019-5.496-29.036-6.776s-3.359-8.505 2.518-9.794z" class="D"/><path d="M460.761 143.046s-7.592-1.445-11.372 1.321c-6.85 5.009-7.215 22.276-9.775 24.849s-8.754 1.473-9.31 14.784 2.465 14.423-1.126 20.364 1.519 11.887 1.519 11.887-2.094-3.279-1.196-5.647c0 0 .871 5.225 4.189 6.449s3.806 2.123 4.334 3.918c0 0 28.276-14.509 28.306-24.799s5.565-20.488 2.849-24.94c0 0 1.21 1.909 1.357 4.03 0 0 1.629-3.128-1.194-6.039s3.314-8.941 2.404-15.922c-.633-4.796-3.989-10.048-10.985-10.255z" class="H"/><path d="M466.353 185.872c-1.808 1.256-4.073 2.291-6.919 2.948-10.662 2.469-14.749-6.559-16.292-12.754a9.21 9.21 0 0 1 3.615-1.112c.77-.091 1.58-.151 2.253-.184 1.196-.918 2.981-4.678 3.374-10.514l.503.135 8.402 2.303s-.384 2.676-.573 5.205c-.146 1.979-.167 3.869.205 4.333l1.05.233c1.758 2.988 3.225 6.138 4.382 9.407z" class="D"/><path d="M461.303 166.703l-.575 5.205c-4.76-.466-6.982-5.018-7.83-7.507l8.405 2.302z" fill="#dd9e8f"/><path d="M462.718 169.216s-11.299-.625-10.804-7.668-.626-11.864 6.61-11.764 8.446 2.888 8.844 5.277-1.696 14.134-4.65 14.155z" class="D"/><path d="M467.322 151.122c-1.595-2.242-2.947-1.865-3.724-1.289-5.926-3.841-10.262.897-10.262.897a13.49 13.49 0 0 1-4.962 7.631s1.967 1.42 6.796.539c1.476-.268 2.844-1.207 4.034-2.378a26.4 26.4 0 0 1-4.93 5.217c5.854-2.214 8.693-9.943 8.979-10.761.645.668 1.906 2.114 2.228 3.463.435 1.832 2.306 4.699 3.391 4.65-.007 0 .837-4.603-1.55-7.969z" class="H"/><path d="M439.93 208.891c-1.019-5.226-4.347-26.105-1.019-32.818 1.194-2.412 5.883-2.631 11.029-2.419 1.602 1.035 7.702 4.948 10.208 4.459l.14-.033c1.18-.296 1.629-1.126.64-1.841a22.39 22.39 0 0 1 5.714.349c1.787.338 6.607 2.837 6.607 2.837s-2.427 4.391-6.007 5.908c.61 5.452-.295 7.86-5.946 20.455-4.774 10.647.645 20.232.645 20.232s-28.102 22.627-28.258 11.106c-.116-8.673 7.553-21.558 6.247-28.235z" class="F"/><path d="M463.335 250.624c.755-.086 1.482-.335 2.132-.731s1.204-.928 1.627-1.561l.433-.655c3.2-4.85 4.443-19.699 11.637-35.521 1.752-3.853 8.041-4.545 9.756-8.899 0 0 4.222-14.113-8.078-14.53s-32.949 39.269-33.282 43.43c-.308 4.032-8.135 21.168 15.775 18.467z" class="E"/><path d="M512.231 250.3h-17.509s-.656-2.797.494-4.702c1.019-1.682.628-2.643-.126-4.037.929.404 1.937.595 2.949.558.873-.052 1.797-.448 2.604-.919l4.99 5.249c1.143.825 6.247.532 6.598 3.851z" class="H"/><path d="M441.776 181.546s-2.279 20.765 12.503 25.117 18.975-19.113 7.043-20.794-19.546-4.323-19.546-4.323z" fill="#ebeef2"/><path d="M489.323 192.808c1.056 7.925 5.174 32.902 12.435 45.092 2.344 3.929-5.9 6.134-5.944 6.123-1.106-.292-2.947-2.056-3.794-2.823-5.898-5.321-17.867-20.392-17.867-32.472 0-5.893-.105-17.143 4.173-20.003 2.634-1.762 10.58.939 10.997 4.083z" class="E"/><path d="M452.892 250.3l1.78-2.623c1.348-2.041 2.837-6.06 4.655-11.215 1.899-5.41 4.152-12.065 6.968-18.989.869-2.138 1.793-4.301 2.775-6.461 1.752-3.851 6.572-3.319 8.288-7.673 0 0 6.691-15.094-5.612-15.512s-35.679 40.379-37.022 44.33c-1.48 4.326-8.656 22.287 18.168 18.143z" class="C"/><path d="M499.377 250.3h-17.509s-.656-2.797.494-4.702c1.019-1.682.628-2.643-.126-4.037a6.77 6.77 0 0 0 2.951.558c.871-.052 1.795-.448 2.602-.919l4.99 5.249c1.145.825 6.247.532 6.598 3.851z" fill="#2b478b"/><path opacity=".6" d="M459.317 236.462c1.9-5.41 4.153-12.065 6.969-18.989-.736-5.247-2.328-9.836-4.99-11.685.007 0-6.47 20.076-1.979 30.674z" class="E"/><path d="M479.103 192.247c1.054 7.924 2.539 33.463 9.803 45.653 2.342 3.93-5.9 6.134-5.946 6.123-1.104-.292-2.947-2.056-3.794-2.823-5.898-5.321-17.868-20.392-17.868-32.472 0-5.893 6.903-16.67 11.172-19.53 2.644-1.762 6.214-.096 6.633 3.049z" class="C"/><path d="M464.836 165.165s-1.071-.424-4.075-.179c0 0 .158 1.165 2.376 1.291 1.257.065 1.699-1.112 1.699-1.112z" class="F"/><path d="M517.112 169.573l-3.631-6.559-7.853 21.946 4.634 4.981 6.85-20.368z" fill="#163560"/><path d="M498.158 173.414l-7.302 20.886 19.406-4.359 6.85-20.368-18.954 3.841z" class="E"/><path d="M491.243 193.246l-.34-.594 6.908-19.765.346.527-6.914 19.832z" class="K"/><path d="M497.811 172.887l18.398-3.585.903.271-18.955 3.841-.346-.527z" class="G"/><path d="M517.112 169.573l-3.924-6.24-2.504 7.044 5.525-1.075.903.271z" class="K"/><path d="M503.76 176.439c-.631-.121-1.986-.632-3.357-1.009.41-.319.866-.699.992-1.112.233-.774.407-1.021-.407-.776s-3.668 1.555-3.668 1.555c-1.63.466-3.114 2.766-3.114 2.766s-20.063 7.062-22.479 7.184c-3.723.188-28.587-8.979-28.587-8.979-5.865 1.299-4.548 8.515-2.53 9.79s19.902 7.794 30.489 7.924c5.367.063 24.903-12.507 24.903-12.507s2.281-1.044 4.076-.717 5.951 0 6.847-1.471-2.099-2.443-3.165-2.648z" class="D"/><path d="M455.95 180.595s-2.223 7.046-9.857 8.649c0 0-12.607-3.89-6.33-12.49.004 0 6.212-4.618 16.187 3.841z" class="F"/><path d="M516.786 176.971c.007-.193-.016-.386-.067-.572 0 0-1.797-2.85-2.386-2.967-1.794-.354-1.794 2.012-1.413 3.539a6.16 6.16 0 0 0 1.485 2.633l-.07 2.229c3.026-1.667 2.451-4.862 2.451-4.862z" class="D"/><path d="M357.966 211.681s-3.196 1.955-4.255 5.167c-.194.581-.306 1.185-.333 1.797-.174 4.27 0 13.931 0 13.931l-9.435-4.832-9.41 4.832v-13.094c0-2.476.808-4.895 2.307-6.461.726-.765 1.608-1.34 2.606-1.34h18.52z" class="J"/><path d="M357.966 211.681s-3.196 1.955-4.255 5.167l-18.91.191s.742-4.599 4.655-5.361l18.51.003z" fill="#ed7d2b"/><path d="M172.222 149.178s2.004 8.71 7.845 8.71c5.009 0 11.87-11.337 11.87-11.337l-19.715 2.627z" stroke="#999" class="F L"/><path d="M238.965 278.588l-3.352 1.781s-18.126-19.248-22.483-37.717c-.777-3.298-1.091-6.549-.758-9.635l-.726-2.317-.061-.196-.712-2.277-3.447-10.955-13.455-41.954 22.162-8.03s2.516 5.748 6.133 21.371l1.629 6.76 1.603 9.113c.861 6.199 1.304 12.449 1.327 18.707.014 2.797-.064 5.692-.233 8.685-.121 2.193.205 5.127.815 8.442 2.811 15.183 11.558 38.222 11.558 38.222z" class="C"/><path d="M251.098 287.091h-17.921s-.659-2.86.505-4.808c1.04-1.725.642-2.706-.128-4.131a6.97 6.97 0 0 0 3.026.569c.893-.051 1.836-.466 2.664-.932l5.104 5.361c1.169.848 6.389.545 6.75 3.941z" class="H"/><path d="M225.505 204.518l-13.92 25.988-.712-2.277-3.447-10.954-13.455-41.955 22.162-8.029s2.516 5.747 6.133 21.371a111.48 111.48 0 0 1 1.629 6.759l1.61 9.097z" class="E"/><path d="M193.61 281.474s-1.24 3.049-.072 5.617h9.745s.203-2.317-3.333-5.004c-2.679-2.035-6.34-.613-6.34-.613z" class="H"/><path d="M204.217 83.084c0-.485.256-5.724 8.201-6.188 0 0-3.898.562-4.533 2.298 0 0 2.611-2.191 4.796-1.559s3.552 4.407 3.594 5.659-1.064 5.314-2.432 5.689a4.17 4.17 0 0 1-1.667.044 18.58 18.58 0 0 1 1.113 1.883c3.333 6.447.465 14.043-2.246 13.404-1.734-.41-2.793 2.599-2.793 2.599l-16.678-14.362s5.849-12.885 12.645-9.468z" fill="#2c3a64"/><path d="M193.734 126.735c1.848 1.284 4.166 2.331 7.078 3.016 10.911 2.524 15.091-6.71 16.662-13.052-1.14-.632-2.399-1.02-3.696-1.138a36.66 36.66 0 0 0-2.307-.189c-1.224-.932-3.049-4.785-3.454-10.756l-.512.137-8.611 2.357a91.13 91.13 0 0 0 .586 5.326c.149 2.023.173 3.962-.209 4.428l-1.073.233c-1.794 3.062-3.289 6.289-4.464 9.638z" class="D"/><path d="M198.905 107.114l.587 5.324c4.871-.487 7.133-5.128 8.013-7.692l-8.6 2.368z" fill="#dd9e8f"/><path d="M198.805 111.221s11.216-2.885 9.31-9.852-1.736-12.034-8.979-10.489-7.9 4.585-7.83 7.067 4.532 13.845 7.499 13.274z" class="D"/><path d="M190.58 93.987c1.164-2.564 2.582-2.468 3.492-2.039 5.183-5.039 10.473-1.154 10.473-1.154 2.118 4.792 6.5 6.666 6.5 6.666s-1.689 1.818-6.712 1.902c-1.534.023-3.093-.643-4.52-1.583 1.793 1.684 3.807 3.115 5.986 4.252-6.316-1.054-10.706-8.239-11.157-9.004-.515.799-1.492 2.501-1.543 3.92-.07 1.925.679 5.645-.417 5.813-.002 0-3.828-4.92-2.102-8.773z" fill="#2c3a64"/><path d="M195.58 116.531s18.835-4.58 27.028 2.186l-4.094 57.17-36.841-8.913s1.036-3.618 8.102-13.237 3.992-23.73 5.805-37.206z" class="D"/><path d="M206.561 169.524l-.061.561-.06.576-.848 8.023-3.677 37.558c-.845 9.612-1.382 17.218-1.092 18.439.871 3.676 0 47.611 0 47.611-3.132 1.503-7.878 0-7.878 0s-8.341-39.593-7.173-45.096a18.98 18.98 0 0 0-.782-10.2c-6.468-30.202-5.77-46.94-4.48-54.953a34.03 34.03 0 0 1 1.108-4.894c.121-.411.27-.812.444-1.203 14.284-3.848 24.499 3.578 24.499 3.578z" class="C"/><path d="M225.147 135.023c-.91 6.878-4.548 15.295-5.847 19.824 0 0 2.172 15.728.098 20.044-.166.427-.48.779-.884.993-7.681 3.352-37.597.096-38.868-9.568-.465-3.512 11.404-15.863 12.086-17.362.287-.62.594-2.629-.798-6.794-1.969 6.083-12.843 4.333-12.843 4.333 1.278-2.186 4.457-17.315 8.007-24.145 2.669-5.127 9.796-5.875 9.796-5.875s2.965 4.71 10.138 4.041 8.483-5.065 8.483-5.065 6.363.849 8.323 2.431c.347.278 3.501 8.132 2.309 17.143z" stroke="#999" class="F L"/><path opacity=".2" d="M219.301 154.847s2.171 15.728.098 20.044c-5.586-2.813-12.892-8.885-10.672-18.373 3.226-13.787 16.42-21.497 16.42-21.497-.91 6.88-4.547 15.297-5.846 19.826z" fill="#000"/><path d="M195.938 136.247l12.827 20.609H186.94l-12.221-20.162 21.219-.447z" class="C"/><path d="M208.099 155.821l.221-.72-12.14-19.502-.242.648 12.161 19.574z" class="K"/><path d="M196.18 135.599l-20.56.587-.901.508 21.219-.447.242-.648z" class="G"/><path d="M174.719 136.694l-11.534-6.253 13.445 21.145 10.31 5.27-12.221-20.162z" class="E"/><g class="D"><path d="M235.756 151.143c-1.234.564-4.406 4.305-5.537 4.685-5.09 1.706-26.749-2.832-26.749-2.832l.67-3.799s21.259.564 23.595-.061c.44-.119 2.737-3.717 3.622-4.235l4.399 6.242z"/><path d="M204.142 149.187s-2.56-2.097-4.296-1.615-4.282 2.667-5.227 3.186-3.519 2.378-2.216 3.497 5.353.158 6.968-.7 4.099-.566 4.099-.566l.672-3.802z"/><path d="M200.337 147.502l-3.957-.354c-.84.016-.619.205-.149.865s2.095.916 2.167 1.146 1.939-1.657 1.939-1.657z"/></g><path d="M214.523 115.452s9.239 1.097 11.783 5.064c3.217 5.019 10.809 24.998 10.564 30.033 0 0-5.55 9.46-24.582 7.945 0 0-1.98-6.992 2.023-9.323 0 0 9.775-1.741 10.901-2.734l-3.258-13.591-7.431-17.394z" stroke="#999" class="F L"/><path d="M177.672 144.228c-.286-1.166-2.823-.439-3.679.233-.252.222-.471.479-.65.764l-.063-.527c-.048-.547-.684-1.529-.842-.794s-.419 3.82-.419 3.82c-.03 2.487 1.564 3.51 2.588 2.701s3.354-5.032 3.065-6.197z" class="D"/></g><defs><clipPath id="A"><path d="M0 0h673v289H0z" class="F"/></clipPath></defs></svg>