<svg xmlns="http://www.w3.org/2000/svg" xmlns:xlink="http://www.w3.org/1999/xlink" fill="none" width="555" height="345" viewBox="0 0 555000 345000"><g clip-path="url(#a)"><path d="M71212 224120a11660 11660 0 01 1960-6470 11631 11631 0 01 5218-4288 11610 11610 0 01 6718-663 11639 11639 0 01 9136 9150 11670 11670 0 01-662 6718 11650 11650 0 01-4283 5227 11620 11620 0 01-14682-1450 11650 11650 0 01-3406-8234" fill="#f0ecfb"/><path d="M84085 232869a647 647 0 01-396-108l-234-252-3870-4302a1004 1004 0 01-216-342 2183 2183 0 01-36-450v-648c0-120 36-222 108-306a439 439 0 01 324-120h846c756 0 1338-92 1746-284 408-204 684-474 828-810 156-335 234-725 234-1170 0-420-78-800-234-1134-144-337-408-607-792-811-384-216-924-324-1620-324h-1134a454 454 0 01-306-108 439 439 0 01-126-324v-666c0-120 42-222 126-306s186-124 306-124h7434c120 0 222 42 306 126s126 186 126 306v666c0 132-42 240-126 324a454 454 0 01-306 108h-2862l36-432c660 204 1116 570 1368 1098 252 516 378 1098 378 1746 0 696-150 1326-450 1890s-756 1014-1368 1350c-600 337-1344 530-2232 577l-630 54 198-1026 4626 5220c96 109 144 199 144 270a310 310 0 01-108 253 476 476 0 01-270 72h-1818zm-4446-8154a439 439 0 01-324-126 454 454 0 01-108-306v-666c0-132 42-234 126-306a417 417 0 01 306-120h7434a420 420 0 01 306 130 381 381 0 01 126 306l-18 666c0 120-42 222-126 306a381 381 0 01-300 126h-7420" fill="#ccbef2"/><path d="M117272 204184c9626-327 17164-8406 16838-18046s-8393-17189-18018-16863-17165 8406-16839 18046 8394 17189 18020 16863" fill="#f0ecfb"/><g fill="#ccbef2"><path d="M117483 200393c-261 0-466-56-616-168l-364-392-6020-6692a1555 1555 0 01-336-532 3418 3418 0 01-56-700v-1020c0-184 56-343 168-474a686 686 0 01 504-196h1316c1170 0 2080-150 2710-448 631-317 1060-737 1284-1260 243-522 364-1129 364-1820 0-653-120-1240-365-1764-223-520-633-940-1230-1259-598-336-1438-504-2520-504h-1766a708 708 0 01-475-168 683 683 0 01-196-504v-1036a650 650 0 01 672-672h11566a650 650 0 01 672 671v1037a679 679 0 01-196 504 705 705 0 01-476 168h-4452l56-672c1027 318 1736 887 2128 1708 392 803 588 1708 588 2716 0 1083-233 2063-700 2940s-1175 1578-2127 2100c-933 524-2090 823-3472 897l-980 84 311-1596 7195 8120c151 168 225 308 225 420a482 482 0 01-168 392 739 739 0 01-420 112h-2826zm-6916-12684a682 682 0 01-504-196 705 705 0 01-168-476v-1036c0-205 66-364 196-476a650 650 0 01 476-196h11564a650 650 0 01 476 196c131 112 196 271 196 476l-28 1036a645 645 0 01-196 476 613 613 0 01-487 196H110560"/><path d="M482286 196813 345302 324419l-70523-66892-54104 52976-34565 33736-64061-75 137495-134141 14729-14463 71300 67619 104661-97487 32052 31120" opacity=".5"/><path d="m433260 150329 64558 68032 12911-77646-77469 9614" opacity=".5"/></g><path d="M554424 343135H47215c-318 0-576 357-576 797v271c0 440 258 797 576 797h507210c317 0 575-357 575-797v-270c0-440-258-798-576-798" fill="#2e3552" opacity=".2"/><path d="M160928 338781v3510c-2 276-100 543-276 755a1616 1616 0 01-753 505 1760 1760 0 01-295 70 1690 1690 0 01-284 21H92862c-854 0-1563-570-1605-1282v-3647c43-712 749-1283 1605-1283h66458a1690 1690 0 01 284 21c100 15 198 38 295 69 294 93 556 270 753 506a1190 1190 0 01 276 755" fill="#ffb93e"/><g fill="#ffa412"><path d="M128294 343642H92691a1405 1405 0 01-971-356 1410 1410 0 01-464-926v-3647c31-357 197-688 464-926a1400 1400 0 01 971-357h31231a10887 10887 0 00 4372 6212"/><use xlink:href="#b"/><path d="M150284 337428h-756v6212h756v-6212zm-3065 0h-756v6212h756v-6212zm-4701 0h-755v6212h755v-6212zm-4970 0h-756v6212h756v-6212zm-7616 0h-755v6212h755v-6212zm-7134 0h-756v6212h756v-6212zm-6370 0h-756v6212h756v-6212zm38847 0h-755v6212h755v-6212zm1608 0h-756v6212h756v-6212zm1551 0h-755v6212h755v-6212zm1170 23v6170a1690 1690 0 01-284 21h-471v-6212h471a1690 1690 0 01 284 21zm1048 575v5020a1614 1614 0 01-754 505v-6031c295 93 556 269 754 506"/></g><path d="M153824 332568v3509a1195 1195 0 01-275 754c-198 239-460 415-756 507a1655 1655 0 01-294 70 2060 2060 0 01-282 22H85759c-865 0-1574-571-1618-1283v-3649c46-710 752-1283 1608-1283h66750a1850 1850 0 01 294 70l43 15 40 15 82 32 44 22 43 20 75 40 93 42 60 44 41 30a1410 1410 0 01 116 103 183 183 0 01 32 30l32 35 60 67a1200 1200 0 01 280 778" fill="#ffb93e"/><g fill="#ffa412"><path d="M121189 337430H85586a1410 1410 0 01-1434-1283v-3649a1410 1410 0 01 1435-1283h31231l42 154a10895 10895 0 00 4330 6060"/><use xlink:href="#c"/><path d="M143179 331215h-755v6213h755v-6213"/><use xlink:href="#d"/><path d="M135414 331215h-756v6213h756v-6213zm-4970 0h-756v6213h756v-6213zm-7619 0h-756v6213h756v-6213zm-7134 0h-755v6213h755v-6213zm-6368 0h-756v6213h756v-6213zm38846 0h-756v6213h756v-6213zm1609 0h-756v6213h756v-6213zm1552 0h-756v6213h756v-6213zm1176 21v6172a2060 2060 0 01-282 22h-474v-6215h474a2230 2230 0 01 282 21zm1043 578v5017c-198 239-460 415-756 507v-6031c296 92 558 268 756 507"/></g><path d="M157256 326507v3509a1200 1200 0 01-276 757 1600 1600 0 01-753 504 1760 1760 0 01-295 71 1930 1930 0 01-284 21H89190a1836 1836 0 01-741-154 1370 1370 0 01-569-420 1375 1375 0 01-285-649 600 600 0 01 0-60v-3647c43-712 749-1283 1605-1283h66447a1800 1800 0 01 284 22 1880 1880 0 01 300 68c300 93 562 270 758 507 176 212 274 480 276 754" fill="#ffb93e"/><g fill="#ffa412"><path d="M124623 331369H89020c-230 0-456-53-662-154s-388-248-522-435-220-405-246-634a600 600 0 01 0-60v-3647a1410 1410 0 01 464-926c267-238 614-366 970-357h31228a10890 10890 0 00 4154 6059l218 154zm24547-6215h-756v6213h756v-6213zm-2557 0h-756v6213h756v-6213zm-3066 0h-756v6213h756v-6213zm-4700 0h-756v6213h756v-6213zm-4970 0h-757v6213h756v-6213zm-7619 0h-756v6213h756v-6213"/><path d="M119126 325154h-756v6213h756v-6213zm-6370 0H112000v6213h756v-6213zm38847 0h-755v6213h755v-6213zm1608 0h-756v6213h756v-6213zm1552 0h-756v6213h756v-6213zm1169 24v6174a1915 1915 0 01-283 21h-472v-6221h472c95 1 190 9 283 26zm1058 575v5019a1606 1606 0 01-754 505v-6031a1610 1610 0 01 754 507"/></g><path d="M158849 320295v3508a1190 1190 0 01-276 755c-197 238-460 414-756 506-95 33-193 56-292 70s-190 22-284 22H90783c-854 0-1563-571-1605-1282v-3650c38-658 640-1195 1415-1283h66648c100 1 190 8 290 22s200 38 296 70a1590 1590 0 01 756 507 1190 1190 0 01 276 755h-1" fill="#ffb93e"/><g fill="#ffa412"><path d="M126215 325152H90610a1405 1405 0 01-1432-1283v-3650a1400 1400 0 01 1264-1293 1580 1580 0 01 170-1h31232a10890 10890 0 00 4372 6215zm24547-6211h-756v6213h756v-6213zm-2557 0h-756v6213h756v-6213zm-3066 0h-755v6213h755v-6213zm-4701 0h-755v6213h755v-6213zm-4968 0h-756v6213h756v-6213zm-7620 0h-755v6213h755v-6213"/><path d="M120719 318941h-756v6213h756v-6213zm-6371 0h-755v6213h755v-6213zm38848 0h-756v6213h756v-6213zm1608 0h-756v6213h756v-6213zm1551 0h-755v6213h755v-6213zm1171 22v6170a1803 1803 0 01-284 23h-466v-6204h472c93-2 186 1 278 11zm1047 577v5018c-197 238-460 414-756 506v-6031a1590 1590 0 01 756 507"/></g><path d="M153962 314091v3508a1195 1195 0 01-275 757 1610 1610 0 01-754 504 1760 1760 0 01-295 71H85903c-854 0-1563-570-1605-1283v-3647a510 510 0 01 0-58c64-573 557-1045 1206-1184h47a1770 1770 0 01 348-32h66737a1970 1970 0 01 295 68 1600 1600 0 01 760 507 1190 1190 0 01 280 789" fill="#ffb93e"/><g fill="#ffa412"><path d="M121339 318952H85723a1400 1400 0 01-969-358 1406 1406 0 01-463-925v-3647a560 560 0 01 0-58 1390 1390 0 01 364-777 1380 1380 0 01 751-415h60c84-15 170-22 254-22h31237a10873 10873 0 00 4357 6202h26zm24537-6215h-756v6213h756v-6213zm-2557 0h-760v6213h750v-6213zm-3070 0h-760v6213h754v-6213zm-4700 0h-760v6213h754v-6213zm-4970 0h-760v6213h754v-6213zm-7620 0h-760v6213h755v-6213"/><path d="M115832 312737h-756v6213h756v-6213zm-6370 0h-756v6213h756v-6213zm38847 0h-755v6213h755v-6213zm1608 0h-756v6213h756v-6213zm1552 0h-756v6213h756v-6213zm1169 15v6170a2060 2060 0 01-283 22h-472v-6215h472a1780 1780 0 01 283 20zm1048 584v5017a1593 1593 0 01-753 507v-6031c294 93 556 269 753 507"/></g><path d="M153824 307921v3510c-3 276-100 542-276 755a1600 1600 0 01-756 506 1950 1950 0 01-228 58h-64a1660 1660 0 01-282 20h-66460c-70 0-141 0-213-10h-79c-720-110-1280-641-1319-1261v-3647c45-712 751-1283 1607-1283h66744c100 15 200 39 294 70l43 14 41 15 81 34 87 40 75 40 83 53 62 42 40 32 116 100c12 10 23 20 32 33l32 32 60 68a1210 1210 0 01 280 779" fill="#ffb93e"/><g fill="#ffa412"><path d="M121189 312782H85411a1395 1395 0 01-1260-1272v-3647a1410 1410 0 01 1435-1283h31231l42 154a10880 10880 0 00 4270 6016l60 32zm24545-6213h-755v6213h755v-6213zm-2555 0h-755v6213h755v-6213zm-3067 0h-756v6213h756v-6213zm-4698 0h-756v6213h756v-6213zm-4970 0h-756v6213h756v-6213zm-7620 0h-755v6213h756v-6213"/><path d="M115691 306569h-755v6213h755v-6213zm-6368 0h-756v6213h756v-6213zm38846 0h-756v6213h756v-6213zm1609 0h-756v6213h756v-6213zm1552 0h-756v6213h756v-6213zm1176 22v6161a1777 1777 0 01-282 22h-474v-6213h474c95 2 189 12 282 30zm1043 575v5020a1607 1607 0 01-756 506v-6031c295 92 558 267 756 505"/></g><path d="M157256 301862v3508a1190 1190 0 01-267 755 1605 1605 0 01-754 507 1740 1740 0 01-294 68 1930 1930 0 01-284 24H89190a1850 1850 0 01-741-154 1380 1380 0 01-854-1069v-3710c43-712 749-1282 1605-1282h66447a1930 1930 0 01 284 20 1670 1670 0 01 300 72c301 92 562 268 758 506a1190 1190 0 01 276 755" fill="#ffb93e"/><g fill="#ffa412"><path d="M124623 306723H89020a1490 1490 0 01-662-153 1370 1370 0 01-522-436 1365 1365 0 01-247-633v-3710a1400 1400 0 01 1435-1282h31227a10905 10905 0 00 4154 6061l218 153zm24547-6214h-756v6212h756v-6212zm-2557 0h-756v6212h756v-6212zm-3066 0h-756v6212h756v-6212zm-4700 0h-756v6212h756v-6212zm-4970 0h-757v6212h756v-6212zm-7619 0h-756v6212h756v-6212"/><path d="M119126 300509h-756v6212h756v-6212zm-6370 0H112000v6212h756v-6212zm38847 0h-755v6212h755v-6212zm1608 0h-756v6212h756v-6212zm1552 0h-756v6212h756v-6212zm1169 21v6172a1915 1915 0 01-283 21h-472v-6214h472c95 0 190 7 283 21zm1058 577v5018a1605 1605 0 01-754 507v-6031c295 92 557 268 754 506"/></g><path d="M162686 295649v3511a1193 1193 0 01-275 754 1610 1610 0 01-754 507 1844 1844 0 01-294 68 1800 1800 0 01-284 22H94621c-854 11-1563-560-1605-1272v-3650c40-658 640-1194 1415-1282h66648a1930 1930 0 01 284 20c100 16 199 41 294 72 295 92 557 267 754 505 176 212 273 478 275 754" fill="#ffb93e"/><g fill="#ffa412"><path d="M130054 300509H94442a1406 1406 0 01-971-357 1410 1410 0 01-460-926v-3645a1400 1400 0 01 1270-1283 1620 1620 0 01 169 0h31232a10906 10906 0 00 4380 6211zm24546-6213h-755v6213h755v-6213zm-2557 0h-756v6213h756v-6213zm-3066 0h-755v6213h755v-6213zm-4698 0h-756v6213h756v-6213zm-4970 0h-755v6213h755v-6213zm-7618 0h-755v6213h755v-6213"/><path d="M124556 294296h-755v6213h755v-6213zm-6370 0h-755v6213h755v-6213zm38848 0h-756v6213h756v-6213zm1607 0h-755v6213h755v-6213zm1554 0h-756v6213h756v-6213zm1168 21v6170a1800 1800 0 01-284 22h-461v-6213h472c91 0 183 7 273 21zm1048 575v5020a1605 1605 0 01-754 507v-6031c295 91 557 266 754 504"/></g><path d="M153962 289449v3509a1187 1187 0 01-275 754 1610 1610 0 01-754 507 1990 1990 0 01-294 68c-32 0-62 11-94 13H85903c-854 0-1563-571-1605-1282v-3639c43-712 749-1283 1605-1283h66537c68 0 132 0 199 19a1750 1750 0 01 294 71l140 51 82 39 81 42h13l73 45a1830 1830 0 01 160 118l45 38 27 26 47 49a747 747 0 01 64 75 1190 1190 0 01 297 780" fill="#ffb93e"/><g fill="#ffa412"><path d="M121339 294305H85723a1405 1405 0 01-969-358 1410 1410 0 01-463-925v-3643a1406 1406 0 01 1432-1283h31233l41 143a10880 10880 0 00 4316 6060l26 6zm24537-6213h-756v6213h756v-6213zm-2557 0h-760v6213h750v-6213zm-3070 0h-760v6213h754v-6213zm-4700 0h-760v6213h754v-6213zm-4970 0h-760v6213h754v-6213zm-7620 0h-760v6213h755v-6213"/><path d="M115832 288092h-756v6213h756v-6213zm-6370 0h-756v6213h756v-6213zm38847 0h-755v6213h755v-6213zm1608 0h-756v6213h756v-6213zm1552 0h-756v6213h756v-6213zm1169 21v6170a1670 1670 0 01-283 21h-472v-6212h472a2060 2060 0 01 283 21zm1048 577v5018a1607 1607 0 01-753 507v-6031a1600 1600 0 01 753 506"/></g><path d="M158848 283373v3511a1196 1196 0 01-275 755 1607 1607 0 01-756 506 1835 1835 0 01-293 69 1920 1920 0 01-284 21H90783a1840 1840 0 01-717-143 1372 1372 0 01-883-1084 523 523 0 01 0-56v-3647c38-658 640-1195 1415-1283h66643a1793 1793 0 01 588 92 1600 1600 0 01 755 505c176 212 273 479 275 754" fill="#ffb93e"/><path d="M150762 282022h-756v6213h756v-6213zm-2557 0h-756v6213h756v-6213zm-3066 0h-755v6213h755v-6213zm-4701 0h-755v6213h755v-6213zm-4968 0h-756v6213h756v-6213zm-7620 0h-755v6213h755v-6213zm-7130 0h-757v6213h756v-6213zm-6372 0h-755v6213h755v-6213zm38848 0h-756v6213h756v-6213zm1608 0h-756v6213h756v-6213zm1551 0h-755v6213h755v-6213zm1171 22v6170a1800 1800 0 01-284 21h-466v-6213h472a1850 1850 0 01 278 22zm1047 575v5020a1600 1600 0 01-756 506v-6031c296 90 558 267 756 505" fill="#ffa412"/><path d="M160928 277172v3512a1190 1190 0 01-275 755 1616 1616 0 01-754 506 1650 1650 0 01-294 69c-32 0-62 0-94 13H92856c-854 0-1563-571-1605-1283v-3647c50-712 750-1283 1610-1283h66470c95 0 190 8 284 20a1750 1750 0 01 294 72 1590 1590 0 01 754 507c177 213 275 480 275 759" fill="#ffb93e"/><g fill="#ffa412"><path d="M128294 282031H92691a1406 1406 0 01-1435-1283v-3647a1410 1410 0 01 464-926c266-238 614-366 971-357h31231a10903 10903 0 00 4357 6200l15 13zm24548-6213h-756v6213h756v-6213zm-2558 0h-756v6213h756v-6213zm-3065 0h-756v6213h756v-6213zm-4700 0h-756v6213h755v-6213zm-4968 0h-756v6213h756v-6213zm-7619 0h-755v6213h755v-6213"/><path d="M122798 275818h-756v6213h756v-6213zm-6370 0h-756v6213h756v-6213zm38847 0h-755v6213h755v-6213zm1608 0h-756v6213h756v-6213zm1551 0h-755v6213h755v-6213zm1170 22v6170a1800 1800 0 01-284 21h-471v-6213h471c95 1 190 8 284 22zm1048 568v5018a1625 1625 0 01-754 507v-6031c295 92 557 268 754 506"/></g><path d="M109737 334394c12335-12353 12335-32381 0-44734s-32334-12353-44668 0-12335 32381 0 44734 32334 12353 44668 0" fill="#e2810e"/><path d="M106979 334394c12335-12353 12335-32381 0-44734s-32333-12353-44668 0-12335 32381 0 44734 32334 12353 44668 0" fill="#ffb93e"/><path d="M84646 341220c-6658 0-13110-2312-18257-6542s-8670-10116-9968-16656a28860 28860 0 01 2850-19209 28800 28800 0 01 14370-13040A28740 28740 0 01 93000 284820c6370 1936 11875 6024 15574 11568s5364 12202 4710 18838a28840 28840 0 01-8291 17554 28572 28572 0 01-20347 8440zm0-55920a27031 27031 0 00-15035 4567 27090 27090 0 00-9967 12164 27140 27140 0 00-1540 15659c1044 5257 3622 10086 7407 13876s8607 6372 13857 7417 10691 508 15636-1543a27070 27070 0 00 12144-9983 27120 27120 0 00 4560-15058 27152 27152 0 00-7935-19154 27070 27070 0 00-19127-7945" fill="#ffa412"/><path d="M146203 237110s-3830 5400-7342 5475-8852-2503-8852-2503-3224-7194-1036-10010c0 0 2193-964 4483 738a7030 7030 0 01 1187 1139 3756 3756 0 00 1842 1251c2507 763 5480-1033 6592 701a11760 11760 0 00 1937 2307c370 337 767 642 1190 912zm-49927 38948s13537-32847 37900-33473c0 0 22491 2503 23740 33473h-61640" fill="#ffeddc"/><path d="M127502 243588s9765 2176 12779 898c0 0 454-4090-3657-3517-2816 393-4649-962-5727-1512-1527-778-3794 2420-3395 4131" fill="#db6a1d"/><path d="M136001 237424c-625 468-2542-6614-2542-6614a7030 7030 0 01 1187 1139 3756 3756 0 00 1842 1251c10 207 120 3767-487 4224zm9015-1227c-139 81-4654 2779-5267 2779s3330-5086 3330-5086a11790 11790 0 00 1937 2307" fill="#e5c1a1"/><path d="M109500 266882c-252-214 9578-14495 12285-14600s8791 3130 13193 3547 8673-836 9506 1772 3123 11849 1718 13328-31299 577-36702-4047" fill="#f9ddbf"/><path d="M535205 340218v2403a820 820 0 01-190 515 1105 1105 0 01-517 348 1237 1237 0 01-200 47 1280 1280 0 01-195 15h-45484c-587 0-1067-390-1100-878v-2497c30-488 513-877 1100-877h45484a1420 1420 0 01 195 13 1240 1240 0 01 200 49 1080 1080 0 01 517 346 820 820 0 01 190 516" fill="#ffb93e"/><g fill="#ffa412"><path d="M512871 343538h-24360a960 960 0 01-660-245 964 964 0 01-312-634v-2497a960 960 0 01 319-632 964 964 0 01 663-245h21375a7464 7464 0 00 2985 4253"/><use xlink:href="#e"/><path d="M527919 339292h-517v4252h517v-4252"/><use xlink:href="#f"/><path d="M522604 339292h-517v4252h517v-4252zm-3401 0h-516v4252h516v-4252zm-5215 0h-516v4252h516v-4252zm-4882 0h-516v4252h516v-4252zm-4359 0h-517v4252h517v-4252zm26588 0h-517v4252h517v-4252zm1100 0h-517v4252h517v-4252zm1062 0h-517v4252h517v-4252zm801 15v4230a1570 1570 0 01-194 16h-323V339300h323c64-2 130 0 194 7zm718 395v3434a1105 1105 0 01-517 348v-4128c202 62 382 183 517 346"/></g><path d="M530351 335965v2403a813 813 0 01-190 515 1084 1084 0 01-517 347 1240 1240 0 01-200 49 1584 1584 0 01-194 15h-45493c-587 0-1068-391-1100-880v-2496c30-487 513-878 1100-878h45678c68 10 136 27 200 49h30l29 10 55 22 30 15 30 15 50 28 57 23 42 30 28 20a883 883 0 01 80 70l23 22a150 150 0 01 20 23 433 433 0 01 40 47 810 810 0 01 202 539" fill="#ffb93e"/><g fill="#ffa412"><path d="M508007 339294h-24368a965 965 0 01-665-244 960 960 0 01-317-635v-2497a963 963 0 01 317-634 960 960 0 01 665-244h21373c0 36 21 70 30 104a7453 7453 0 00 2965 4150zm16799-4254h-517v4252h517v-4252zm-1751 0h-517v4252h517v-4252zm-2099 0h-517v4252h517v-4252zm-3215 0h-516v4252h516v-4252zm-3403 0h-517v4252h520v-4252zm-5212 0h-517v4252h517v-4252"/><path d="M504243 335040h-516v4252h516v-4252zm-4361 0h-517v4252h517v-4252zm26589 0h-517v4252h517v-4252zm1100 0h-516v4252h516v-4252zm1064 0h-517v4252h517v-4252zm800 15v4224a1395 1395 0 01-194 13h-322v-4252h322a1260 1260 0 01 194 15zm717 395v3434a1090 1090 0 01-516 346v-4128c202 64 381 185 516 348"/></g><path d="M532699 331818v2403a810 810 0 01-188 515 1090 1090 0 01-516 346 995 995 0 01-201 47 1050 1050 0 01-194 15h-45493a1232 1232 0 01-508-104 940 940 0 01-400-287 954 954 0 01-199-445v-40a370 370 0 01 0-47v-2400a370 370 0 01 0-39c30-488 512-879 1100-879h45482a1600 1600 0 01 195 16 1124 1124 0 01 717 394 820 820 0 01 194 517" fill="#ffb93e"/><g fill="#ffa412"><path d="M510355 335144h-24368a1010 1010 0 01-452-104 947 947 0 01-357-298 930 930 0 01-168-434v-40a370 370 0 01 0-47v-2400a370 370 0 01 0-40 960 960 0 01 979-878h21377a7453 7453 0 00 2842 4148l147 103zm16800-4252h-516v4252h516v-4252zm-1750 0h-516v4252h516v-4252zm-2098 0h-517v4252h517v-4252zm-3215 0h-517v4252h517v-4252zm-3404 0h-516v4252h516v-4252zm-5212 0h-517v4252h517v-4252"/><path d="M506594 330892h-517v4252h517v-4252zm-4363 0h-516v4252h516v-4252zm26589 0h-516v4252h516v-4252zm1102 0h-517v4252h517v-4252zm1063 0h-516v4252h516v-4252zm800 15v4222a1050 1050 0 01-193 15h-324v-4252h324a1570 1570 0 01 194 15zm718 393v3436a1094 1094 0 01-517 346v-4128c202 64 380 184 517 346"/></g><path d="M533781 327566v2400a820 820 0 01-190 518 1080 1080 0 01-510 346 1300 1300 0 01-393 62H487200c-587 0-1067-391-1100-876v-2497c28-451 445-820 970-873h45613a1600 1600 0 01 195 15c68 10 135 26 200 47 202 64 382 184 517 347 120 143 187 324 190 510" fill="#ffb93e"/><g fill="#ffa412"><path d="M511445 330892h-24367a960 960 0 01-664-244 966 966 0 01-318-632v-2497a952 952 0 01 269-591 960 960 0 01 585-282 1140 1140 0 01 117 0h21375a7450 7450 0 00 3003 4246zm16801-4252h-517v4252h517v-4252zm-1750 0h-517v4252h517v-4252zm-2099 0h-516v4252h516v-4252zm-3217 0h-517v4252h517v-4252zm-3401 0h-516v4252h516v-4252zm-5215 0h-516v4252h516v-4252"/><path d="M507683 326640h-517v4252h517v-4252zm-4360 0h-516v4252h516v-4252zm26588 0h-516v4252h516v-4252zm1100 0h-517v4252h517v-4252zm1062 0h-516v4252h516v-4252zm801 9v4222a1260 1260 0 01-194 15h-323v-4237h323a1050 1050 0 01 194 0zm717 399v3436a1080 1080 0 01-517 346v-4128a1080 1080 0 01 517 346"/></g><path d="M530436 323320v2401a813 813 0 01-188 517 1090 1090 0 01-516 346 1010 1010 0 01-200 47h-45680c-587 0-1067-390-1099-876a400 400 0 01 0-49v-2400a370 370 0 01 0-48v-39a1000 1000 0 01 282-537 997 997 0 01 542-275h34a1370 1370 0 01 240-20h45675a1140 1140 0 01 200 46 1100 1100 0 01 517 346 820 820 0 01 192 541" fill="#ffb93e"/><g fill="#ffa412"><path d="M508100 326648h-24367a960 960 0 01-980-876 400 400 0 01 0-49v-2400a370 370 0 01 0-48v-39a953 953 0 01 762-816h43a827 827 0 01 172-15h21375a150 150 0 01 0 30 7460 7460 0 00 2976 4216l19-3zm16801-4254h-516v4252h516v-4252zm-1750 0h-517v4252h516v-4252zm-2099 0h-517v4252h517v-4252zm-3214 0h-517v4252h520v-4252zm-3403 0h-517v4252h517v-4252zm-5213 0h-517v4252h517v-4252"/><path d="M504337 322394h-517v4252h517v-4252zm-4358 0h-517v4252h517v-4252zm26587 0h-516v4252h516v-4252zm1101 0h-517v4252h517v-4252zm1064 0h-517v4252h517v-4252zm800 15v4222a1050 1050 0 01-194 15h-324v-4252h324a1260 1260 0 01 194 15zm717 391v3436a1090 1090 0 01-517 346v-4128c202 64 380 184 517 346"/></g><path d="M530351 319098v2400a820 820 0 01-190 518 1094 1094 0 01-517 346 1220 1220 0 01-155 40h-43a1260 1260 0 01-194 16h-45495a1137 1137 0 01-143 0h-54a1000 1000 0 01-903-855v-2498c30-487 513-878 1100-878h45678c68 10 135 26 200 47h59l55 20 60 30 50 27 57 36 42 30 28 19a606 606 0 01 80 70l22 22 22 22c15 15 28 32 40 47a820 820 0 01 200 540" fill="#ffb93e"/><g fill="#ffa412"><path d="M508006 322424h-24489a950 950 0 01-854-870v-2497a963 963 0 01 317-634 960 960 0 01 665-245h21366c10 34 33 70 40 105a7453 7453 0 00 2921 4118l43 23zm16800-4252h-517v4252h517v-4252zm-1751 0h-517v4252h517v-4252zm-2099 0h-517v4252h517v-4252zm-3215 0h-516v4252h516v-4252zm-3403 0h-517v4252h520v-4252zm-5212 0h-517v4252h517v-4252"/><path d="M504243 318172h-516v4252h516v-4252zm-4361 0h-517v4252h517v-4252zm26589 0h-517v4252h517v-4252zm1100 0h-516v4252h516v-4252zm1064 0h-517v4252h517v-4252zm800 15v4222a1260 1260 0 01-194 15h-322v-4252h322a1260 1260 0 01 194 15zm717 393v3436a1090 1090 0 01-516 346v-4128c201 63 381 184 516 346"/></g><path d="M532699 314950v2401a813 813 0 01-188 517 1093 1093 0 01-516 347c-66 21-133 36-201 47s-129 15-194 14h-45493a1265 1265 0 01-508-104 947 947 0 01-400-288 940 940 0 01-199-443v-43a370 370 0 01 0-47v-2401a370 370 0 01 0-47c30-487 512-880 1100-880h45482a1280 1280 0 01 195 16 1137 1137 0 01 717 383 810 810 0 01 194 517" fill="#ffb93e"/><g fill="#ffa412"><path d="M510355 318276h-24368a1040 1040 0 01-452-104 937 937 0 01-356-299 930 930 0 01-170-432v-43a370 370 0 01 0-47v-2401a370 370 0 01 0-47 964 964 0 01 310-634 960 960 0 01 661-245h21377a7450 7450 0 00 2840 4148l147 104zm16800-4252h-516v4252h516v-4252zm-1750 0h-516v4252h516v-4252zm-2098 0h-517v4252h517v-4252zm-3215 0h-517v4252h517v-4252zm-3404 0h-516v4252h516v-4252zm-5212 0h-517v4252h517v-4252"/><path d="M506594 314024h-517v4252h517v-4252zm-4363 0h-516v4252h516v-4252zm26589 0h-516v4252h516v-4252zm1102 0h-517v4252h517v-4252zm1063 0h-516v4252h516v-4252zm800 11v4222a1050 1050 0 01-193 15h-324v-4237h324c65-5 130-5 194 0zm718 398v3435a1096 1096 0 01-517 347v-4129c202 63 382 184 517 347"/></g><path d="M536409 310698v2401a820 820 0 01-190 517 1075 1075 0 01-517 346 1237 1237 0 01-200 47 1060 1060 0 01-195 15h-45484c-587 0-1067-391-1100-878v-2495c28-450 443-818 970-872h45614a1270 1270 0 01 195 15 1350 1350 0 01 200 47c203 63 382 183 517 347 120 143 187 324 190 510" fill="#ffb93e"/><g fill="#ffa412"><path d="M514073 314035h-24367a964 964 0 01-665-245 960 960 0 01-317-634v-2495a950 950 0 01 273-593 957 957 0 01 590-280 1160 1160 0 01 119 0h21375a7450 7450 0 00 2992 4247zm16799-4265h-517v4252h517v-4252zm-1748 0h-517v4252h517v-4252zm-2100 0h-515v4252h516v-4252zm-3216 0h-517v4252h520v-4252zm-3401 0h-516v4252h516v-4252zm-5215 0h-516v4252h516v-4252"/><path d="M510310 309770h-517v4252h517v-4252zm-4359 0h-516v4252h516v-4252zm26588 0h-517v4252h517v-4252zm1100 0h-517v4252h517v-4252zm1062 0h-516v4252h516v-4252zm801 17v4222a1050 1050 0 01-194 15h-323v-4252h323a1260 1260 0 01 194 15zm717 400v3420a1100 1100 0 01-517 347v-4128c204 66 384 192 517 360"/></g><path d="M530436 306452v2401a813 813 0 01-188 517 1100 1100 0 01-516 346 1277 1277 0 01-200 48h-45680c-587 0-1067-392-1099-879a370 370 0 01 0-47v-2401a400 400 0 01 0-50c30-485 512-876 1100-876h45541a1274 1274 0 01 434 96l55 26 56 30 38 30a875 875 0 01 110 80 200 200 0 01 30 29l20 17c13 10 23 22 33 34l44 49a820 820 0 01 210 550" fill="#ffb93e"/><g fill="#ffa412"><path d="M508101 309778h-24368a953 953 0 01-666-241 960 960 0 01-320-633 370 370 0 01 0-47v-2401a400 400 0 01 0-49 965 965 0 01 980-877h21375c0 33 20 65 30 100a7427 7427 0 00 2954 4146l15 2zm16800-4254h-516v4252h516v-4252zm-1751 0h-516v4252h516v-4252zm-2098 0h-517v4252h517v-4252zm-3214 0h-517v4252h520v-4252zm-3403 0h-517v4252h517v-4252zm-5213 0h-517v4252h517v-4252"/><path d="M504337 305524h-517v4252h517v-4252zm-4358 0h-517v4252h517v-4252zm26587 0h-516v4252h516v-4252zm1101 0h-517v4252h517v-4252zm1064 0h-517v4252h517v-4252zm800 17v4218a1050 1050 0 01-194 15h-324v-4248h324a1260 1260 0 01 194 15zm717 394v3435a1100 1100 0 01-517 346v-4128c203 63 382 183 517 347"/></g><path d="M533781 302296v2403a820 820 0 01-190 517 1120 1120 0 01-510 347 1274 1274 0 01-200 47 1570 1570 0 01-192 15H487200a1270 1270 0 01-491-99 938 938 0 01-605-742 240 240 0 01 0-38v-2497c28-451 444-820 970-870h45613a1153 1153 0 01 395 62c202 62 382 183 517 346a813 813 0 01 185 509" fill="#ffb93e"/><g fill="#ffa412"><path d="M511446 305625h-24368a1047 1047 0 01-440-99 943 943 0 01-538-742 240 240 0 01 0-38v-2497a955 955 0 01 271-590 950 950 0 01 583-291 1160 1160 0 01 118 0h21375a7460 7460 0 00 2850 4148l150 99zm16800-4255h-517v4252h517v-4252zm-1750 0h-517v4252h517v-4252zm-2099 0h-516v4252h516v-4252zm-3217 0h-517v4252h517v-4252zm-3401 0h-516v4252h516v-4252zm-5215 0h-516v4252h516v-4252"/><path d="M507683 301370h-517v4252h517v-4252zm-4360 0h-516v4252h516v-4252zm26588 0h-516v4252h516v-4252zm1100 0h-517v4252h517v-4252zm1062 0h-516v4252h516v-4252zm801 15v4225a1570 1570 0 01-194 15h-323v-4253h323c65 0 130 4 194 13zm717 396v3433a1100 1100 0 01-517 349v-4129c203 63 382 183 517 347"/></g><path d="M535205 298050v2403a813 813 0 01-190 515 1090 1090 0 01-517 347 1134 1134 0 01-201 49h-45678c-587 0-1067-391-1100-879v-2497c30-487 513-876 1100-876h45484c65 0 130 4 194 12a1230 1230 0 01 200 50 1080 1080 0 01 518 346 820 820 0 01 190 530" fill="#ffb93e"/><g fill="#ffa412"><path d="M512870 301379h-24359a960 960 0 01-664-245 964 964 0 01-318-634v-2497a960 960 0 01 982-876h21375a7450 7450 0 00 2990 4245l-6 7"/><use xlink:href="#g"/><path d="M527919 297124h-517v4253h517v-4253zm-2098 0h-516v4253h516v-4253zm-3217 0h-517v4253h517v-4253zm-3401 0h-516v4253h516v-4253zm-5215 0h-516v4253h516v-4253zm-4882 0h-516v4253h516v-4253zm-4359 0h-517v4253h517v-4253zm26588 0h-517v4253h517v-4253zm1100 0h-517v4253h517v-4253zm1062 0h-517v4253h517v-4253zm801 22v4224a1260 1260 0 01-194 15h-323v-4252h323c65 0 130 4 194 13zm718 389v3433a1090 1090 0 01-517 347v-4127a1090 1090 0 01 517 347"/></g><path d="M477025 339916v2647a893 893 0 01-213 569 1180 1180 0 01-568 382 1410 1410 0 01-213 52 1530 1530 0 01-214 17h-50142c-640 0-1178-428-1210-969a434 434 0 01 0-50v-2648a470 470 0 01 0-53c32-537 563-967 1210-967h50136c71 0 143 5 213 15a1560 1560 0 01 214 54c222 68 419 201 568 380a900 900 0 01 219 570" fill="#ffb93e"/><g fill="#ffa412"><path d="M452406 343583h-26870a1070 1070 0 01-1080-970 434 434 0 01 0-50v-2647a470 470 0 01 0-53 1070 1070 0 01 1080-967h23563a8217 8217 0 00 3307 4687"/><use xlink:href="#h"/><path d="M468995 338894h-570v4689h570v-4689zm-2315 0h-570v4689h570v-4689zm-3543 0h-570v4689h570v-4689zm-3751 0h-570v4689h570v-4689zm-5746 0h-570v4689h570v-4689zm-5382 0h-570v4689h570v-4689zm-4805 0h-570v4689h570v-4689zm29308 0h-559v4689h571v-4689zm1223 0h-570v4689h570v-4689zm1171 0h-570v4689h570v-4689zm882 17v4655a1530 1530 0 01-214 17h-354v-4687h354a1530 1530 0 01 215 15zm790 434v3786a1180 1180 0 01-568 383v-4549a1190 1190 0 01 568 380"/></g><path d="M471666 335228v2646a900 900 0 01-214 571 1200 1200 0 01-568 381 1410 1410 0 01-213 53 1393 1393 0 01-214 17h-50142c-641 0-1179-427-1211-968a486 486 0 01 0-54v-2646a450 450 0 01 0-52c32-536 566-968 1211-968h50351c73 10 144 28 214 50h30l32 14 60 24 36 17 30 15 57 30 62 38 47 32 32 24c30 24 60 49 88 77a250 250 0 01 23 23l24 24 45 53a900 900 0 01 220 599" fill="#ffb93e"/><g fill="#ffa412"><path d="M447046 338896h-26862a1066 1066 0 01-1080-1022v-2646a450 450 0 01 0-52c26-268 151-516 351-696a1070 1070 0 01 729-272h23562c0 38 21 77 34 115a8190 8190 0 00 3266 4573"/><use xlink:href="#i"/><path d="M463634 334208h-570v4686h570v-4686zm-2313 0h-570v4686h570v-4686zm-3546 0h-570v4686h570v-4686zm-3749 0h-570v4686h570v-4686zm-5747 0h-570v4686h570v-4686zm-5382 0h-570v4686h570v-4686zm-4805 0h-570v4686h570v-4686zm29306 0h-570v4686h570v-4686zm1215 0h-570v4686h570v-4686zm1169 0h-570v4686h570v-4686zm884 17v4654a1380 1380 0 01-213 17h-354v-4688h354a1380 1380 0 01 213 17zm790 434v3780a1206 1206 0 01-567 380v-4550a1230 1230 0 01 568 381"/></g><path d="M474254 330657v2647a903 903 0 01-213 568 1220 1220 0 01-570 383 1210 1210 0 01-214 50 1380 1380 0 01-213 18h-50138a1367 1367 0 01-560-115 1040 1040 0 01-640-806 370 370 0 01 0-47v-2751c34-537 566-967 1212-967h50136a1530 1530 0 01 214 15c72 12 144 30 213 54 223 69 421 200 570 380a910 910 0 01 203 570" fill="#ffb93e"/><g fill="#ffa412"><path d="M449635 334323h-26859a1107 1107 0 01-892-443 1038 1038 0 01-186-478 370 370 0 01 0-47v-2751c26-268 152-517 352-696a1070 1070 0 01 730-271h23561a8235 8235 0 00 3145 4570l159 116"/><use xlink:href="#j"/><path d="M466224 329635h-570v4688h570v-4688zm-2312 0h-570v4688h570v-4688zm-3546 0h-570v4688h570v-4688zm-3748 0h-570v4688h570v-4688zm-5749 0h-570v4688h559v-4688zm-5382 0h-570v4688h570v-4688zm-4805 0h-570v4688h570v-4688zm29308 0h-570v4688h570v-4688zm1212 0h-570v4688h570v-4688zm1172 0h-570v4688h570v-4688zm880 17v4654a1380 1380 0 01-212 17h-356v-4681h356c70-2 143 1 213 10zm793 434v3786a1220 1220 0 01-570 383v-4549c223 69 420 201 570 380"/></g><path d="M475458 325969v2646a900 900 0 01-214 571 1190 1190 0 01-568 381 1410 1410 0 01-213 53 1393 1393 0 01-214 17h-50142c-641 0-1179-427-1211-968a486 486 0 01 0-54v-2646a450 450 0 01 0-52c30-498 487-902 1068-962h50279c71 1 143 6 213 17a1420 1420 0 01 214 52c222 69 420 202 568 382a896 896 0 01 220 563" fill="#ffb93e"/><g fill="#ffa412"><path d="M450838 329641h-26861a1060 1060 0 01-730-272 1073 1073 0 01-351-696 470 470 0 01 0-53v-2647a434 434 0 01 0-51c20-247 127-479 301-655a1050 1050 0 01 651-307h23692a8210 8210 0 00 3298 4681zm18515-4694h-570v4688h570v-4688zm-1928 0h-570v4688h570v-4688zm-2313 0h-570v4688h570v-4688zm-3544 0h-570v4688h570v-4688zm-3750 0h-570v4688h570v-4688zm-5747 0h-559v4688h571v-4688"/><path d="M446690 324947h-570v4688h570v-4688zm-4807 0h-570v4688h570v-4688zm29308 0h-570v4688h570v-4688zm1213 0h-570v4688h570v-4688zm1170 0h-570v4688h570v-4688zm883 17v4656c-70 10-142 15-213 15h-354v-4686h354a1890 1890 0 01 213 15zm791 436v3786c-148 180-346 312-568 381v-4550c223 69 420 202 568 383"/></g><path d="M471769 321289v2646a915 915 0 01-213 571 1210 1210 0 01-570 381c-70 24-141 42-214 53h-50360c-640 0-1180-427-1212-966v-2754a294 294 0 01 0-42 1100 1100 0 01 907-892h39a1530 1530 0 01 262-23h50362c73 12 144 30 214 53 223 70 421 202 570 383 140 164 216 374 215 590" fill="#ffb93e"/><g fill="#ffa412"><path d="M447151 324955h-26859a1060 1060 0 01-730-271 1063 1063 0 01-352-695v-2765a294 294 0 01 0-41c27-220 123-425 273-586a1040 1040 0 01 566-312h47a1020 1020 0 01 192-15h23565v32a8204 8204 0 00 3280 4648l18-5zm18519-4688h-570v4688h570v-4688zm-1931 0h-570v4688h570v-4688zm-2320 0h-570v4688h570v-4688zm-3547 0h-570v4688h570v-4688zm-3749 0h-571v4688h570v-4688zm-5749 0h-570v4688h570v-4688"/><path d="M443003 320267h-570v4688h570v-4688zm-4806 0h-570v4688h570v-4688zm29308 0h-570v4688h570v-4688zm1212 0h-570v4688h570v-4688zm1172 0h-570v4688h570v-4688zm881 17v4654c-70 11-142 16-213 15h-357v-4686h357a1380 1380 0 01 213 17zm793 436v3790a1205 1205 0 01-570 380v-4548c223 68 421 199 570 378"/></g><path d="M471665 316635v2646a900 900 0 01-213 571 1206 1206 0 01-568 381 1320 1320 0 01-175 45h-47c-71 10-142 15-213 15h-50134a1353 1353 0 01-156 0h-60c-546-82-967-475-995-950a470 470 0 01 0-53v-2647a434 434 0 01 0-50c32-540 566-970 1210-970h50352a1560 1560 0 01 214 54h62l59 26c23 10 45 20 67 32l57 30 62 38 47 32 32 24c30 24 60 49 88 77a100 100 0 01 23 23l24 24a465 465 0 01 45 53 895 895 0 01 219 599" fill="#ffb93e"/><g fill="#ffa412"><path d="M447046 320301h-26994a1045 1045 0 01-648-307 1050 1050 0 01-300-653 470 470 0 01 0-53v-2647a434 434 0 01 0-51c26-268 151-517 351-696a1070 1070 0 01 729-273h23560c0 39 23 77 35 116a8194 8194 0 00 3210 4538l47 26zm18516-4688h-570v4688h570v-4688zm-1928 0h-570v4688h570v-4688zm-2313 0h-570v4688h570v-4688zm-3546 0h-570v4688h570v-4688zm-3749 0h-570v4688h570v-4688zm-5747 0h-570v4688h570v-4688"/><path d="M442897 315613h-570v4688h570v-4688zm-4805 0h-570v4688h570v-4688zm29306 0h-570v4688h570v-4688zm1215 0h-570v4688h570v-4688zm1169 0h-570v4688h570v-4688zm884 17v4656c-70 10-142 15-213 15h-354v-4686h354a1890 1890 0 01 213 15zm790 436v3786a1206 1206 0 01-567 381v-4550a1200 1200 0 01 568 383"/></g><path d="M474255 312064v2647a904 904 0 01-214 568 1225 1225 0 01-570 383 1270 1270 0 01-213 51 1390 1390 0 01-213 17h-50140a1400 1400 0 01-558-115 1040 1040 0 01-426-320 1045 1045 0 01-214-486 370 370 0 01 0-47v-2752c34-536 565-968 1212-968h50136c72 0 143 6 214 17s144 28 213 54c223 69 420 200 570 380a906 906 0 01 203 570" fill="#ffb93e"/><g fill="#ffa412"><path d="M449635 315730h-26859a1140 1140 0 01-500-115 1030 1030 0 01-392-329 1034 1034 0 01-186-477 370 370 0 01 0-47v-2752a1070 1070 0 01 351-696c201-180 462-277 731-272h23561a8240 8240 0 00 3145 4573l159 115zm18519-4688h-570v4686h570v-4686zm-1930 0h-570v4686h570v-4686zm-2312 0h-570v4686h570v-4686zm-3546 0h-570v4686h570v-4686zm-3748 0h-570v4686h570v-4686zm-5749 0h-570v4686h559v-4686"/><path d="M445487 311042h-570v4686h570v-4686zm-4805 0h-570v4686h570v-4686zm29308 0h-570v4686h570v-4686zm1212 0h-570v4686h570v-4686zm1172 0h-570v4686h570v-4686zm881 17v4654a1380 1380 0 01-213 17h-356v-4688h356a1380 1380 0 01 213 17zm792 434v3786a1227 1227 0 01-570 383v-4550c223 70 420 202 570 380"/></g><path d="M478351 307376v2646a917 917 0 01-213 571c-150 179-348 311-570 381a1287 1287 0 01-427 68h-50130c-640 0-1180-428-1212-966v-2754c32-496 489-902 1067-960h50279a1530 1530 0 01 214 15c72 13 144 30 213 54a1190 1190 0 01 570 382 904 904 0 01 218 563" fill="#ffb93e"/><g fill="#ffa412"><path d="M453731 311042h-26859a1070 1070 0 01-1082-966v-2754c21-247 128-478 303-654a1050 1050 0 01 651-306h23689a8223 8223 0 00 3298 4680zm18520-4688h-570v4688h570v-4688zm-1929 0h-570v4688h570v-4688zm-2314 0h-570v4688h570v-4688zm-3545 0h-570v4688h570v-4688zm-3750 0h-568v4688h569v-4688zm-5745 0h-570v4688h570v-4688"/><path d="M449587 306354h-570v4688h570v-4688zm-4807 0h-570v4688h570v-4688zm29307 0h-570v4688h570v-4688zm1213 0h-570v4688h570v-4688zm1171 0h-570v4688h570v-4688zm881 17v4656c-70 10-142 15-213 15h-357v-4686h357c70-1 143 4 213 15zm792 436v3786a1214 1214 0 01-570 380v-4550a1190 1190 0 01 570 384"/></g><path d="M471770 302704v2647a910 910 0 01-214 569 1200 1200 0 01-570 382 1580 1580 0 01-213 54h-50360c-641 0-1181-428-1213-967v-2738c32-537 566-967 1213-967h50208l150 15a1580 1580 0 01 220 54c39 10 70 23 108 38l60 28 63 32h10c20 10 37 20 54 32a1370 1370 0 01 123 90l34 30 20 19a333 333 0 01 37 39l49 53a920 920 0 01 233 590" fill="#ffb93e"/><g fill="#ffa412"><path d="M447150 306362h-26859a1067 1067 0 01-1082-966v-2745a1070 1070 0 01 352-696c201-179 461-276 730-270h23561c0 34 19 70 30 106a8197 8197 0 00 3257 4573l10-2zm18520-4688h-570v4686h570v-4686zm-1931 0h-581v4686h570v-4686zm-2323 0h-570v4686h570v-4686zm-3544 0h-570v4686h570v-4686zm-3750 0h-570v4686h570v-4686zm-5748 0h-570v4686h570v-4686"/><path d="M443003 301674h-570v4686h570v-4686zm-4806 0h-570v4686h570v-4686zm29308 0h-570v4686h570v-4686zm1212 0h-570v4686h570v-4686zm1172 0h-570v4686h570v-4686zm881 17v4648c-70 10-142 15-213 15h-357v-4687h357c70 3 143 11 213 24zm793 434v3786a1196 1196 0 01-570 383v-4550c223 69 421 202 570 380"/></g><path d="M475456 298116v2647a893 893 0 01-213 569 1177 1177 0 01-568 382 1560 1560 0 01-214 54c-70 10-142 15-213 15h-50142c-186 0-369-36-541-107a1047 1047 0 01-668-820v-40a470 470 0 01 0-53v-2647a470 470 0 01 0-53c30-496 487-902 1068-960h50279c70 0 142 5 213 15a1760 1760 0 01 214 53c222 69 420 202 567 383a890 890 0 01 218 562" fill="#ffb93e"/><g fill="#ffa412"><path d="M450836 301783h-26861c-166 0-331-36-482-107a1036 1036 0 01-596-820v-40a486 486 0 01 0-53v-2647a470 470 0 01 0-53c21-247 128-478 302-654a1050 1050 0 01 650-306h23691a8230 8230 0 00 3140 4573c45 36 103 73 156 107"/><use xlink:href="#k"/><path d="M467425 297094h-570v4687h570v-4687zm-2313 0h-570v4687h570v-4687zm-3544 0h-570v4687h570v-4687zm-3750 0h-570v4687h570v-4687zm-5747 0h-559v4687h571v-4687zm-5370 0h-570v4687h570v-4687zm-4808 0h-569v4687h571v-4687zm29310 0h-570v4687h570v-4687zm1212 0h-570v4687h570v-4687zm1170 0h-570v4687h570v-4687zm882 18v4656a1480 1480 0 01-212 15h-354v-4686h354c71-1 143 4 213 15zm792 434v3786a1177 1177 0 01-568 382v-4549c222 69 420 201 568 381"/></g><path d="M477026 293437v2640a890 890 0 01-214 568 1174 1174 0 01-568 383c-69 23-141 40-213 50h-50356c-640 0-1178-426-1210-965a470 470 0 01 0-53v-2647a470 470 0 01 0-53c32-537 563-967 1210-967h50136a1199 1199 0 01 427 70 1190 1190 0 01 568 380 910 910 0 01 220 594" fill="#ffb93e"/><g fill="#ffa412"><path d="M452406 297103h-26870a1070 1070 0 01-1080-966 486 486 0 01 0-54v-2646a486 486 0 01 0-54 1070 1070 0 01 351-695c200-179 461-276 729-270h23563a8215 8215 0 00 3287 4680l20 5zm18518-4688h-570v4688h570v-4688zm-1929 0h-570v4688h570v-4688zm-2315 0h-570v4688h570v-4688zm-3543 0h-570v4688h570v-4688zm-3751 0h-570v4688h570v-4688zm-5746 0h-570v4688h570v-4688"/><path d="M448258 292415h-570v4688h570v-4688zm-4805 0h-570v4688h570v-4688zm29308 0h-570v4688h570v-4688zm1220 0h-570v4688h570v-4688zm1174 0h-570v4688h570v-4688zm882 27v4655a1530 1530 0 01-214 17h-354v-4687h354a1530 1530 0 01 215 15zm790 428v3786a1186 1186 0 01-568 383v-4554c223 70 420 204 568 385"/></g><path d="M478351 288808v2647a910 910 0 01-213 571c-150 179-348 311-570 380a1315 1315 0 01-427 70h-50130c-640 0-1180-427-1211-968v-2751c32-496 489-902 1067-962h50279a1393 1393 0 01 427 68 1210 1210 0 01 570 383 900 900 0 01 218 562" fill="#ffb93e"/><g fill="#ffa412"><path d="M453731 292481h-26859a1060 1060 0 01-730-272 1065 1065 0 01-352-697v-2751c23-246 131-477 305-652a1070 1070 0 01 649-310h23689a8227 8227 0 00 3298 4680zm18520-4688h-570v4688h570v-4688zm-1929 0h-570v4688h570v-4688zm-2314 0h-570v4688h570v-4688zm-3545 0h-570v4688h570v-4688zm-3750 0h-568v4688h569v-4688zm-5745 0h-570v4688h570v-4688"/><path d="M449587 287793h-570v4688h570v-4688zm-4807 0h-570v4688h570v-4688zm29307 0h-570v4688h570v-4688zm1213 0h-570v4688h570v-4688zm1171 0h-570v4688h570v-4688zm881 17v4654a1380 1380 0 01-213 17h-357v-4688h357c70 0 143 5 213 17zm792 434v3786a1205 1205 0 01-570 380v-4549a1210 1210 0 01 570 383"/></g><path d="M471770 284132v2647a920 920 0 01-214 571 1214 1214 0 01-570 381 1300 1300 0 01-213 53h-50360c-641 0-1181-428-1213-966v-2754c32-537 566-966 1213-966h50208c50 0 100 6 150 15a1320 1320 0 01 220 50l108 42 60 27 63 33h10l54 34a960 960 0 01 123 87l34 30a95 95 0 01 20 20l37 38c17 17 32 36 49 56 149 165 232 380 233 602" fill="#ffb93e"/><g fill="#ffa412"><path d="M447150 287799h-26859a1067 1067 0 01-1082-966v-2755c26-268 151-516 352-695a1060 1060 0 01 730-271h23561c0 34 19 70 30 109a8204 8204 0 00 3257 4570l10 7zm18520-4686h-570v4688h570v-4688zm-1931 0h-581v4688h570v-4688zm-2323 0h-570v4688h570v-4688zm-3544 0h-570v4688h570v-4688zm-3750 0h-570v4688h570v-4688zm-5748 0h-570v4688h570v-4688"/><path d="M443003 283113h-570v4688h570v-4688zm-4806 0h-570v4688h570v-4688zm29308 0h-570v4688h570v-4688zm1212 0h-570v4688h570v-4688zm1172 0h-570v4688h570v-4688zm881 17v4654c-70 10-142 15-213 15h-357v-4686h357a1170 1170 0 01 213 17zm793 434v3786a1214 1214 0 01-570 381v-4550c223 69 421 202 570 383"/></g><path d="M475456 279553v2647a900 900 0 01-213 571 1190 1190 0 01-568 380 1315 1315 0 01-427 70h-50142c-186 0-370-36-541-108a1050 1050 0 01-668-819v-41a470 470 0 01 0-53v-2647a434 434 0 01 0-51c30-498 487-902 1068-962h50279a1390 1390 0 01 213 17c73 11 144 28 214 51a1200 1200 0 01 567 383 890 890 0 01 218 562" fill="#ffb93e"/><g fill="#ffa412"><path d="M450836 283222h-26861a1147 1147 0 01-482-109 1040 1040 0 01-406-331 1044 1044 0 01-190-488v-41a470 470 0 01 0-53v-2647a434 434 0 01 0-51c20-247 127-479 301-655a1050 1050 0 01 651-307h23691a8234 8234 0 00 3140 4573l156 109zm18517-4689h-570v4689h570v-4689zm-1928 0h-570v4689h570v-4689zm-2313 0h-570v4689h570v-4689zm-3544 0h-570v4689h570v-4689zm-3750 0h-570v4689h570v-4689zm-5747 0h-559v4689h571v-4689"/><path d="M446690 278533h-570v4689h570v-4689zm-4807 0h-570v4689h570v-4689zm29308 0h-570v4689h570v-4689zm1213 0h-570v4689h570v-4689zm1170 0h-570v4689h570v-4689zm883 13v4654c-70 11-142 16-213 15h-354v-4686h354c72-1 143 5 213 17zm791 439v3786a1190 1190 0 01-568 380v-4549a1180 1180 0 01 568 383"/></g><path d="M477025 274873v2647a900 900 0 01-213 571 1190 1190 0 01-568 380 1580 1580 0 01-213 54h-50356c-640 0-1178-428-1210-967a470 470 0 01 0-53v-2647a470 470 0 01 0-53c32-537 563-966 1210-966h50136a1264 1264 0 01 427 68c223 69 420 202 568 383a887 887 0 01 220 583" fill="#ffb93e"/><g fill="#ffa412"><path d="M452406 278546h-26870a1065 1065 0 01-1080-966 486 486 0 01 0-54v-2646a486 486 0 01 0-54 1070 1070 0 01 1080-966h23563a8215 8215 0 00 3287 4680l20 6zm18518-4695h-570v4687h570v-4687zm-1929 0h-570v4687h570v-4687zm-2315 0h-570v4687h570v-4687zm-3543 0h-570v4687h570v-4687zm-3751 0h-570v4687h570v-4687zm-5746 0h-570v4687h570v-4687"/><path d="M448258 273851h-570v4687h570v-4687zm-4805 0h-570v4689h570v-4689zm29308 0h-570v4687h570v-4687zm1220 0h-570v4687h570v-4687zm1174 0h-570v4687h570v-4687zm882 18v4656a1530 1530 0 01-214 15h-354v-4686h354a1280 1280 0 01 215 15zm790 436v3786a1190 1190 0 01-568 380v-4550c223 70 420 203 568 384"/></g><path d="M475531 264420c12205-12222 12205-32040 0-44262s-31992-12223-44197 0-12205 32040 0 44262 31992 12223 44197 0" fill="#e2810e"/><path d="M472806 264420c12205-12222 12205-32040 0-44262s-31993-12223-44198 0-12204 32040 0 44262 31993 12223 44198 0" fill="#ffb93e"/><path d="M450709 271177c-6588 0-12971-2288-18063-6473s-8577-10009-9863-16479a28550 28550 0 01 2815-19005 28490 28490 0 01 14215-12902 28430 28430 0 01 19161-943c6304 1915 11749 5960 15409 11444s5308 12072 4662 18637a28530 28530 0 01-8202 17368 28270 28270 0 01-9231 6197 28230 28230 0 01-10903 2156zm0-55333c-5296 0-10473 1573-14876 4520s-7835 7134-9862 12034a26850 26850 0 00-1523 15493 26830 26830 0 00 7327 13730 26770 26770 0 00 13710 7340 26730 26730 0 00 15470-1516 26790 26790 0 00 12017-9877 26850 26850 0 00 4513-14898 26873 26873 0 00-7852-18952 26790 26790 0 00-18924-7864zm3919 35094a4734 4734 0 00-68-1657 3420 3420 0 00-698-1364 6510 6510 0 00-1398-1237 17293 17293 0 00-2167-1214 45030 45030 0 01-4000-2202 14156 14156 0 01-2989-2438 8397 8397 0 01-1768-2972 9453 9453 0 01 760-7127 7935 7935 0 01 2208-2455 9836 9836 0 01 3160-1496 13200 13200 0 01 3944-456l557-4704 3770 449-567 4767c1260 304 2461 816 3554 1513a8930 8930 0 01 2570 2455 8940 8940 0 01 1410 3264 11860 11860 0 01 154 4038l-6830-810c210-1759-25-3120-700-4085s-1668-1524-2975-1678a5117 5117 0 00-1866 80 3470 3470 0 00-1359 661 3210 3210 0 00-876 1134 4753 4753 0 00-427 1498 4354 4354 0 00 62 1500 3210 3210 0 00 671 1313 6550 6550 0 00 1411 1240 21720 21720 0 00 2251 1301l3960 2254a14387 14387 0 01 2976 2460 8480 8480 0 01 1766 2992 9460 9460 0 01-777 7168 7804 7804 0 01-2216 2433 9547 9547 0 01-3176 1450 14200 14200 0 01-3965 428l-518 4370-3754-447 514-4348a16040 16040 0 01-3686-1308 10115 10115 0 01-3024-2286 9080 9080 0 01-1895-3400c-415-1324-520-2866-314-4623l6832 810a6796 6796 0 00 130 2653c174 672 507 1292 970 1810a4230 4230 0 00 1558 1068c600 242 1230 402 1872 477a6044 6044 0 00 1980-54 4064 4064 0 00 1495-624c411-284 751-660 992-1096 257-462 420-970 476-1496" fill="#ffa412"/><path d="m344953 145639-9393 17830-4813-1754 1562 4757-9407 28385s-5194-36064 22051-49218" fill="#a9a9a9"/><path d="M329299 161403s-10375 38309-11376 74867c0 0 8607 3006 22128 626 13590-2390-10752-75493-10752-75493" fill="#d9d9d9"/><path d="M279613 214525c2776-51 6706 293 8001-1126 1469-1608 3202-1373 3202-1373l-350-1838-427-2198s-158-199-728-193c0 0-2017 88-2988-256-2348-840-11675 4759-11361 6313 130 582 3467 695 4650 670" fill="#dd9e8f"/><path d="M330471 160651s-15763 32607-20641 36106-22267 11068-22267 11068-455 1084-34 2673c440 1652 1309 2120 1309 2120s24312-2174 29962-5690 18118-17570 18118-17570l-6447-28707" fill="#d9d9d9"/><path d="M376606 343465h9329c1174-641 2222-2099 2562-4276 455-3010 3823-4652 4551-7112s-3006-5927-3006-5927l-623-806-640-838-6190 1460-247 3359a42573 42573 0 00-27 4302c181 3280-916 6817-3830 7456-2170 469-2075 1747-1879 2382zm-54140 0H343800c1027-1253 641-5881 493-7393l-55-481s-7284-5836-8285-1366l-109 413c-1259 4180-6914 6078-10180 6608-2124 344-2908 1450-3198 2220" fill="#233862"/><path d="m326530 224204 2406 30436 4103 55547c363 9120 1823 23709 1823 23709s3458 3465 10379 2005c0 0 6167-20825 7928-42860l84-1088 4186-69665-30910 1916" fill="#424242"/><path d="m326530 224204 2406 30436 24233 38401 84-1088 4186-69665-30910 1916" fill="#141414"/><path d="M331583 225843s19938 50061 33050 73586l17208 30091s7512-3011 8195-5063c0 0-5015-45415-13795-56487-4961-6255-10789-25030-11062-31593s-1776-19560-1776-19560l-31820 9026" fill="#424242"/><path d="M336546 152869c7792 2461 21272-4184 21272-4184s-7183-5400-6807-16626l-6020 4861-4090 3306a49330 49330 0 00 467 5359l292 2012a1447 1447 0 01-654 1454 18433 18433 0 00-4450 3818" fill="#f5b09f"/><path d="M325670 225354c227 198 518 309 819 312 2920-39 11460 1588 18670 855 6085-586 11471-2392 17256-4988 770-346 2538-1282 2498-2150-26-943-120-2307-237-4028-410-5986-1123-16265-427-28133 126-2208 190-4401 198-6559 60-16083-3124-30229-9521-35016 0 0-4462 2506-7551 3496-3025 968-4583 774-6152-270 0 0-3057 1520-4364 2946-3022 3301-5383 7684-6944 13973-1328 5345-2561 13160-2988 23162l-1266 36400" fill="#fff"/><path d="m363512 172212-8577-26573s-20594 7777-21546 36895c-376 6628-1964 33830 912 56365 0 0 16042 6260 35711-6093l-6500-60594" fill="#d9d9d9"/><path d="M340895 140226a49080 49080 0 00 463 5359c4536-780 9679-8124 9679-8124-2308-667-4330-789-6050-543l-4092 3308" fill="#dd9e8f"/><path d="M337520 140012s14034 2336 15353-6440 4015-14383-4889-16247-11154 1222-12304 4044-1776 17811 1840 18643" fill="#f5b09f"/><path d="m399102 253533-28654 4088a6867 6867 0 01-5073-1310 6880 6880 0 01-2674-4512l-1770-12436a6884 6884 0 01 1310-5080 6860 6860 0 01 4505-2678l28654-4090a6863 6863 0 01 5073 1312 6880 6880 0 01 2674 4512l1770 12436c251 1800-220 3626-1310 5080s-2710 2416-4505 2678" fill="#141414"/><path d="m364707 238818 1791 12579a6906 6906 0 00 1339 3190 6890 6890 0 00 2717 2138 6726 6726 0 00 2233 564c498 40 1000 20 1494-50l28605-4090a6890 6890 0 00 4523-2688 6913 6913 0 00 1310-5100l-1790-12582a6910 6910 0 00-2690-4528 6884 6884 0 00-5092-1315l-9847 1404-382-2683a2280 2280 0 00-885-1490 2270 2270 0 00-1677-435l-1080 154-5990 855-1494 215a2270 2270 0 00-1490 885 2273 2273 0 00-432 1680l382 2685-5706 813a6480 6480 0 00-660 128 6895 6895 0 00-4748 4153 6840 6840 0 00-440 3506zm23183-10262-10234 1463-382-2686a860 860 0 01 164-626 853 853 0 01 556-331l2560-368 4717-674 1290-181a900 900 0 01 255 0 850 850 0 01 468 243 854 854 0 01 236 473l380 2687" fill="#393939"/><path d="M377313 216505s1505 2007 1565 2809c404 5437-2077 6200 4347 9208 0 0 2740 1048 2787-1084s-1904-2166-1547-5150c412-3442 370-3474-1885-5272l-1494-2474-3773 1963" fill="#f5b09f"/><path d="M381134 218044a22060 22060 0 01-5042 280l-8112-24250c-931-2028-21324-26056-21324-26056l8279-22379s4854 2845 9988 11715c6342 10959 13314 28605 14552 31472 3704 8575 4989 27792 4989 27792a9250 9250 0 01-3330 1426" fill="#d9d9d9"/><path d="M352883 132730s-1441-241-1209-2228 231-4583-1383-4100-1693 1779-2348 1022-675-3936-5473-4158-6748 1450-8981 468-2360-4363-2360-4363 640 1207 1594 1590c-1 0-3724-5099 586-8596s8706-1208 11200-1056c5499 333 9049 662 10844 4275s1045 13664-2481 17146" fill="#233862"/><path d="M379687 218899s-1449 1514-1541 2138c-295 2021-967 2893-641 3113 703 458 1631-1039 2075-2382s107-2869 107-2869" fill="#f5b09f"/><path d="m354934 145639-9393 17830-4810-1754 1561 4757-9403 28385s-5200-36064 22045-49218" fill="#a9a9a9"/><path d="M336546 135035s546 1447 1921 1486 2421-1283 2421-1283-2976-695-4342-203" fill="#fff"/><path d="m263318 269567 28496-6627a6950 6950 0 00 4303-3090 6963 6963 0 00 878-5229l-2863-12367c-420-1788-1528-3338-3083-4310s-3433-1288-5221-879l-28496 6612c-1786 421-3333 1531-4303 3090s-1286 3438-878 5230l2863 12367c415 1791 1522 3344 3078 4320s3436 1292 5226 883" fill="#141414"/><path d="M288701 239977a6964 6964 0 00-5977-2180 5800 5800 0 00-670 120l-5675 1316-617-2668a2290 2290 0 00-2750-1710l-1480 341-5959 1382-1067 250a2305 2305 0 00-1708 2755l620 2668-9795 2273a6970 6970 0 00-4320 3100 6985 6985 0 00-882 5248l2897 12510a6965 6965 0 00 8325 5207l28417-6604c492-112 970-280 1424-500a6817 6817 0 00 1900-1349 6970 6970 0 00 1777-3007 6980 6980 0 00 95-3492l-2892-12510a6920 6920 0 00-1663-3150h10zm-24535-723a856 856 0 01 107-647 860 860 0 01 534-381l1266-299 4696-1087 2562-594a853 853 0 01 334-11 850 850 0 01 312 118c96 60 178 138 244 229a880 880 0 01 137 306l617 2668-10179 2351-630-2653" fill="#393939"/><path d="M270015 223881s-854 3057-565 4032c2002 6599 5462 10918-3843 9804 0 0 384-383-1396-3741-2056-3874-2021-3930-180-7083l640-3600 5344 588zm11708-7859c-2809-169-6233-907-7472-2392-1415-1687-2828-2138-2828-2138l427-1843 516-2200s170-195 745-163c0 0 2203 499 3021-134s2314-248 3234 365c1172 780 2754 642 2713 1035 0 0-2320 1142-2104 1334 2134 1892 7727 2643 7364 4120-149 580-4419 2090-5616 2016zm-39150-71873v1528s417 4783-5464 5482-10702 607-10544-3083l1518-9659a16530 16530 0 00-213-2863l11395-228 3358 549-50 8274" fill="#f5b09f"/><path d="m242619 135875-45 8274a9650 9650 0 01-4107 906c-5237 0-8623-3848-10392-6638a16530 16530 0 00-214-2863l11395-228 3363 549" fill="#dd9e8f"/><path d="M226993 133718c1323 7125 10505 6892 14471 6443 1117-124 1819-267 1819-267 1259-335 1962-2322 2288-4917 641-5148-171-12705-1037-14638-1309-2910-3770-6054-13022-3786s-6212 8034-4519 17165" fill="#f5b09f"/><path d="M219480 344696h13022a31700 31700 0 00-1037-4677 13373 13373 0 00-740-1875c-1263-2531-9300-922-9300-922s-747 642-1330 3087a26180 26180 0 00-615 4387zm39317-4111c36 1773 258 3451 900 4111h25734c-328-932-1255-2334-3895-2764-3002-485-7685-1924-10414-4825a7780 7780 0 01-2017-3658c-1210-5398-10010 1655-10010 1655a43463 43463 0 00-298 5481" fill="#233862"/><path d="M241680 282230c307 1573 521 3162 640 4761 820 15980 13434 52521 15690 53372 3491 1320 8988-1484 11865-2403 1191-380 1996-1584 1731-2805-6248-28760-8538-70176-9377-94693-427-12350-2541-20883-2541-20883s-30765-8220-30953 2180c-152 9200 10202 45290 12945 60470" fill="#683fdb"/><path d="m241680 282230 20551-41768c-427-12350-2541-20883-2541-20883s-30765-8220-30953 2179c-154 9203 10200 45293 12943 60472" fill="#492c99"/><path d="m248525 221794-16264 118052s-7143 1725-12697 346c0 0-4763-62785-4366-77964s-3416-40620 870-43423 32457 2989 32457 2989" fill="#683fdb"/><path d="M244888 121446c-2541 802-7911-17-10157 1803s-107 4821-2675 5892a1273 1273 0 01-800 61 1270 1270 0 01-675-431c-711-890-1695-1775-2594-1409-738 304-775 1257-450 2185a2563 2563 0 01-276 2332 1285 1285 0 00-280 940c214 1177 797 2705 1010 3488l70 820s-4300-4660-6110-8583c-1245-2691-1220-12750 4860-15692a190 190 0 01-58-66c-134-235-501-182-501-182 523-235 1334-85 1334-85s15-52 90-107c107-710 820-1220 820-1220a2403 2403 0 00-390 963c1598-855 6510-2711 10410-1013a32260 32260 0 00 6693 2076 2790 2790 0 01 1650 1009c412 522 625 1175 600 1840-70 1935-743 4715-2564 5379" fill="#233862"/><path d="m225170 150126 3746 80463s31253 511 30360-6571-11265-71427-11265-71427" fill="#e9f3fe"/><path d="M235474 200529s-1589 21492-4635 34984c0 0-18239 968-22566-6085 0 0 3415-29030 3415-34920 0-2070-160-4883-412-8027-380-4766-967-10286-1526-15092l-1494-12017 15037-12237 12180 53394zm36188 25425s-3403 2138-8752 1418c-1951 4791-6552 6413-6552 5986 0-51-1031-9045-2252-19645l-367-3207c0-92-24-186-32-278l-620-5359-2877-25001c-3202-19606-5904-32564-5904-32564 6830 712 11425 3145 13263 6332 5445 9452 9392 33095 11698 50792a380 380 0 00 17 137l1046 8524 55 479 1277 12386" fill="#683fdb"/><path d="M240029 134881s299 919 2615 583c0 0 1945-282 1800-1306-9 9-1964-560-4415 723" fill="#fff"/><path d="M224285 147039c-38-770 3593-1830 3593-1830s4156 5772 11005 5873c0 0-1952 3803-4251 4788 0 0-10122-4271-10347-8831zm14598 3908s3629-2155 3642-4490c0 0 2348-295 3366 856 0 0 854 4002-280 6326 0-11-5225-800-6728-2692" fill="#d9e9f9"/><path d="m236422 150601 4910-1183s641 56 626 856-1386 3147-1992 3335-4707-1386-3544-3008" fill="#ba4c43"/><path d="M224858 146639c-39-767 2421-2352 2421-2352s4756 5570 11604 5668c0 0-1951 3805-4250 4791 0 4-9547-3545-9775-8107zm14025 3320s3669-1947 3682-4275c0 0 2216 974 3239 2114 0 0 947 2525-193 4851 0-7-5225-804-6728-2690" fill="#e9f3fe"/><path d="M247878 217431a10460 10460 0 01-2476 6050l-2203 2491a1124 1124 0 01-1495 242 1120 1120 0 01-373-403l-2660-4179a6447 6447 0 01-916-3979l1247-15264c354-4806 641-9473 690-12310 147-9063-1038-37937-1038-37937l1768 92s4286 11164 6440 26396c532 3750 931 7744 1108 11881 0 0 762 16491-92 26920" fill="#c65447"/><path d="M247878 217431a10460 10460 0 01-2476 6050l-2203 2491a1124 1124 0 01-1495 242 1120 1120 0 01-373-403l-2660-4179a6447 6447 0 01-916-3979l1247-15264c4955-6803 7025-16146 7860-23759 532 3750 931 7744 1108 11881 0 0 762 16491-92 26920" fill="#ba4c43"/><path d="M227278 144287s9739 40857 8189 56248c0 0-3582-16447-12200-29920 0 0 3147-2768 2976-3790 0 0-2335-693-4600-227 0 0 249-17611 1663-19471s3972-2840 3972-2840zm15288 1390c-1461 118 9653 39925 10477 52684l-880-29332s-4056-2138-4056-2897 4317-2779 4317-2779-2733-14022-4225-15566-5633-2110-5633-2110" fill="#492c99"/><path d="M262908 228992s-675 915-246 3207 192 3564 786 3166 1820-3153 1820-3153l-2360-3220" fill="#f5b09f"/><path d="M234283 206825c-11339-1696-18922-12308-22995-20344-380-4766-967-10286-1526-15092l2653-7583 21868 43019zm36094 6730c-2259 523-9109 1806-16280 154l-367-3207c0-92-23-186-32-278l707-2764 15916 5624c22 159 39 319 56 470" fill="#492c99"/><path d="M223306 147131s-9965 1261-14516 7619 5220 40986 25490 52075c9750 5344 37885 6535 37885 6535s1546 154 2161-2963c213-1088 0-2942 0-2942s-32021-12027-34843-14343-16177-45981-16177-45981" fill="#683fdb"/><path d="m286334 207541-4310-1045c-1120-238-2147-1082-2474-685-608 740 1956 2040 2967 4325 498 1123 1495 1732 3501 909 1010-415 1813-2512 316-3504" fill="#dd9e8f"/><path d="M396775 140108c8021-500 14118-7416 13619-15449a14560 14560 0 00-15426-13638c-8020 499-14117 7416-13618 15448s7405 14138 15425 13639" fill="#ccbef2"/><g fill="#fff"><path d="M391208 119702a4685 4685 0 01 2883-4322 4670 4670 0 01 2699-266 4680 4680 0 01 3670 3675 4683 4683 0 01-1986 4802 4666 4666 0 01-2595 789 4670 4670 0 01-3303-1370 4684 4684 0 01-1368-3308"/><path d="M395879 124375a8170 8170 0 00-5780 2398 8190 8190 0 00-2400 5788h16342a8190 8190 0 00-622-3132 8174 8174 0 00-1770-2656 8190 8190 0 00-2652-1775 8173 8173 0 00-3128-623"/></g><path d="M297868 89025c1246-5284-2022-10578-7298-11825s-10562 2025-11807 7309 2022 10578 7298 11825 10562-2025 11807-7309" fill="#ccbef2"/><g fill="#fff"><path d="M285179 82832a3160 3160 0 01 531-1753 3150 3150 0 01 1414-1162 3150 3150 0 01 4296 2300 3170 3170 0 01-180 1823 3160 3160 0 01-1160 1416 3144 3144 0 01-1750 532 3150 3150 0 01-1207-240 3164 3164 0 01-1705-1708 3150 3150 0 01-240-1208"/><path d="M288330 85988a5510 5510 0 00-3898 1618 5530 5530 0 00-1616 3904h11028a5525 5525 0 00-1615-3904 5510 5510 0 00-3899-1618"/></g><g fill="#ccbef2"><path d="M358321 37421a860 860 0 01 277-412 850 850 0 01 944-90c150 80 271 203 350 352a860 860 0 01-97 950 850 850 0 01-908 278 863 863 0 01-294-160 850 850 0 01-210-258 855 855 0 01-96-320 850 850 0 01 34-332zm3777 1163a860 860 0 01 277-412 853 853 0 01 459-188 850 850 0 01 486 99 860 860 0 01 253 1297 860 860 0 01-413 274 847 847 0 01-496-2 850 850 0 01-293-158 840 840 0 01-211-260 855 855 0 01-62-651zm4396 2252a860 860 0 01-599-736 855 855 0 01 100-486 850 850 0 01 1294-253 850 850 0 01 274 414 864 864 0 01-159 790 853 853 0 01-259 211 850 850 0 01-650 62zm3264 109a860 860 0 01 277-412 853 853 0 01 459-188 850 850 0 01 835 451 860 860 0 01-509 1220 847 847 0 01-496-2 850 850 0 01-293-158 865 865 0 01-306-580 850 850 0 01 33-331zm3780 1165a850 850 0 01 734-600 847 847 0 01 486 99 850 850 0 01 350 352 840 840 0 01 94 487 850 850 0 01-604 732 847 847 0 01-496-2 850 850 0 01-293-158 870 870 0 01-210-260 853 853 0 01-100-320 850 850 0 01 30-331zm4394 2249a860 860 0 01-411-277 853 853 0 01-188-459 860 860 0 01 450-837 857 857 0 01 487-95 850 850 0 01 457 190 860 860 0 01 274 415 855 855 0 01-2 496 850 850 0 01-416 505 855 855 0 01-319 96 850 850 0 01-332-34zm3111 64a850 850 0 01 1221-501 850 850 0 01 349 352 860 860 0 01 95 487 850 850 0 01-191 458 852 852 0 01-909 272 850 850 0 01-293-158 853 853 0 01-210-259 840 840 0 01-96-320 850 850 0 01 34-332zm3778 1163a857 857 0 01 277-412 850 850 0 01 944-90c150 80 271 203 350 352a860 860 0 01-97 945 850 850 0 01-908 273 863 863 0 01-504-417 873 873 0 01-96-320 850 850 0 01 34-332h11zm4396 2249a850 850 0 01-410-278 853 853 0 01-90-946 860 860 0 01 352-349 850 850 0 01 487-94 857 857 0 01 457 192 860 860 0 01 274 414 850 850 0 01-3 497 854 854 0 01-417 503 850 850 0 01-650 61zm3263 111a857 857 0 01 736-600 850 850 0 01 485 99c149 80 271 203 350 352a860 860 0 01 95 487 850 850 0 01-1100 730 860 860 0 01-504-417 847 847 0 01-62-652zm3778 1165a860 860 0 01 277-412 853 853 0 01 459-188 850 850 0 01 486 100 860 860 0 01 253 1300 852 852 0 01-909 278 850 850 0 01-293-158 865 865 0 01-306-580 850 850 0 01 33-332zm4396 2249a850 850 0 01-410-277 853 853 0 01-90-945 860 860 0 01 351-350 850 850 0 01 486-95 860 860 0 01 732 605 855 855 0 01-160 790 860 860 0 01-578 307 850 850 0 01-330-34zm3272 114a857 857 0 01 736-600 850 850 0 01 486 99 860 860 0 01 253 1297 852 852 0 01-909 272 850 850 0 01-293-158 865 865 0 01-307-580 847 847 0 01 34-331zm3781 1165a857 857 0 01 736-600 856 856 0 01 486 99 850 850 0 01 251 1298 855 855 0 01-910 270 850 850 0 01-502-417 853 853 0 01-60-651zm4394 2249a855 855 0 01-410-277 860 860 0 01-189-459 854 854 0 01 98-486 860 860 0 01 352-350 857 857 0 01 487-95 850 850 0 01 457 191 860 860 0 01 274 414 855 855 0 01-2 496 850 850 0 01-416 505 855 855 0 01-319 96 850 850 0 01-332-34zm3263 111a857 857 0 01 277-412 850 850 0 01 1400 750 860 860 0 01-193 458 850 850 0 01-908 273 863 863 0 01-504-417 873 873 0 01-96-320 850 850 0 01 34-330zm3781 1163a860 860 0 01 278-412 853 853 0 01 945-90 850 850 0 01 348 354 860 860 0 01-98 945 855 855 0 01-909 270 855 855 0 01-503-428 860 860 0 01-60-650zm4393 2249a850 850 0 01-411-278 853 853 0 01 264-1295 850 850 0 01 487-94 860 860 0 01 457 193c130 108 225 252 273 414a860 860 0 01-3 497 850 850 0 01-1067 564zm3110 64a860 860 0 01 277-412 853 853 0 01 459-188 850 850 0 01 485 99c149 80 271 203 350 352a860 860 0 01 90 487 850 850 0 01-1100 730 835 835 0 01-508-417 847 847 0 01-62-652zm3781 1165a850 850 0 01 270-412 853 853 0 01 942-90 860 860 0 01 350 354 870 870 0 01 93 488 857 857 0 01-1102 729 855 855 0 01-504-418 860 860 0 01-60-651zm4390 2249a857 857 0 01-418-277 850 850 0 01-188-460 854 854 0 01 98-485 860 860 0 01 352-350 850 850 0 01 486-95 860 860 0 01 732 605 864 864 0 01-160 790 850 850 0 01-909 273zm3260 109a850 850 0 01 1220-501 850 850 0 01 350 352 860 860 0 01 93 487 850 850 0 01-604 732 855 855 0 01-496-2 850 850 0 01-293-158 865 865 0 01-306-580 850 850 0 01 33-331zm3776 1166a860 860 0 01 276-412 850 850 0 01 1294 262 840 840 0 01 95 487 850 850 0 01-1395 572 860 860 0 01-210-259 873 873 0 01-96-320 850 850 0 01 35-332zm4394 2249a860 860 0 01-410-277 853 853 0 01-189-459 850 850 0 01 452-837 857 857 0 01 488-95 850 850 0 01 457 192 855 855 0 01 273 910 850 850 0 01-417 505 855 855 0 01-320 96 850 850 0 01-332-34zm-40186 45224a856 856 0 01 865-1465 853 853 0 01 330 1280 860 860 0 01-246 226 840 840 0 01-313 115 873 873 0 01-334-14 860 860 0 01-303-153zm2338-3196a850 850 0 01-299-397 856 856 0 01-28-496 850 850 0 01 253-427 856 856 0 01 937-144 850 850 0 01 328 1280 856 856 0 01-559 340 850 850 0 01-634-156zm3560-3420a860 860 0 01-890 325 866 866 0 01-428-253 850 850 0 01-214-448 855 855 0 01 70-490 860 860 0 01 332-370 846 846 0 01 480-124 850 850 0 01 468 165 860 860 0 01 182 1195zm1182-3053a857 857 0 01-325-893 850 850 0 01 1190-572 855 855 0 01 328 1280 850 850 0 01-1192 185zm2330-3194a860 860 0 01-299-397 865 865 0 01-28-496 850 850 0 01 700-642 855 855 0 01 983 883 860 860 0 01-165 468 850 850 0 01-1193 184zm3560-3421a850 850 0 01-396 297 853 853 0 01-920-227 850 850 0 01-215-448 855 855 0 01 880-985 850 850 0 01 468 164 860 860 0 01 340 560 854 854 0 01-15 334 860 860 0 01-142 303zm1178-3061a860 860 0 01-297-397 856 856 0 01-26-496 860 860 0 01 253-427 847 847 0 01 447-214 863 863 0 01 860 400 840 840 0 01 123 482 850 850 0 01-1057 794 850 850 0 01-302-142zm2338-3194a850 850 0 01-297-397 864 864 0 01 227-922c124-114 280-190 447-214s337-1 490 70 281 187 370 330a860 860 0 01 122 480 850 850 0 01-410 695 860 860 0 01-315 114 850 850 0 01-635-156zm3562-3421a850 850 0 01-396 298 853 853 0 01-495 27 850 850 0 01-426-253 856 856 0 01 183-1308 850 850 0 01 480-120 860 860 0 01 467 169 870 870 0 01 226 246 880 880 0 01 115 314 854 854 0 01-156 637zm1172-3053a860 860 0 01-324-892 850 850 0 01 1190-571 856 856 0 01 492 811 850 850 0 01-164 468 840 840 0 01-247 226 850 850 0 01-313 114 854 854 0 01-335-15 850 850 0 01-302-142zm2337-3183a850 850 0 01-297-397 857 857 0 01 673-1138 855 855 0 01 491 70 850 850 0 01 492 812 860 860 0 01-165 468 850 850 0 01-557 339 857 857 0 01-635-156zm3560-3421a856 856 0 01-1318 70 860 860 0 01-214-447 863 863 0 01 70-491 860 860 0 01 331-370 854 854 0 01 947 40 840 840 0 01 226 247 860 860 0 01 114 314 854 854 0 01-14 334 850 850 0 01-140 303zm1081-2933a860 860 0 01-298-397 856 856 0 01-28-496 850 850 0 01 252-428 856 856 0 01 937-146 853 853 0 01 370 330 860 860 0 01 124 482 855 855 0 01-164 469 850 850 0 01-245 226 876 876 0 01-313 115 850 850 0 01-635-154zm2335-3196a850 850 0 01-296-397 856 856 0 01 673-1137 850 850 0 01 860 400 856 856 0 01-287 1176 860 860 0 01-315 114 850 850 0 01-333-15 860 860 0 01-303-142zm3562-3421a850 850 0 01-397 299 853 853 0 01-495 28 860 860 0 01-642-699 860 860 0 01 70-492 850 850 0 01 811-494 855 855 0 01 694 410 860 860 0 01 116 313 870 870 0 01-13 333 850 850 0 01-140 303zm1172-3052a860 860 0 01-323-892 850 850 0 01 700-641 855 855 0 01 982 882 850 850 0 01-723 808 854 854 0 01-334-15 850 850 0 01-302-142zm2337-3194a850 850 0 01-297-397 856 856 0 01 672-1138 855 855 0 01 982 882 850 850 0 01-1359 653zm3561-3421a850 850 0 01-397 297 851 851 0 01-920-227 860 860 0 01-215-447 855 855 0 01 70-491 860 860 0 01 331-370 850 850 0 01 946 40 860 860 0 01 340 560 854 854 0 01-14 335 870 870 0 01-140 303zm-34087 68245a850 850 0 01 65-492 863 863 0 01 327-373 860 860 0 01 948 32 865 865 0 01 302 394 860 860 0 01 32 484 850 850 0 01-248 430 854 854 0 01-778 209 870 870 0 01-303-138 855 855 0 01-228-244 860 860 0 01-116-313zm3894-641a860 860 0 01 66-492 845 845 0 01 327-373 850 850 0 01 480-128 853 853 0 01 468 160 850 850 0 01 301 394 860 860 0 01 33 495 856 856 0 01-693 649 830 830 0 01-333-11 840 840 0 01-304-138 866 866 0 01-228-243 860 860 0 01-117-313zm4935 58a855 855 0 01-438-1645 850 850 0 01 923 216 853 853 0 01-173 1310 850 850 0 01-312 119zm2972-1356a850 850 0 01 65-503 857 857 0 01 327-372 860 860 0 01 948 32 856 856 0 01 301 394 860 860 0 01-215 924 854 854 0 01-778 208 880 880 0 01-304-138 865 865 0 01-346-557zm3902-652a857 857 0 01 392-864 850 850 0 01 1250 426c60 158 71 330 32 495a850 850 0 01-247 430 853 853 0 01-444 220 830 830 0 01-636-150 843 843 0 01-228-244 850 850 0 01-117-312zm4935 60a860 860 0 01-864-394 864 864 0 01-129-480 850 850 0 01 160-470 856 856 0 01 888-334 860 860 0 01 431 248 850 850 0 01 220 445 854 854 0 01-10 334 840 840 0 01-140 304 850 850 0 01-243 228 860 860 0 01-312 118zm2983-1360a860 860 0 01 66-491 850 850 0 01 1278-337 854 854 0 01 301 395 860 860 0 01 31 495 857 857 0 01-695 648 850 850 0 01-333-12 853 853 0 01-530-383 840 840 0 01-116-313zm3900-640a860 860 0 01 65-490 845 845 0 01 327-374 850 850 0 01 480-128 856 856 0 01 800 1050 860 860 0 01-247 428 850 850 0 01-445 220 830 830 0 01-333-12 840 840 0 01-304-138 857 857 0 01-228-243 850 850 0 01-117-312zm4927 57a860 860 0 01-493-66 850 850 0 01-498-808 855 855 0 01 160-470 850 850 0 01 888-332 857 857 0 01 636 1029 843 843 0 01-138 303 870 870 0 01-245 228 860 860 0 01-312 116zm2987-1355a860 860 0 01 66-491 870 870 0 01 328-372 850 850 0 01 950 34 860 860 0 01 300 394c60 158 70 330 31 495a850 850 0 01-248 430 854 854 0 01-778 208 840 840 0 01-304-138 856 856 0 01-227-244 860 860 0 01-117-313zm3895-640a857 857 0 01 392-863 850 850 0 01 948 33 860 860 0 01 86 1319 853 853 0 01-1309-174 850 850 0 01-116-312zm4934 59a850 850 0 01-490-66 857 857 0 01-500-808 860 860 0 01 554-770 850 850 0 01 924 216 860 860 0 01 220 445 873 873 0 01-12 335 880 880 0 01-138 305 874 874 0 01-246 228 850 850 0 01-313 117zm2813-1330a857 857 0 01 392-864 850 850 0 01 948 32 860 860 0 01 303 393c60 158 70 330 32 496a860 860 0 01-248 430 853 853 0 01-444 220 850 850 0 01-333-12 830 830 0 01-304-138 843 843 0 01-228-244 850 850 0 01-117-312zm3902-640a866 866 0 01 65-493 860 860 0 01 328-373 857 857 0 01 480-127 860 860 0 01 470 160 854 854 0 01 332 890 850 850 0 01-247 430 857 857 0 01-445 220 870 870 0 01-333-12 873 873 0 01-303-138 870 870 0 01-229-244 860 860 0 01-118-313zm4936 57a853 853 0 01-489-65 860 860 0 01-374-328 854 854 0 01 33-949 850 850 0 01 392-302 854 854 0 01 495-33 860 860 0 01 430 248 850 850 0 01 207 780 880 880 0 01-138 303 870 870 0 01-244 228 850 850 0 01-312 118zm2972-1355a860 860 0 01 66-492 850 850 0 01 806-500 846 846 0 01 470 160 850 850 0 01 300 392c60 160 71 330 33 496a860 860 0 01-248 429 853 853 0 01-445 219 850 850 0 01-333-11 846 846 0 01-304-138 840 840 0 01-227-244 850 850 0 01-119-313zm3902-642a860 860 0 01 67-490 845 845 0 01 328-373 870 870 0 01 478-128 850 850 0 01 470 161 856 856 0 01 300 394 860 860 0 01 32 495 863 863 0 01-248 430 850 850 0 01-446 220 870 870 0 01-333-13 850 850 0 01-303-139 855 855 0 01-229-244 860 860 0 01-118-314zm4936 58a857 857 0 01-492-65 850 850 0 01-372-328 864 864 0 01-128-480 850 850 0 01 160-468 844 844 0 01 391-302 860 860 0 01 1143 660 830 830 0 01-9 334 860 860 0 01-138 304 884 884 0 01-245 226 840 840 0 01-312 118zm-90194-5358a855 855 0 01-496 10 860 860 0 01-419-270 850 850 0 01-196-460 854 854 0 01 90-490 850 850 0 01 833-458 850 850 0 01 460 185 860 860 0 01 280 411 856 856 0 01-57 650 850 850 0 01-496 420zm-1206-3770a855 855 0 01-496 7 860 860 0 01-613-729 850 850 0 01 925-947 850 850 0 01 740 597 856 856 0 01-556 1070zm-662-4899a854 854 0 01 8 498 860 860 0 01-727 613 850 850 0 01-489-90 870 870 0 01-357-347 860 860 0 01-100-487 850 850 0 01 187-460 860 860 0 01 411-280 854 854 0 01 648 56 850 850 0 01 420 498zm-1775-2747a850 850 0 01-914-262 860 860 0 01-107-946 856 856 0 01 350-356 850 850 0 01 945 82 860 860 0 01-273 1480zm-1214-3770a850 850 0 01-914-264 860 860 0 01-197-457 854 854 0 01 91-490 850 850 0 01 346-356 860 860 0 01 486-103 845 845 0 01 462 186 860 860 0 01-273 1481zm-659-4900a860 860 0 01-717 1112 850 850 0 01-760-1386 850 850 0 01 410-280 854 854 0 01 1067 554zm-1776-2756a850 850 0 01-912-264 860 860 0 01-104-946 850 850 0 01 1572 140 856 856 0 01-555 1070zm-1193-3770a850 850 0 01-496 7 856 856 0 01-417-270 860 860 0 01-198-458 854 854 0 01 91-489 850 850 0 01 832-457 850 850 0 01 461 186 860 860 0 01 280 410 854 854 0 01-57 647 860 860 0 01-496 421zm-675-4899a850 850 0 01 8 498 855 855 0 01-268 418 850 850 0 01-943 107 857 857 0 01-356-347 860 860 0 01-102-487 850 850 0 01 1242-686c200 106 350 284 420 500zm-1774-2744a850 850 0 01-913-264 860 860 0 01-196-457 856 856 0 01 92-489 850 850 0 01 347-354 857 857 0 01 487-102 860 860 0 01 460 186 857 857 0 01-274 1480zm-1204-3773a850 850 0 01-1110-719 860 860 0 01 436-846 857 857 0 01 947 83 860 860 0 01-273 1483zm-666-4896a850 850 0 01 7 497 860 860 0 01-270 417 850 850 0 01-1299-243 860 860 0 01-102-487 857 857 0 01 186-460 850 850 0 01 412-280 854 854 0 01 1067 553zm-1725-2593a850 850 0 01-496 8 860 860 0 01-614-727 854 854 0 01 91-490 850 850 0 01 1293-273 860 860 0 01 280 411 854 854 0 01-60 647 860 860 0 01-494 421zm-1212-3773a850 850 0 01-914-262 850 850 0 01-196-457 854 854 0 01 90-489 850 850 0 01 1573 138 854 854 0 01-57 648 860 860 0 01-496 421zm-657-4896a860 860 0 01 8 497 850 850 0 01-270 417 860 860 0 01-457 196 850 850 0 01-843-439 870 870 0 01-102-487 860 860 0 01 597-740 854 854 0 01 648 58 850 850 0 01 420 498zm-1774-2747a850 850 0 01-1110-719 854 854 0 01 91-490 860 860 0 01 346-355 850 850 0 01 947 84 850 850 0 01 280 410 854 854 0 01-57 648 850 850 0 01-496 420zm-1197-3772a850 850 0 01-496 8 857 857 0 01-418-270 850 850 0 01-106-947 860 860 0 01 347-356 850 850 0 01 948 84 850 850 0 01 281 411 860 860 0 01-57 648 854 854 0 01-497 420zm-673-4897a860 860 0 01-260 915 850 850 0 01-945 106 857 857 0 01-356-348 860 860 0 01 83-948 850 850 0 01 1056-223 856 856 0 01 421 497zm-76840 39146a850 850 0 01-153-472 843 843 0 01 136-478 850 850 0 01 870-380 850 850 0 01 440 225 860 860 0 01 243 434 855 855 0 01-986 1023 850 850 0 01-550-353zm3252-2255a860 860 0 01-20-950 850 850 0 01 870-380 850 850 0 01 442 225 860 860 0 01 240 433 847 847 0 01-38 495 850 850 0 01-307 390 860 860 0 01-305 134 853 853 0 01-334 6 860 860 0 01-550-354zm4484-2058a860 860 0 01-472 153 856 856 0 01-477-135 850 850 0 01-380-870 860 860 0 01 226-442 850 850 0 01 433-242 860 860 0 01 494 40 847 847 0 01 521 612 870 870 0 01-115 644 860 860 0 01-230 240zm2110-2497a860 860 0 01 360-1272 850 850 0 01 1174 606 855 855 0 01-347 885 850 850 0 01-950 18 860 860 0 01-240-232zm3255-2249a860 860 0 01-20-950 855 855 0 01 378-324 860 860 0 01 935 168 860 860 0 01 240 434 855 855 0 01-40 495 850 850 0 01-1493 175zm4187-1890a850 850 0 01-948 17 860 860 0 01-380-870 850 850 0 01 660-680 860 860 0 01 493 40 847 847 0 01 520 610 850 850 0 01-114 645 856 856 0 01-232 240zm2118-2504a860 860 0 01-18-950 850 850 0 01 870-380 850 850 0 01 683 660 854 854 0 01-986 1022 850 850 0 01-549-353zm3550-2420a857 857 0 01-152-473 860 860 0 01 135-478 850 850 0 01 870-380c166 30 320 110 441 226a860 860 0 01 241 433 855 855 0 01-40 495 850 850 0 01-307 390 860 860 0 01-305 134 850 850 0 01-333 6 854 854 0 01-311-122 860 860 0 01-241-232zm4486-2062a850 850 0 01-1270-360 850 850 0 01-58-493 860 860 0 01 225-440 850 850 0 01 433-243 860 860 0 01 495 40 857 857 0 01 522 612 870 870 0 01-115 644 860 860 0 01-230 240zm2110-2494a866 866 0 01-154-472 860 860 0 01 513-800 850 850 0 01 1180 600 855 855 0 01-40 495 860 860 0 01-307 390 850 850 0 01-950 18 860 860 0 01-240-232zm3254-2250a860 860 0 01-20-950 850 850 0 01 870-380 860 860 0 01 684 660 855 855 0 01-348 885 850 850 0 01-1186-213zm4485-2062a850 850 0 01-948 16 860 860 0 01-322-378 870 870 0 01-58-493 860 860 0 01 226-442 850 850 0 01 433-242 860 860 0 01 1016 652 850 850 0 01-115 645 870 870 0 01-230 240zm1977-2409a850 850 0 01-153-472 860 860 0 01 513-800 850 850 0 01 1175 600 855 855 0 01-40 495 860 860 0 01-306 390 850 850 0 01-950 18 840 840 0 01-242-232zm3253-2250a850 850 0 01-153-470 860 860 0 01 512-800 850 850 0 01 1176 600 860 860 0 01-346 883 850 850 0 01-950 18 840 840 0 01-240-232zm4488-2060a860 860 0 01-472 153 850 850 0 01-798-513 850 850 0 01-58-493 860 860 0 01 226-442 850 850 0 01 432-242 860 860 0 01 494 40 850 850 0 01 390 306 840 840 0 01 134 306 850 850 0 01 6 334 854 854 0 01-120 310 850 850 0 01-234 240zm2115-2497a860 860 0 01-17-950 850 850 0 01 870-380 860 860 0 01 441 226 847 847 0 01 202 928 850 850 0 01-307 390 860 860 0 01-305 134 850 850 0 01-333 6 854 854 0 01-310-122 860 860 0 01-240-232zm3246-2250a857 857 0 01-152-470 860 860 0 01 135-479 850 850 0 01 1310-154 860 860 0 01 243 433 855 855 0 01-40 495 850 850 0 01-612 529 850 850 0 01-333 5 860 860 0 01-550-354zm4486-2060a860 860 0 01-472 153 856 856 0 01-477-135 850 850 0 01-380-870 860 860 0 01 226-443 850 850 0 01 1316 104 860 860 0 01 134 306 850 850 0 01 6 335 854 854 0 01-122 310 860 860 0 01-230 240zm106523 26560a856 856 0 01 934-166 860 860 0 01 375 323 850 850 0 01 133 478 860 860 0 01-543 780 850 850 0 01-926-206 860 860 0 01-180-280 880 880 0 01-58-330 870 870 0 01 72-326 840 840 0 01 192-274zm2728 2860a850 850 0 01 442-224 856 856 0 01 492 60 850 850 0 01 356 1272 850 850 0 01-883 345 860 860 0 01-433-243 870 870 0 01-180-282 840 840 0 01-57-330 854 854 0 01 263-600zm2750 4107a850 850 0 01-223-443 860 860 0 01 60-493 850 850 0 01 1268-357 857 857 0 01 347 885 860 860 0 01-243 433 850 850 0 01-610 238 860 860 0 01-325-72 840 840 0 01-274-192zm2800 1686a850 850 0 01 442-228 857 857 0 01 868 382 850 850 0 01 135 477 860 860 0 01-154 473 857 857 0 01-884 345 857 857 0 01-432-243 870 870 0 01-180-280 840 840 0 01-57-330 873 873 0 01 263-600zm2734 2856a850 850 0 01 442-224 860 860 0 01 493 60 850 850 0 01 510 800 850 850 0 01-1470 574 853 853 0 01-237-610 860 860 0 01 262-598zm2747 4108a860 860 0 01-166-936 850 850 0 01 800-510 860 860 0 01 472 154 850 850 0 01 306 390c60 159 74 330 38 496a860 860 0 01-244 433 850 850 0 01-608 236 853 853 0 01-598-263zm2804 1693a850 850 0 01 442-224 856 856 0 01 492 60 850 850 0 01 510 800 860 860 0 01-154 472 857 857 0 01-883 346 864 864 0 01-433-243 870 870 0 01-180-282 840 840 0 01-57-330 850 850 0 01 72-325 857 857 0 01 190-275"/><use xlink:href="#l"/><path d="M479222 94556a865 865 0 01-224-443 860 860 0 01 60-493 856 856 0 01 322-377 850 850 0 01 948 20 860 860 0 01 103 1318 860 860 0 01-610 238 850 850 0 01-320-72 860 860 0 01-270-192zm2797 1687a850 850 0 01 934-165 850 850 0 01 377 323 860 860 0 01-20 950 860 860 0 01-390 307 850 850 0 01-926-205 854 854 0 01-180-282 860 860 0 01-58-330 854 854 0 01 263-599zm2737 2861a850 850 0 01 1311 157 860 860 0 01-20 951 857 857 0 01-885 344 850 850 0 01-432-244 860 860 0 01-237-610 854 854 0 01 263-598zm2745 4106a850 850 0 01-165-935 856 856 0 01 322-377 860 860 0 01 949 20 857 857 0 01 344 885 850 850 0 01-242 433 860 860 0 01-610 238 850 850 0 01-325-72 830 830 0 01-273-192zm-110310-62736a12110 12110 0 00-10000-13895c-6592-1072-12804 3412-13874 10014a12110 12110 0 00 9999 13895c6592 1072 12804-3412 13874-10014"/></g><g fill="#fff"><path d="M361354 33669a3890 3890 0 01 653-2161 3880 3880 0 01 3987-1655 3880 3880 0 01 1988 1064 3893 3893 0 01-590 5984 3873 3873 0 01-2158 654 3880 3880 0 01-2744-1138 3890 3890 0 01-1136-2748"/><path d="M365235 37556a6790 6790 0 00-4803 1992 6810 6810 0 00-1990 4810h13586a6820 6820 0 00-517-2603 6810 6810 0 00-1473-2207 6785 6785 0 00-4803-1993"/></g><path d="M467469 62405c1390-10212-5750-19619-15947-21010s-19590 5759-20980 15970 5751 19620 15948 21010 19590-5758 20979-15970" fill="#ccbef2"/><g fill="#fff"><path d="M449025 58394c3304 0 5982-2682 5982-5990s-2678-5990-5982-5990-5981 2682-5981 5990 2678 5990 5981 5990"/><path d="M449019 58394c-2775 0-5435 1104-7397 3068s-3063 4629-3063 7407h20933a10480 10480 0 00-798-4012 10463 10463 0 00-5668-5670 10450 10450 0 00-4007-794"/></g><path d="M508239 112290c685-6924-4364-13093-11278-13780s-13070 4371-13750 11295 4365 13093 11278 13780a12590 12590 0 00 13760-11295" fill="#ccbef2"/><path d="M497167 114028a1916 1916 0 00-101-684 1410 1410 0 00-348-539 2674 2674 0 00-640-451 6787 6787 0 00-948-408l-1752-740a5900 5900 0 01-1343-880 3470 3470 0 01-854-1155 3905 3905 0 01-298-1486 3900 3900 0 01 298-1497c187-424 462-803 807-1112a4105 4105 0 01 1244-760 5460 5460 0 01 1614-359l28-1969 1584 23-30 1998a4910 4910 0 01 1537 475 3700 3700 0 01 1170 905 3730 3730 0 01 724 1290 4980 4980 0 01 237 1666l-2859-43c10-735-145-1288-465-1658a1684 1684 0 00-1305-566 2135 2135 0 00-768 114 1430 1430 0 00-534 333 1324 1324 0 00-314 507 1920 1920 0 00-108 641c-7 210 23 420 90 617a1350 1350 0 00 332 516 2770 2770 0 00 641 454c320 166 650 314 988 442l1736 762a5960 5960 0 01 1338 890 3367 3367 0 01 1150 2710 3600 3600 0 01-305 1451 3252 3252 0 01-813 1102 3960 3960 0 01-1253 734 5897 5897 0 01-1622 347l-28 1831-1573-22 27-1822a6543 6543 0 01-1573-385 4183 4183 0 01-1350-814 3807 3807 0 01-929-1327 4587 4587 0 01-329-1903l2861 44c-16 372 40 743 167 1093 102 270 266 512 480 706a1770 1770 0 00 692 380 3130 3130 0 00 794 117c278 10 555-28 821-109 217-66 420-176 593-323a1330 1330 0 00 362-496c85-198 132-410 140-626" fill="#fff"/><path d="M85926 326867c-355 0-633-76-836-228l-494-532-8170-9082c-228-253-380-494-456-722-51-228-76-545-76-950v-1368c0-253 76-469 228-646a926 926 0 01 684-266h1786c1596 0 2825-203 3686-608 860-430 1444-1000 1748-1710 329-709 494-1533 494-2470 0-887-165-1685-494-2394-304-709-861-1279-1672-1710-811-456-1951-684-3420-684H76540a959 959 0 01-646-228 926 926 0 01-266-684v-1406a880 880 0 01 912-912h15694a880 880 0 01 912 912v1406a926 926 0 01-266 684 959 959 0 01-646 228h-6042l76-912c1393 431 2356 1203 2888 2318 532 1089 798 2318 798 3686 0 1469-317 2799-950 3990s-1596 2141-2888 2850c-1267 700-2837 1110-4712 1210l-1330 110 418-2166 9766 11020c203 228 304 418 304 570 0 228-76 405-228 532a1009 1009 0 01-570 153h-3838zm-9386-17214a926 926 0 01-684-266 959 959 0 01-228-646v-1406c0-279 90-494 266-646a880 880 0 01 646-266h15694a880 880 0 01 646 266c177 152 266 367 266 646l-38 1406a880 880 0 01-266 646c-152 177-367 266-646 266H76540" fill="#e2810e"/></g><defs><path d="M152842 337428h-756v6212h756v-6212" id="b"/><path d="M145734 331215h-755v6213h755v-6213" id="c"/><path d="M140112 331215h-756v6213h756v-6213" id="d"/><path d="M529668 339292h-517v4252h517v-4252" id="e"/><path d="M525821 339292h-516v4252h516v-4252" id="f"/><path d="M529668 297124h-517v4253h517v-4253" id="g"/><path d="M470924 338894h-570v4689h570v-4689" id="h"/><path d="M465562 334208h-570v4686h570v-4686" id="i"/><path d="M468154 329635h-570v4688h570v-4688" id="j"/><path d="M469353 297094h-570v4687h570v-4687" id="k"/><path d="M476477 90449a850 850 0 01 442-224 850 850 0 01 492 59c155 68 286 180 377 323a860 860 0 01 133 478 858 858 0 01-153 472 860 860 0 01-390 307 850 850 0 01-494 38 850 850 0 01-612-525 860 860 0 01-58-330 854 854 0 01 263-600" id="l"/><clipPath id="a"><path d="M0 0h555000v345000H0" fill="#fff"/></clipPath></defs></svg>
