<svg xmlns="http://www.w3.org/2000/svg" width="28" height="29" fill="#683fdb" xmlns:v="https://vecta.io/nano"><path d="M21.453.577h4.357c1.207 0 2.19.982 2.19 2.191v13.13c0 1.207-.983 2.191-2.19 2.191h-4.357c-1.207 0-2.191-.983-2.191-2.191V2.767c0-1.208.983-2.191 2.191-2.191h0zm4.357 15.76a.44.44 0 0 0 .439-.44V2.767a.44.44 0 0 0-.439-.44h-4.357a.44.44 0 0 0-.44.44v13.13a.44.44 0 0 0 .44.44h4.357z"/><path d="M5.405.577h10.612a3.52 3.52 0 0 1 1.565.37l2.949 1.474c.433.216.608.742.392 1.175s-.742.608-1.175.391l-2.949-1.474c-.242-.121-.512-.185-.781-.185H5.405a.9.9 0 0 0-.777.451l-.989 1.73a14.36 14.36 0 0 0-1.889 7.113v2.963c0 .967.786 1.753 1.753 1.753h6.59c.58 0 1.122.287 1.447.768a1.75 1.75 0 0 1 .175 1.629 16.84 16.84 0 0 0-1.21 6.285v1.015a.81.81 0 0 0 .811.811h.545c.36 0 .68-.242.779-.587l.343-1.2c.735-2.572 1.955-4.934 3.626-7.023a4.49 4.49 0 0 1 3.528-1.696h2.627c.483 0 .875.392.875.876s-.392.876-.875.876h-2.627c-.845 0-1.633.379-2.161 1.039a18.26 18.26 0 0 0-3.309 6.41l-.343 1.2c-.312 1.093-1.325 1.857-2.463 1.857h-.545c-1.413 0-2.562-1.149-2.562-2.562v-1.015a18.61 18.61 0 0 1 1.335-6.936l-6.587.005A3.51 3.51 0 0 1 0 14.584v-2.963a16.11 16.11 0 0 1 2.12-7.982l.989-1.73A2.65 2.65 0 0 1 5.405.577h0zm17.36 4.378c0-.484.392-.876.876-.876s.875.392.875.876-.392.876-.875.876-.876-.392-.876-.876z"/></svg>