<svg xmlns="http://www.w3.org/2000/svg" width="29" height="29" fill="#683fdb" xmlns:v="https://vecta.io/nano"><path d="M7.119 28.595H2.763c-1.207 0-2.19-.982-2.19-2.191v-13.13c0-1.207.982-2.191 2.19-2.191h4.357c1.207 0 2.191.983 2.191 2.191v13.13c0 1.208-.983 2.191-2.191 2.191h0zm-4.357-15.76a.44.44 0 0 0-.439.44v13.13a.44.44 0 0 0 .439.439h4.357a.44.44 0 0 0 .44-.439v-13.13a.44.44 0 0 0-.44-.44H2.763z"/><path d="M23.168 28.595H12.556a3.52 3.52 0 0 1-1.565-.37l-2.949-1.474c-.433-.216-.608-.742-.391-1.175s.742-.608 1.175-.391l2.949 1.474c.242.121.512.185.781.185h10.612a.9.9 0 0 0 .777-.451l.988-1.73a14.36 14.36 0 0 0 1.889-7.113v-2.963c0-.967-.786-1.753-1.753-1.753h-6.59c-.581 0-1.122-.287-1.447-.768a1.75 1.75 0 0 1-.175-1.629 16.84 16.84 0 0 0 1.21-6.285V3.138a.81.81 0 0 0-.811-.811h-.545c-.36 0-.68.242-.779.587l-.343 1.2a19.99 19.99 0 0 1-3.626 7.023 4.49 4.49 0 0 1-3.528 1.696H5.808c-.483 0-.876-.392-.876-.876s.392-.876.876-.876h2.627c.845 0 1.633-.379 2.161-1.039a18.24 18.24 0 0 0 3.309-6.41l.343-1.2C14.56 1.341 15.573.577 16.711.577h.545c1.413 0 2.562 1.149 2.562 2.562v1.015a18.6 18.6 0 0 1-1.335 6.935l6.587-.005a3.51 3.51 0 0 1 3.504 3.504v2.963a16.11 16.11 0 0 1-2.12 7.982l-.989 1.73a2.65 2.65 0 0 1-2.297 1.333h0zm-17.36-4.378c0 .483-.392.876-.876.876s-.876-.392-.876-.876.392-.876.876-.876.876.392.876.876z"/></svg>